<?xml version="1.0" encoding="utf-8" standalone="no"?>
<!DOCTYPE svg PUBLIC "-//W3C//DTD SVG 1.1//EN"
  "http://www.w3.org/Graphics/SVG/1.1/DTD/svg11.dtd">
<!-- Created with matplotlib (http://matplotlib.org/) -->
<svg height="223.2325pt" version="1.1" viewBox="0 0 1402.060938 223.2325" width="1402.060938pt" xmlns="http://www.w3.org/2000/svg" xmlns:xlink="http://www.w3.org/1999/xlink">
 <defs>
  <style type="text/css">
*{stroke-linecap:butt;stroke-linejoin:round;}
  </style>
 </defs>
 <g id="figure_1">
  <g id="patch_1">
   <path d="M 0 223.2325 
L 1402.060938 223.2325 
L 1402.060938 0 
L 0 0 
z
" style="fill:#ffffff;"/>
  </g>
  <g id="axes_1">
   <g id="patch_2">
    <path d="M 52.160938 185.398125 
L 343.291372 185.398125 
L 343.291372 22.318125 
L 52.160938 22.318125 
z
" style="fill:none;"/>
   </g>
   <g id="matplotlib.axis_1">
    <g id="xtick_1">
     <g id="line2d_1">
      <defs>
       <path d="M 0 0 
L 0 3.5 
" id="m580afc21de" style="stroke:#000000;stroke-width:0.8;"/>
      </defs>
      <g>
       <use style="stroke:#000000;stroke-width:0.8;" x="65.394139" xlink:href="#m580afc21de" y="185.398125"/>
      </g>
     </g>
     <g id="text_1">
      <!-- 0 -->
      <defs>
       <path d="M 31.78125 66.40625 
Q 24.171875 66.40625 20.328125 58.90625 
Q 16.5 51.421875 16.5 36.375 
Q 16.5 21.390625 20.328125 13.890625 
Q 24.171875 6.390625 31.78125 6.390625 
Q 39.453125 6.390625 43.28125 13.890625 
Q 47.125 21.390625 47.125 36.375 
Q 47.125 51.421875 43.28125 58.90625 
Q 39.453125 66.40625 31.78125 66.40625 
z
M 31.78125 74.21875 
Q 44.046875 74.21875 50.515625 64.515625 
Q 56.984375 54.828125 56.984375 36.375 
Q 56.984375 17.96875 50.515625 8.265625 
Q 44.046875 -1.421875 31.78125 -1.421875 
Q 19.53125 -1.421875 13.0625 8.265625 
Q 6.59375 17.96875 6.59375 36.375 
Q 6.59375 54.828125 13.0625 64.515625 
Q 19.53125 74.21875 31.78125 74.21875 
z
" id="DejaVuSans-30"/>
      </defs>
      <g transform="translate(62.212889 199.996563)scale(0.1 -0.1)">
       <use xlink:href="#DejaVuSans-30"/>
      </g>
     </g>
    </g>
    <g id="xtick_2">
     <g id="line2d_2">
      <g>
       <use style="stroke:#000000;stroke-width:0.8;" x="109.875489" xlink:href="#m580afc21de" y="185.398125"/>
      </g>
     </g>
     <g id="text_2">
      <!-- 20 -->
      <defs>
       <path d="M 19.1875 8.296875 
L 53.609375 8.296875 
L 53.609375 0 
L 7.328125 0 
L 7.328125 8.296875 
Q 12.9375 14.109375 22.625 23.890625 
Q 32.328125 33.6875 34.8125 36.53125 
Q 39.546875 41.84375 41.421875 45.53125 
Q 43.3125 49.21875 43.3125 52.78125 
Q 43.3125 58.59375 39.234375 62.25 
Q 35.15625 65.921875 28.609375 65.921875 
Q 23.96875 65.921875 18.8125 64.3125 
Q 13.671875 62.703125 7.8125 59.421875 
L 7.8125 69.390625 
Q 13.765625 71.78125 18.9375 73 
Q 24.125 74.21875 28.421875 74.21875 
Q 39.75 74.21875 46.484375 68.546875 
Q 53.21875 62.890625 53.21875 53.421875 
Q 53.21875 48.921875 51.53125 44.890625 
Q 49.859375 40.875 45.40625 35.40625 
Q 44.1875 33.984375 37.640625 27.21875 
Q 31.109375 20.453125 19.1875 8.296875 
z
" id="DejaVuSans-32"/>
      </defs>
      <g transform="translate(103.512989 199.996563)scale(0.1 -0.1)">
       <use xlink:href="#DejaVuSans-32"/>
       <use x="63.623047" xlink:href="#DejaVuSans-30"/>
      </g>
     </g>
    </g>
    <g id="xtick_3">
     <g id="line2d_3">
      <g>
       <use style="stroke:#000000;stroke-width:0.8;" x="154.356839" xlink:href="#m580afc21de" y="185.398125"/>
      </g>
     </g>
     <g id="text_3">
      <!-- 40 -->
      <defs>
       <path d="M 37.796875 64.3125 
L 12.890625 25.390625 
L 37.796875 25.390625 
z
M 35.203125 72.90625 
L 47.609375 72.90625 
L 47.609375 25.390625 
L 58.015625 25.390625 
L 58.015625 17.1875 
L 47.609375 17.1875 
L 47.609375 0 
L 37.796875 0 
L 37.796875 17.1875 
L 4.890625 17.1875 
L 4.890625 26.703125 
z
" id="DejaVuSans-34"/>
      </defs>
      <g transform="translate(147.994339 199.996563)scale(0.1 -0.1)">
       <use xlink:href="#DejaVuSans-34"/>
       <use x="63.623047" xlink:href="#DejaVuSans-30"/>
      </g>
     </g>
    </g>
    <g id="xtick_4">
     <g id="line2d_4">
      <g>
       <use style="stroke:#000000;stroke-width:0.8;" x="198.838189" xlink:href="#m580afc21de" y="185.398125"/>
      </g>
     </g>
     <g id="text_4">
      <!-- 60 -->
      <defs>
       <path d="M 33.015625 40.375 
Q 26.375 40.375 22.484375 35.828125 
Q 18.609375 31.296875 18.609375 23.390625 
Q 18.609375 15.53125 22.484375 10.953125 
Q 26.375 6.390625 33.015625 6.390625 
Q 39.65625 6.390625 43.53125 10.953125 
Q 47.40625 15.53125 47.40625 23.390625 
Q 47.40625 31.296875 43.53125 35.828125 
Q 39.65625 40.375 33.015625 40.375 
z
M 52.59375 71.296875 
L 52.59375 62.3125 
Q 48.875 64.0625 45.09375 64.984375 
Q 41.3125 65.921875 37.59375 65.921875 
Q 27.828125 65.921875 22.671875 59.328125 
Q 17.53125 52.734375 16.796875 39.40625 
Q 19.671875 43.65625 24.015625 45.921875 
Q 28.375 48.1875 33.59375 48.1875 
Q 44.578125 48.1875 50.953125 41.515625 
Q 57.328125 34.859375 57.328125 23.390625 
Q 57.328125 12.15625 50.6875 5.359375 
Q 44.046875 -1.421875 33.015625 -1.421875 
Q 20.359375 -1.421875 13.671875 8.265625 
Q 6.984375 17.96875 6.984375 36.375 
Q 6.984375 53.65625 15.1875 63.9375 
Q 23.390625 74.21875 37.203125 74.21875 
Q 40.921875 74.21875 44.703125 73.484375 
Q 48.484375 72.75 52.59375 71.296875 
z
" id="DejaVuSans-36"/>
      </defs>
      <g transform="translate(192.475689 199.996563)scale(0.1 -0.1)">
       <use xlink:href="#DejaVuSans-36"/>
       <use x="63.623047" xlink:href="#DejaVuSans-30"/>
      </g>
     </g>
    </g>
    <g id="xtick_5">
     <g id="line2d_5">
      <g>
       <use style="stroke:#000000;stroke-width:0.8;" x="243.319538" xlink:href="#m580afc21de" y="185.398125"/>
      </g>
     </g>
     <g id="text_5">
      <!-- 80 -->
      <defs>
       <path d="M 31.78125 34.625 
Q 24.75 34.625 20.71875 30.859375 
Q 16.703125 27.09375 16.703125 20.515625 
Q 16.703125 13.921875 20.71875 10.15625 
Q 24.75 6.390625 31.78125 6.390625 
Q 38.8125 6.390625 42.859375 10.171875 
Q 46.921875 13.96875 46.921875 20.515625 
Q 46.921875 27.09375 42.890625 30.859375 
Q 38.875 34.625 31.78125 34.625 
z
M 21.921875 38.8125 
Q 15.578125 40.375 12.03125 44.71875 
Q 8.5 49.078125 8.5 55.328125 
Q 8.5 64.0625 14.71875 69.140625 
Q 20.953125 74.21875 31.78125 74.21875 
Q 42.671875 74.21875 48.875 69.140625 
Q 55.078125 64.0625 55.078125 55.328125 
Q 55.078125 49.078125 51.53125 44.71875 
Q 48 40.375 41.703125 38.8125 
Q 48.828125 37.15625 52.796875 32.3125 
Q 56.78125 27.484375 56.78125 20.515625 
Q 56.78125 9.90625 50.3125 4.234375 
Q 43.84375 -1.421875 31.78125 -1.421875 
Q 19.734375 -1.421875 13.25 4.234375 
Q 6.78125 9.90625 6.78125 20.515625 
Q 6.78125 27.484375 10.78125 32.3125 
Q 14.796875 37.15625 21.921875 38.8125 
z
M 18.3125 54.390625 
Q 18.3125 48.734375 21.84375 45.5625 
Q 25.390625 42.390625 31.78125 42.390625 
Q 38.140625 42.390625 41.71875 45.5625 
Q 45.3125 48.734375 45.3125 54.390625 
Q 45.3125 60.0625 41.71875 63.234375 
Q 38.140625 66.40625 31.78125 66.40625 
Q 25.390625 66.40625 21.84375 63.234375 
Q 18.3125 60.0625 18.3125 54.390625 
z
" id="DejaVuSans-38"/>
      </defs>
      <g transform="translate(236.957038 199.996563)scale(0.1 -0.1)">
       <use xlink:href="#DejaVuSans-38"/>
       <use x="63.623047" xlink:href="#DejaVuSans-30"/>
      </g>
     </g>
    </g>
    <g id="xtick_6">
     <g id="line2d_6">
      <g>
       <use style="stroke:#000000;stroke-width:0.8;" x="287.800888" xlink:href="#m580afc21de" y="185.398125"/>
      </g>
     </g>
     <g id="text_6">
      <!-- 100 -->
      <defs>
       <path d="M 12.40625 8.296875 
L 28.515625 8.296875 
L 28.515625 63.921875 
L 10.984375 60.40625 
L 10.984375 69.390625 
L 28.421875 72.90625 
L 38.28125 72.90625 
L 38.28125 8.296875 
L 54.390625 8.296875 
L 54.390625 0 
L 12.40625 0 
z
" id="DejaVuSans-31"/>
      </defs>
      <g transform="translate(278.257138 199.996563)scale(0.1 -0.1)">
       <use xlink:href="#DejaVuSans-31"/>
       <use x="63.623047" xlink:href="#DejaVuSans-30"/>
       <use x="127.246094" xlink:href="#DejaVuSans-30"/>
      </g>
     </g>
    </g>
    <g id="xtick_7">
     <g id="line2d_7">
      <g>
       <use style="stroke:#000000;stroke-width:0.8;" x="332.282238" xlink:href="#m580afc21de" y="185.398125"/>
      </g>
     </g>
     <g id="text_7">
      <!-- 120 -->
      <g transform="translate(322.738488 199.996563)scale(0.1 -0.1)">
       <use xlink:href="#DejaVuSans-31"/>
       <use x="63.623047" xlink:href="#DejaVuSans-32"/>
       <use x="127.246094" xlink:href="#DejaVuSans-30"/>
      </g>
     </g>
    </g>
    <g id="text_8">
     <!-- n_window -->
     <defs>
      <path d="M 54.890625 33.015625 
L 54.890625 0 
L 45.90625 0 
L 45.90625 32.71875 
Q 45.90625 40.484375 42.875 44.328125 
Q 39.84375 48.1875 33.796875 48.1875 
Q 26.515625 48.1875 22.3125 43.546875 
Q 18.109375 38.921875 18.109375 30.90625 
L 18.109375 0 
L 9.078125 0 
L 9.078125 54.6875 
L 18.109375 54.6875 
L 18.109375 46.1875 
Q 21.34375 51.125 25.703125 53.5625 
Q 30.078125 56 35.796875 56 
Q 45.21875 56 50.046875 50.171875 
Q 54.890625 44.34375 54.890625 33.015625 
z
" id="DejaVuSans-6e"/>
      <path d="M 50.984375 -16.609375 
L 50.984375 -23.578125 
L -0.984375 -23.578125 
L -0.984375 -16.609375 
z
" id="DejaVuSans-5f"/>
      <path d="M 4.203125 54.6875 
L 13.1875 54.6875 
L 24.421875 12.015625 
L 35.59375 54.6875 
L 46.1875 54.6875 
L 57.421875 12.015625 
L 68.609375 54.6875 
L 77.59375 54.6875 
L 63.28125 0 
L 52.6875 0 
L 40.921875 44.828125 
L 29.109375 0 
L 18.5 0 
z
" id="DejaVuSans-77"/>
      <path d="M 9.421875 54.6875 
L 18.40625 54.6875 
L 18.40625 0 
L 9.421875 0 
z
M 9.421875 75.984375 
L 18.40625 75.984375 
L 18.40625 64.59375 
L 9.421875 64.59375 
z
" id="DejaVuSans-69"/>
      <path d="M 45.40625 46.390625 
L 45.40625 75.984375 
L 54.390625 75.984375 
L 54.390625 0 
L 45.40625 0 
L 45.40625 8.203125 
Q 42.578125 3.328125 38.25 0.953125 
Q 33.9375 -1.421875 27.875 -1.421875 
Q 17.96875 -1.421875 11.734375 6.484375 
Q 5.515625 14.40625 5.515625 27.296875 
Q 5.515625 40.1875 11.734375 48.09375 
Q 17.96875 56 27.875 56 
Q 33.9375 56 38.25 53.625 
Q 42.578125 51.265625 45.40625 46.390625 
z
M 14.796875 27.296875 
Q 14.796875 17.390625 18.875 11.75 
Q 22.953125 6.109375 30.078125 6.109375 
Q 37.203125 6.109375 41.296875 11.75 
Q 45.40625 17.390625 45.40625 27.296875 
Q 45.40625 37.203125 41.296875 42.84375 
Q 37.203125 48.484375 30.078125 48.484375 
Q 22.953125 48.484375 18.875 42.84375 
Q 14.796875 37.203125 14.796875 27.296875 
z
" id="DejaVuSans-64"/>
      <path d="M 30.609375 48.390625 
Q 23.390625 48.390625 19.1875 42.75 
Q 14.984375 37.109375 14.984375 27.296875 
Q 14.984375 17.484375 19.15625 11.84375 
Q 23.34375 6.203125 30.609375 6.203125 
Q 37.796875 6.203125 41.984375 11.859375 
Q 46.1875 17.53125 46.1875 27.296875 
Q 46.1875 37.015625 41.984375 42.703125 
Q 37.796875 48.390625 30.609375 48.390625 
z
M 30.609375 56 
Q 42.328125 56 49.015625 48.375 
Q 55.71875 40.765625 55.71875 27.296875 
Q 55.71875 13.875 49.015625 6.21875 
Q 42.328125 -1.421875 30.609375 -1.421875 
Q 18.84375 -1.421875 12.171875 6.21875 
Q 5.515625 13.875 5.515625 27.296875 
Q 5.515625 40.765625 12.171875 48.375 
Q 18.84375 56 30.609375 56 
z
" id="DejaVuSans-6f"/>
     </defs>
     <g transform="translate(173.087874 213.674688)scale(0.1 -0.1)">
      <use xlink:href="#DejaVuSans-6e"/>
      <use x="63.378906" xlink:href="#DejaVuSans-5f"/>
      <use x="113.378906" xlink:href="#DejaVuSans-77"/>
      <use x="195.166016" xlink:href="#DejaVuSans-69"/>
      <use x="222.949219" xlink:href="#DejaVuSans-6e"/>
      <use x="286.328125" xlink:href="#DejaVuSans-64"/>
      <use x="349.804688" xlink:href="#DejaVuSans-6f"/>
      <use x="410.986328" xlink:href="#DejaVuSans-77"/>
     </g>
    </g>
   </g>
   <g id="matplotlib.axis_2">
    <g id="ytick_1">
     <g id="line2d_8">
      <defs>
       <path d="M 0 0 
L -3.5 0 
" id="m91891c0a3d" style="stroke:#000000;stroke-width:0.8;"/>
      </defs>
      <g>
       <use style="stroke:#000000;stroke-width:0.8;" x="52.160938" xlink:href="#m91891c0a3d" y="181.657847"/>
      </g>
     </g>
     <g id="text_9">
      <!-- −1.0 -->
      <defs>
       <path d="M 10.59375 35.5 
L 73.1875 35.5 
L 73.1875 27.203125 
L 10.59375 27.203125 
z
" id="DejaVuSans-2212"/>
       <path d="M 10.6875 12.40625 
L 21 12.40625 
L 21 0 
L 10.6875 0 
z
" id="DejaVuSans-2e"/>
      </defs>
      <g transform="translate(20.878125 185.457066)scale(0.1 -0.1)">
       <use xlink:href="#DejaVuSans-2212"/>
       <use x="83.789062" xlink:href="#DejaVuSans-31"/>
       <use x="147.412109" xlink:href="#DejaVuSans-2e"/>
       <use x="179.199219" xlink:href="#DejaVuSans-30"/>
      </g>
     </g>
    </g>
    <g id="ytick_2">
     <g id="line2d_9">
      <g>
       <use style="stroke:#000000;stroke-width:0.8;" x="52.160938" xlink:href="#m91891c0a3d" y="142.441175"/>
      </g>
     </g>
     <g id="text_10">
      <!-- −0.5 -->
      <defs>
       <path d="M 10.796875 72.90625 
L 49.515625 72.90625 
L 49.515625 64.59375 
L 19.828125 64.59375 
L 19.828125 46.734375 
Q 21.96875 47.46875 24.109375 47.828125 
Q 26.265625 48.1875 28.421875 48.1875 
Q 40.625 48.1875 47.75 41.5 
Q 54.890625 34.8125 54.890625 23.390625 
Q 54.890625 11.625 47.5625 5.09375 
Q 40.234375 -1.421875 26.90625 -1.421875 
Q 22.3125 -1.421875 17.546875 -0.640625 
Q 12.796875 0.140625 7.71875 1.703125 
L 7.71875 11.625 
Q 12.109375 9.234375 16.796875 8.0625 
Q 21.484375 6.890625 26.703125 6.890625 
Q 35.15625 6.890625 40.078125 11.328125 
Q 45.015625 15.765625 45.015625 23.390625 
Q 45.015625 31 40.078125 35.4375 
Q 35.15625 39.890625 26.703125 39.890625 
Q 22.75 39.890625 18.8125 39.015625 
Q 14.890625 38.140625 10.796875 36.28125 
z
" id="DejaVuSans-35"/>
      </defs>
      <g transform="translate(20.878125 146.240394)scale(0.1 -0.1)">
       <use xlink:href="#DejaVuSans-2212"/>
       <use x="83.789062" xlink:href="#DejaVuSans-30"/>
       <use x="147.412109" xlink:href="#DejaVuSans-2e"/>
       <use x="179.199219" xlink:href="#DejaVuSans-35"/>
      </g>
     </g>
    </g>
    <g id="ytick_3">
     <g id="line2d_10">
      <g>
       <use style="stroke:#000000;stroke-width:0.8;" x="52.160938" xlink:href="#m91891c0a3d" y="103.224503"/>
      </g>
     </g>
     <g id="text_11">
      <!-- 0.0 -->
      <g transform="translate(29.257813 107.023721)scale(0.1 -0.1)">
       <use xlink:href="#DejaVuSans-30"/>
       <use x="63.623047" xlink:href="#DejaVuSans-2e"/>
       <use x="95.410156" xlink:href="#DejaVuSans-30"/>
      </g>
     </g>
    </g>
    <g id="ytick_4">
     <g id="line2d_11">
      <g>
       <use style="stroke:#000000;stroke-width:0.8;" x="52.160938" xlink:href="#m91891c0a3d" y="64.00783"/>
      </g>
     </g>
     <g id="text_12">
      <!-- 0.5 -->
      <g transform="translate(29.257813 67.807049)scale(0.1 -0.1)">
       <use xlink:href="#DejaVuSans-30"/>
       <use x="63.623047" xlink:href="#DejaVuSans-2e"/>
       <use x="95.410156" xlink:href="#DejaVuSans-35"/>
      </g>
     </g>
    </g>
    <g id="ytick_5">
     <g id="line2d_12">
      <g>
       <use style="stroke:#000000;stroke-width:0.8;" x="52.160938" xlink:href="#m91891c0a3d" y="24.791158"/>
      </g>
     </g>
     <g id="text_13">
      <!-- 1.0 -->
      <g transform="translate(29.257813 28.590377)scale(0.1 -0.1)">
       <use xlink:href="#DejaVuSans-31"/>
       <use x="63.623047" xlink:href="#DejaVuSans-2e"/>
       <use x="95.410156" xlink:href="#DejaVuSans-30"/>
      </g>
     </g>
    </g>
    <g id="text_14">
     <!-- Coef. corr Pearson -->
     <defs>
      <path d="M 64.40625 67.28125 
L 64.40625 56.890625 
Q 59.421875 61.53125 53.78125 63.8125 
Q 48.140625 66.109375 41.796875 66.109375 
Q 29.296875 66.109375 22.65625 58.46875 
Q 16.015625 50.828125 16.015625 36.375 
Q 16.015625 21.96875 22.65625 14.328125 
Q 29.296875 6.6875 41.796875 6.6875 
Q 48.140625 6.6875 53.78125 8.984375 
Q 59.421875 11.28125 64.40625 15.921875 
L 64.40625 5.609375 
Q 59.234375 2.09375 53.4375 0.328125 
Q 47.65625 -1.421875 41.21875 -1.421875 
Q 24.65625 -1.421875 15.125 8.703125 
Q 5.609375 18.84375 5.609375 36.375 
Q 5.609375 53.953125 15.125 64.078125 
Q 24.65625 74.21875 41.21875 74.21875 
Q 47.75 74.21875 53.53125 72.484375 
Q 59.328125 70.75 64.40625 67.28125 
z
" id="DejaVuSans-43"/>
      <path d="M 56.203125 29.59375 
L 56.203125 25.203125 
L 14.890625 25.203125 
Q 15.484375 15.921875 20.484375 11.0625 
Q 25.484375 6.203125 34.421875 6.203125 
Q 39.59375 6.203125 44.453125 7.46875 
Q 49.3125 8.734375 54.109375 11.28125 
L 54.109375 2.78125 
Q 49.265625 0.734375 44.1875 -0.34375 
Q 39.109375 -1.421875 33.890625 -1.421875 
Q 20.796875 -1.421875 13.15625 6.1875 
Q 5.515625 13.8125 5.515625 26.8125 
Q 5.515625 40.234375 12.765625 48.109375 
Q 20.015625 56 32.328125 56 
Q 43.359375 56 49.78125 48.890625 
Q 56.203125 41.796875 56.203125 29.59375 
z
M 47.21875 32.234375 
Q 47.125 39.59375 43.09375 43.984375 
Q 39.0625 48.390625 32.421875 48.390625 
Q 24.90625 48.390625 20.390625 44.140625 
Q 15.875 39.890625 15.1875 32.171875 
z
" id="DejaVuSans-65"/>
      <path d="M 37.109375 75.984375 
L 37.109375 68.5 
L 28.515625 68.5 
Q 23.6875 68.5 21.796875 66.546875 
Q 19.921875 64.59375 19.921875 59.515625 
L 19.921875 54.6875 
L 34.71875 54.6875 
L 34.71875 47.703125 
L 19.921875 47.703125 
L 19.921875 0 
L 10.890625 0 
L 10.890625 47.703125 
L 2.296875 47.703125 
L 2.296875 54.6875 
L 10.890625 54.6875 
L 10.890625 58.5 
Q 10.890625 67.625 15.140625 71.796875 
Q 19.390625 75.984375 28.609375 75.984375 
z
" id="DejaVuSans-66"/>
      <path id="DejaVuSans-20"/>
      <path d="M 48.78125 52.59375 
L 48.78125 44.1875 
Q 44.96875 46.296875 41.140625 47.34375 
Q 37.3125 48.390625 33.40625 48.390625 
Q 24.65625 48.390625 19.8125 42.84375 
Q 14.984375 37.3125 14.984375 27.296875 
Q 14.984375 17.28125 19.8125 11.734375 
Q 24.65625 6.203125 33.40625 6.203125 
Q 37.3125 6.203125 41.140625 7.25 
Q 44.96875 8.296875 48.78125 10.40625 
L 48.78125 2.09375 
Q 45.015625 0.34375 40.984375 -0.53125 
Q 36.96875 -1.421875 32.421875 -1.421875 
Q 20.0625 -1.421875 12.78125 6.34375 
Q 5.515625 14.109375 5.515625 27.296875 
Q 5.515625 40.671875 12.859375 48.328125 
Q 20.21875 56 33.015625 56 
Q 37.15625 56 41.109375 55.140625 
Q 45.0625 54.296875 48.78125 52.59375 
z
" id="DejaVuSans-63"/>
      <path d="M 41.109375 46.296875 
Q 39.59375 47.171875 37.8125 47.578125 
Q 36.03125 48 33.890625 48 
Q 26.265625 48 22.1875 43.046875 
Q 18.109375 38.09375 18.109375 28.8125 
L 18.109375 0 
L 9.078125 0 
L 9.078125 54.6875 
L 18.109375 54.6875 
L 18.109375 46.1875 
Q 20.953125 51.171875 25.484375 53.578125 
Q 30.03125 56 36.53125 56 
Q 37.453125 56 38.578125 55.875 
Q 39.703125 55.765625 41.0625 55.515625 
z
" id="DejaVuSans-72"/>
      <path d="M 19.671875 64.796875 
L 19.671875 37.40625 
L 32.078125 37.40625 
Q 38.96875 37.40625 42.71875 40.96875 
Q 46.484375 44.53125 46.484375 51.125 
Q 46.484375 57.671875 42.71875 61.234375 
Q 38.96875 64.796875 32.078125 64.796875 
z
M 9.8125 72.90625 
L 32.078125 72.90625 
Q 44.34375 72.90625 50.609375 67.359375 
Q 56.890625 61.8125 56.890625 51.125 
Q 56.890625 40.328125 50.609375 34.8125 
Q 44.34375 29.296875 32.078125 29.296875 
L 19.671875 29.296875 
L 19.671875 0 
L 9.8125 0 
z
" id="DejaVuSans-50"/>
      <path d="M 34.28125 27.484375 
Q 23.390625 27.484375 19.1875 25 
Q 14.984375 22.515625 14.984375 16.5 
Q 14.984375 11.71875 18.140625 8.90625 
Q 21.296875 6.109375 26.703125 6.109375 
Q 34.1875 6.109375 38.703125 11.40625 
Q 43.21875 16.703125 43.21875 25.484375 
L 43.21875 27.484375 
z
M 52.203125 31.203125 
L 52.203125 0 
L 43.21875 0 
L 43.21875 8.296875 
Q 40.140625 3.328125 35.546875 0.953125 
Q 30.953125 -1.421875 24.3125 -1.421875 
Q 15.921875 -1.421875 10.953125 3.296875 
Q 6 8.015625 6 15.921875 
Q 6 25.140625 12.171875 29.828125 
Q 18.359375 34.515625 30.609375 34.515625 
L 43.21875 34.515625 
L 43.21875 35.40625 
Q 43.21875 41.609375 39.140625 45 
Q 35.0625 48.390625 27.6875 48.390625 
Q 23 48.390625 18.546875 47.265625 
Q 14.109375 46.140625 10.015625 43.890625 
L 10.015625 52.203125 
Q 14.9375 54.109375 19.578125 55.046875 
Q 24.21875 56 28.609375 56 
Q 40.484375 56 46.34375 49.84375 
Q 52.203125 43.703125 52.203125 31.203125 
z
" id="DejaVuSans-61"/>
      <path d="M 44.28125 53.078125 
L 44.28125 44.578125 
Q 40.484375 46.53125 36.375 47.5 
Q 32.28125 48.484375 27.875 48.484375 
Q 21.1875 48.484375 17.84375 46.4375 
Q 14.5 44.390625 14.5 40.28125 
Q 14.5 37.15625 16.890625 35.375 
Q 19.28125 33.59375 26.515625 31.984375 
L 29.59375 31.296875 
Q 39.15625 29.25 43.1875 25.515625 
Q 47.21875 21.78125 47.21875 15.09375 
Q 47.21875 7.46875 41.1875 3.015625 
Q 35.15625 -1.421875 24.609375 -1.421875 
Q 20.21875 -1.421875 15.453125 -0.5625 
Q 10.6875 0.296875 5.421875 2 
L 5.421875 11.28125 
Q 10.40625 8.6875 15.234375 7.390625 
Q 20.0625 6.109375 24.8125 6.109375 
Q 31.15625 6.109375 34.5625 8.28125 
Q 37.984375 10.453125 37.984375 14.40625 
Q 37.984375 18.0625 35.515625 20.015625 
Q 33.0625 21.96875 24.703125 23.78125 
L 21.578125 24.515625 
Q 13.234375 26.265625 9.515625 29.90625 
Q 5.8125 33.546875 5.8125 39.890625 
Q 5.8125 47.609375 11.28125 51.796875 
Q 16.75 56 26.8125 56 
Q 31.78125 56 36.171875 55.265625 
Q 40.578125 54.546875 44.28125 53.078125 
z
" id="DejaVuSans-73"/>
     </defs>
     <g transform="translate(14.798438 149.9675)rotate(-90)scale(0.1 -0.1)">
      <use xlink:href="#DejaVuSans-43"/>
      <use x="69.824219" xlink:href="#DejaVuSans-6f"/>
      <use x="131.005859" xlink:href="#DejaVuSans-65"/>
      <use x="192.529297" xlink:href="#DejaVuSans-66"/>
      <use x="227.625" xlink:href="#DejaVuSans-2e"/>
      <use x="259.412109" xlink:href="#DejaVuSans-20"/>
      <use x="291.199219" xlink:href="#DejaVuSans-63"/>
      <use x="346.179688" xlink:href="#DejaVuSans-6f"/>
      <use x="407.361328" xlink:href="#DejaVuSans-72"/>
      <use x="448.458984" xlink:href="#DejaVuSans-72"/>
      <use x="489.572266" xlink:href="#DejaVuSans-20"/>
      <use x="521.359375" xlink:href="#DejaVuSans-50"/>
      <use x="581.615234" xlink:href="#DejaVuSans-65"/>
      <use x="643.138672" xlink:href="#DejaVuSans-61"/>
      <use x="704.417969" xlink:href="#DejaVuSans-72"/>
      <use x="745.53125" xlink:href="#DejaVuSans-73"/>
      <use x="797.630859" xlink:href="#DejaVuSans-6f"/>
      <use x="858.8125" xlink:href="#DejaVuSans-6e"/>
     </g>
    </g>
   </g>
   <g id="line2d_13">
    <path clip-path="url(#pfd43af5bc8)" d="M 65.394139 172.355346 
L 67.618207 177.351015 
L 69.842274 176.533301 
L 72.066342 153.838849 
L 74.290409 152.728104 
L 76.514477 149.878379 
L 78.738544 89.084868 
L 80.962612 49.360063 
L 83.186679 63.434649 
L 85.410747 64.839174 
L 87.634814 66.428024 
L 89.858881 118.826263 
L 92.082949 138.485742 
L 94.307016 139.252829 
L 96.531084 156.903504 
L 98.755151 159.34343 
L 100.979219 120.655457 
L 103.203286 75.953249 
L 105.427354 51.581083 
L 107.651421 58.604516 
L 109.875489 85.466777 
L 112.099556 109.064382 
L 114.323624 127.380724 
L 116.547691 90.965266 
L 118.771759 76.114141 
L 120.995826 31.692073 
L 123.219894 29.730852 
L 125.443961 46.276445 
L 127.668029 61.228617 
L 129.892096 108.262846 
L 132.116164 141.85402 
L 134.340231 140.228888 
L 136.564299 74.433647 
L 138.788366 53.466191 
L 141.012434 76.755598 
L 143.236501 67.213466 
L 145.460569 38.821617 
L 147.684636 50.678874 
L 149.908704 78.601603 
L 152.132771 100.86661 
L 154.356839 69.773658 
L 156.580906 57.093597 
L 158.804974 92.031246 
L 161.029041 113.956166 
L 163.253109 115.881013 
L 165.477176 72.781563 
L 167.701244 67.530238 
L 169.925311 33.760608 
L 172.149379 33.193886 
L 174.373446 93.953042 
L 176.597514 141.864629 
L 178.821581 140.332081 
L 181.045649 144.939552 
L 183.269716 92.320448 
L 185.493784 71.619351 
L 187.717851 77.772887 
L 189.941919 84.56314 
L 192.165986 129.344015 
L 194.390054 80.059259 
L 196.614121 39.235248 
L 198.838189 52.564642 
L 201.062256 72.035056 
L 203.286324 101.422622 
L 205.510391 81.747379 
L 207.734459 42.654082 
L 209.958526 31.526025 
L 212.182594 38.069376 
L 214.406661 42.824738 
L 216.630729 83.903726 
L 218.854796 133.168443 
L 221.078864 155.17918 
L 223.302931 160.736004 
L 225.526999 171.454185 
L 227.751066 168.667132 
L 229.975134 150.742674 
L 232.199201 118.644096 
L 234.423269 110.050578 
L 236.647336 130.498786 
L 238.871404 107.900041 
L 241.095471 69.318343 
L 243.319538 116.284671 
L 245.543606 117.959287 
L 247.767673 118.367189 
L 249.991741 45.152702 
L 252.215808 99.325666 
L 254.439876 68.57293 
L 256.663943 60.496758 
L 258.888011 69.17015 
L 261.112078 120.918185 
L 263.336146 158.910923 
L 265.560213 167.82282 
L 267.784281 173.147979 
L 270.008348 131.727176 
L 272.232416 82.485842 
L 274.456483 77.385292 
L 276.680551 88.978107 
L 278.904618 112.841552 
L 281.128686 111.055059 
L 283.352753 118.150219 
L 285.576821 160.265501 
L 287.800888 171.04283 
L 290.024956 161.304822 
L 292.249023 131.403709 
L 294.473091 75.404706 
L 296.697158 61.791841 
L 298.921226 104.73038 
L 301.145293 97.690984 
L 303.369361 79.741484 
L 305.593428 99.053118 
L 307.817496 54.838652 
L 310.041563 55.85537 
L 312.265631 87.788087 
L 314.489698 123.442934 
L 316.713766 97.227561 
L 318.937833 166.73561 
L 321.161901 176.310811 
L 323.385968 177.985398 
L 325.610036 152.656365 
L 327.834103 113.826581 
L 330.058171 87.44988 
" style="fill:none;stroke:#1f77b4;stroke-linecap:square;stroke-width:2;"/>
   </g>
   <g id="patch_3">
    <path d="M 52.160938 185.398125 
L 52.160938 22.318125 
" style="fill:none;stroke:#000000;stroke-linecap:square;stroke-linejoin:miter;stroke-width:0.8;"/>
   </g>
   <g id="patch_4">
    <path d="M 343.291372 185.398125 
L 343.291372 22.318125 
" style="fill:none;stroke:#000000;stroke-linecap:square;stroke-linejoin:miter;stroke-width:0.8;"/>
   </g>
   <g id="patch_5">
    <path d="M 52.160938 185.398125 
L 343.291372 185.398125 
" style="fill:none;stroke:#000000;stroke-linecap:square;stroke-linejoin:miter;stroke-width:0.8;"/>
   </g>
   <g id="patch_6">
    <path d="M 52.160938 22.318125 
L 343.291372 22.318125 
" style="fill:none;stroke:#000000;stroke-linecap:square;stroke-linejoin:miter;stroke-width:0.8;"/>
   </g>
   <g id="text_15">
    <!-- Corr. of nodes 19 - 20 seg. -->
    <defs>
     <path d="M 10.984375 1.515625 
L 10.984375 10.5 
Q 14.703125 8.734375 18.5 7.8125 
Q 22.3125 6.890625 25.984375 6.890625 
Q 35.75 6.890625 40.890625 13.453125 
Q 46.046875 20.015625 46.78125 33.40625 
Q 43.953125 29.203125 39.59375 26.953125 
Q 35.25 24.703125 29.984375 24.703125 
Q 19.046875 24.703125 12.671875 31.3125 
Q 6.296875 37.9375 6.296875 49.421875 
Q 6.296875 60.640625 12.9375 67.421875 
Q 19.578125 74.21875 30.609375 74.21875 
Q 43.265625 74.21875 49.921875 64.515625 
Q 56.59375 54.828125 56.59375 36.375 
Q 56.59375 19.140625 48.40625 8.859375 
Q 40.234375 -1.421875 26.421875 -1.421875 
Q 22.703125 -1.421875 18.890625 -0.6875 
Q 15.09375 0.046875 10.984375 1.515625 
z
M 30.609375 32.421875 
Q 37.25 32.421875 41.125 36.953125 
Q 45.015625 41.5 45.015625 49.421875 
Q 45.015625 57.28125 41.125 61.84375 
Q 37.25 66.40625 30.609375 66.40625 
Q 23.96875 66.40625 20.09375 61.84375 
Q 16.21875 57.28125 16.21875 49.421875 
Q 16.21875 41.5 20.09375 36.953125 
Q 23.96875 32.421875 30.609375 32.421875 
z
" id="DejaVuSans-39"/>
     <path d="M 4.890625 31.390625 
L 31.203125 31.390625 
L 31.203125 23.390625 
L 4.890625 23.390625 
z
" id="DejaVuSans-2d"/>
     <path d="M 45.40625 27.984375 
Q 45.40625 37.75 41.375 43.109375 
Q 37.359375 48.484375 30.078125 48.484375 
Q 22.859375 48.484375 18.828125 43.109375 
Q 14.796875 37.75 14.796875 27.984375 
Q 14.796875 18.265625 18.828125 12.890625 
Q 22.859375 7.515625 30.078125 7.515625 
Q 37.359375 7.515625 41.375 12.890625 
Q 45.40625 18.265625 45.40625 27.984375 
z
M 54.390625 6.78125 
Q 54.390625 -7.171875 48.1875 -13.984375 
Q 42 -20.796875 29.203125 -20.796875 
Q 24.46875 -20.796875 20.265625 -20.09375 
Q 16.0625 -19.390625 12.109375 -17.921875 
L 12.109375 -9.1875 
Q 16.0625 -11.328125 19.921875 -12.34375 
Q 23.78125 -13.375 27.78125 -13.375 
Q 36.625 -13.375 41.015625 -8.765625 
Q 45.40625 -4.15625 45.40625 5.171875 
L 45.40625 9.625 
Q 42.625 4.78125 38.28125 2.390625 
Q 33.9375 0 27.875 0 
Q 17.828125 0 11.671875 7.65625 
Q 5.515625 15.328125 5.515625 27.984375 
Q 5.515625 40.671875 11.671875 48.328125 
Q 17.828125 56 27.875 56 
Q 33.9375 56 38.28125 53.609375 
Q 42.625 51.21875 45.40625 46.390625 
L 45.40625 54.6875 
L 54.390625 54.6875 
z
" id="DejaVuSans-67"/>
    </defs>
    <g transform="translate(117.741467 16.318125)scale(0.12 -0.12)">
     <use xlink:href="#DejaVuSans-43"/>
     <use x="69.824219" xlink:href="#DejaVuSans-6f"/>
     <use x="131.005859" xlink:href="#DejaVuSans-72"/>
     <use x="172.103516" xlink:href="#DejaVuSans-72"/>
     <use x="213.076172" xlink:href="#DejaVuSans-2e"/>
     <use x="244.863281" xlink:href="#DejaVuSans-20"/>
     <use x="276.650391" xlink:href="#DejaVuSans-6f"/>
     <use x="337.832031" xlink:href="#DejaVuSans-66"/>
     <use x="373.037109" xlink:href="#DejaVuSans-20"/>
     <use x="404.824219" xlink:href="#DejaVuSans-6e"/>
     <use x="468.203125" xlink:href="#DejaVuSans-6f"/>
     <use x="529.384766" xlink:href="#DejaVuSans-64"/>
     <use x="592.861328" xlink:href="#DejaVuSans-65"/>
     <use x="654.384766" xlink:href="#DejaVuSans-73"/>
     <use x="706.484375" xlink:href="#DejaVuSans-20"/>
     <use x="738.271484" xlink:href="#DejaVuSans-31"/>
     <use x="801.894531" xlink:href="#DejaVuSans-39"/>
     <use x="865.517578" xlink:href="#DejaVuSans-20"/>
     <use x="897.304688" xlink:href="#DejaVuSans-2d"/>
     <use x="933.388672" xlink:href="#DejaVuSans-20"/>
     <use x="965.175781" xlink:href="#DejaVuSans-32"/>
     <use x="1028.798828" xlink:href="#DejaVuSans-30"/>
     <use x="1092.421875" xlink:href="#DejaVuSans-20"/>
     <use x="1124.208984" xlink:href="#DejaVuSans-73"/>
     <use x="1176.308594" xlink:href="#DejaVuSans-65"/>
     <use x="1237.832031" xlink:href="#DejaVuSans-67"/>
     <use x="1301.308594" xlink:href="#DejaVuSans-2e"/>
    </g>
   </g>
  </g>
  <g id="axes_2">
   <g id="patch_7">
    <path d="M 401.517459 185.398125 
L 692.647894 185.398125 
L 692.647894 22.318125 
L 401.517459 22.318125 
z
" style="fill:none;"/>
   </g>
   <g id="matplotlib.axis_3">
    <g id="xtick_8">
     <g id="line2d_14">
      <g>
       <use style="stroke:#000000;stroke-width:0.8;" x="414.750661" xlink:href="#m580afc21de" y="185.398125"/>
      </g>
     </g>
     <g id="text_16">
      <!-- 0 -->
      <g transform="translate(411.569411 199.996563)scale(0.1 -0.1)">
       <use xlink:href="#DejaVuSans-30"/>
      </g>
     </g>
    </g>
    <g id="xtick_9">
     <g id="line2d_15">
      <g>
       <use style="stroke:#000000;stroke-width:0.8;" x="459.232011" xlink:href="#m580afc21de" y="185.398125"/>
      </g>
     </g>
     <g id="text_17">
      <!-- 20 -->
      <g transform="translate(452.869511 199.996563)scale(0.1 -0.1)">
       <use xlink:href="#DejaVuSans-32"/>
       <use x="63.623047" xlink:href="#DejaVuSans-30"/>
      </g>
     </g>
    </g>
    <g id="xtick_10">
     <g id="line2d_16">
      <g>
       <use style="stroke:#000000;stroke-width:0.8;" x="503.713361" xlink:href="#m580afc21de" y="185.398125"/>
      </g>
     </g>
     <g id="text_18">
      <!-- 40 -->
      <g transform="translate(497.350861 199.996563)scale(0.1 -0.1)">
       <use xlink:href="#DejaVuSans-34"/>
       <use x="63.623047" xlink:href="#DejaVuSans-30"/>
      </g>
     </g>
    </g>
    <g id="xtick_11">
     <g id="line2d_17">
      <g>
       <use style="stroke:#000000;stroke-width:0.8;" x="548.19471" xlink:href="#m580afc21de" y="185.398125"/>
      </g>
     </g>
     <g id="text_19">
      <!-- 60 -->
      <g transform="translate(541.83221 199.996563)scale(0.1 -0.1)">
       <use xlink:href="#DejaVuSans-36"/>
       <use x="63.623047" xlink:href="#DejaVuSans-30"/>
      </g>
     </g>
    </g>
    <g id="xtick_12">
     <g id="line2d_18">
      <g>
       <use style="stroke:#000000;stroke-width:0.8;" x="592.67606" xlink:href="#m580afc21de" y="185.398125"/>
      </g>
     </g>
     <g id="text_20">
      <!-- 80 -->
      <g transform="translate(586.31356 199.996563)scale(0.1 -0.1)">
       <use xlink:href="#DejaVuSans-38"/>
       <use x="63.623047" xlink:href="#DejaVuSans-30"/>
      </g>
     </g>
    </g>
    <g id="xtick_13">
     <g id="line2d_19">
      <g>
       <use style="stroke:#000000;stroke-width:0.8;" x="637.15741" xlink:href="#m580afc21de" y="185.398125"/>
      </g>
     </g>
     <g id="text_21">
      <!-- 100 -->
      <g transform="translate(627.61366 199.996563)scale(0.1 -0.1)">
       <use xlink:href="#DejaVuSans-31"/>
       <use x="63.623047" xlink:href="#DejaVuSans-30"/>
       <use x="127.246094" xlink:href="#DejaVuSans-30"/>
      </g>
     </g>
    </g>
    <g id="xtick_14">
     <g id="line2d_20">
      <g>
       <use style="stroke:#000000;stroke-width:0.8;" x="681.63876" xlink:href="#m580afc21de" y="185.398125"/>
      </g>
     </g>
     <g id="text_22">
      <!-- 120 -->
      <g transform="translate(672.09501 199.996563)scale(0.1 -0.1)">
       <use xlink:href="#DejaVuSans-31"/>
       <use x="63.623047" xlink:href="#DejaVuSans-32"/>
       <use x="127.246094" xlink:href="#DejaVuSans-30"/>
      </g>
     </g>
    </g>
    <g id="text_23">
     <!-- n_window -->
     <g transform="translate(522.444395 213.674688)scale(0.1 -0.1)">
      <use xlink:href="#DejaVuSans-6e"/>
      <use x="63.378906" xlink:href="#DejaVuSans-5f"/>
      <use x="113.378906" xlink:href="#DejaVuSans-77"/>
      <use x="195.166016" xlink:href="#DejaVuSans-69"/>
      <use x="222.949219" xlink:href="#DejaVuSans-6e"/>
      <use x="286.328125" xlink:href="#DejaVuSans-64"/>
      <use x="349.804688" xlink:href="#DejaVuSans-6f"/>
      <use x="410.986328" xlink:href="#DejaVuSans-77"/>
     </g>
    </g>
   </g>
   <g id="matplotlib.axis_4">
    <g id="ytick_6">
     <g id="line2d_21">
      <g>
       <use style="stroke:#000000;stroke-width:0.8;" x="401.517459" xlink:href="#m91891c0a3d" y="182.495966"/>
      </g>
     </g>
     <g id="text_24">
      <!-- −1.0 -->
      <g transform="translate(370.234647 186.295184)scale(0.1 -0.1)">
       <use xlink:href="#DejaVuSans-2212"/>
       <use x="83.789062" xlink:href="#DejaVuSans-31"/>
       <use x="147.412109" xlink:href="#DejaVuSans-2e"/>
       <use x="179.199219" xlink:href="#DejaVuSans-30"/>
      </g>
     </g>
    </g>
    <g id="ytick_7">
     <g id="line2d_22">
      <g>
       <use style="stroke:#000000;stroke-width:0.8;" x="401.517459" xlink:href="#m91891c0a3d" y="142.534438"/>
      </g>
     </g>
     <g id="text_25">
      <!-- −0.5 -->
      <g transform="translate(370.234647 146.333657)scale(0.1 -0.1)">
       <use xlink:href="#DejaVuSans-2212"/>
       <use x="83.789062" xlink:href="#DejaVuSans-30"/>
       <use x="147.412109" xlink:href="#DejaVuSans-2e"/>
       <use x="179.199219" xlink:href="#DejaVuSans-35"/>
      </g>
     </g>
    </g>
    <g id="ytick_8">
     <g id="line2d_23">
      <g>
       <use style="stroke:#000000;stroke-width:0.8;" x="401.517459" xlink:href="#m91891c0a3d" y="102.57291"/>
      </g>
     </g>
     <g id="text_26">
      <!-- 0.0 -->
      <g transform="translate(378.614334 106.372129)scale(0.1 -0.1)">
       <use xlink:href="#DejaVuSans-30"/>
       <use x="63.623047" xlink:href="#DejaVuSans-2e"/>
       <use x="95.410156" xlink:href="#DejaVuSans-30"/>
      </g>
     </g>
    </g>
    <g id="ytick_9">
     <g id="line2d_24">
      <g>
       <use style="stroke:#000000;stroke-width:0.8;" x="401.517459" xlink:href="#m91891c0a3d" y="62.611382"/>
      </g>
     </g>
     <g id="text_27">
      <!-- 0.5 -->
      <g transform="translate(378.614334 66.410601)scale(0.1 -0.1)">
       <use xlink:href="#DejaVuSans-30"/>
       <use x="63.623047" xlink:href="#DejaVuSans-2e"/>
       <use x="95.410156" xlink:href="#DejaVuSans-35"/>
      </g>
     </g>
    </g>
    <g id="ytick_10">
     <g id="line2d_25">
      <g>
       <use style="stroke:#000000;stroke-width:0.8;" x="401.517459" xlink:href="#m91891c0a3d" y="22.649854"/>
      </g>
     </g>
     <g id="text_28">
      <!-- 1.0 -->
      <g transform="translate(378.614334 26.449073)scale(0.1 -0.1)">
       <use xlink:href="#DejaVuSans-31"/>
       <use x="63.623047" xlink:href="#DejaVuSans-2e"/>
       <use x="95.410156" xlink:href="#DejaVuSans-30"/>
      </g>
     </g>
    </g>
    <g id="text_29">
     <!-- Coef. corr Pearson -->
     <g transform="translate(364.154959 149.9675)rotate(-90)scale(0.1 -0.1)">
      <use xlink:href="#DejaVuSans-43"/>
      <use x="69.824219" xlink:href="#DejaVuSans-6f"/>
      <use x="131.005859" xlink:href="#DejaVuSans-65"/>
      <use x="192.529297" xlink:href="#DejaVuSans-66"/>
      <use x="227.625" xlink:href="#DejaVuSans-2e"/>
      <use x="259.412109" xlink:href="#DejaVuSans-20"/>
      <use x="291.199219" xlink:href="#DejaVuSans-63"/>
      <use x="346.179688" xlink:href="#DejaVuSans-6f"/>
      <use x="407.361328" xlink:href="#DejaVuSans-72"/>
      <use x="448.458984" xlink:href="#DejaVuSans-72"/>
      <use x="489.572266" xlink:href="#DejaVuSans-20"/>
      <use x="521.359375" xlink:href="#DejaVuSans-50"/>
      <use x="581.615234" xlink:href="#DejaVuSans-65"/>
      <use x="643.138672" xlink:href="#DejaVuSans-61"/>
      <use x="704.417969" xlink:href="#DejaVuSans-72"/>
      <use x="745.53125" xlink:href="#DejaVuSans-73"/>
      <use x="797.630859" xlink:href="#DejaVuSans-6f"/>
      <use x="858.8125" xlink:href="#DejaVuSans-6e"/>
     </g>
    </g>
   </g>
   <g id="line2d_26">
    <path clip-path="url(#p0cf33f9cd0)" d="M 414.750661 88.966308 
L 416.974728 154.009183 
L 419.198796 172.239171 
L 421.422863 171.435334 
L 423.646931 163.126472 
L 425.870998 147.840937 
L 428.095066 141.339763 
L 430.319133 71.576161 
L 432.543201 48.511426 
L 434.767268 49.647744 
L 436.991336 68.730702 
L 439.215403 59.168999 
L 441.439471 72.006716 
L 443.663538 150.470204 
L 445.887606 167.756191 
L 448.111673 146.7866 
L 450.335741 102.855923 
L 452.559808 57.512496 
L 454.783876 33.941308 
L 457.007943 42.308631 
L 459.232011 141.973785 
L 461.456078 165.980557 
L 463.680146 170.337811 
L 465.904213 177.985398 
L 468.128281 139.982332 
L 470.352348 52.915412 
L 472.576416 60.434922 
L 474.800483 97.169241 
L 477.024551 130.613428 
L 479.248618 158.75564 
L 481.472686 169.315179 
L 483.696753 160.730453 
L 485.920821 165.092276 
L 488.144888 149.690708 
L 490.368956 165.462295 
L 492.593023 122.138535 
L 494.817091 129.143265 
L 497.041158 120.269599 
L 499.265226 145.043269 
L 501.489293 121.363017 
L 503.713361 153.283139 
L 505.937428 130.147821 
L 508.161496 85.682734 
L 510.385563 77.570477 
L 512.60963 64.828756 
L 514.833698 98.269948 
L 517.057765 110.786274 
L 519.281833 134.943377 
L 521.5059 136.766228 
L 523.729968 157.493348 
L 525.954035 89.548618 
L 528.178103 56.075195 
L 530.40217 37.003955 
L 532.626238 30.783494 
L 534.850305 75.684718 
L 537.074373 87.8259 
L 539.29844 33.547809 
L 541.522508 38.635051 
L 543.746575 52.02956 
L 545.970643 42.821599 
L 548.19471 35.40787 
L 550.418778 45.42317 
L 552.642845 62.306095 
L 554.866913 101.336826 
L 557.09098 98.465714 
L 559.315048 98.968345 
L 561.539115 125.065594 
L 563.763183 127.701478 
L 565.98725 57.925945 
L 568.211318 143.446262 
L 570.435385 150.452155 
L 572.659453 144.83075 
L 574.88352 142.417698 
L 577.107588 131.587816 
L 579.331655 131.520684 
L 581.555723 112.334573 
L 583.77979 36.081211 
L 586.003858 33.385197 
L 588.227925 40.939198 
L 590.451993 104.659271 
L 592.67606 143.264028 
L 594.900128 140.714467 
L 597.124195 142.20967 
L 599.348263 149.737688 
L 601.57233 89.825917 
L 603.796398 58.79007 
L 606.020465 59.920709 
L 608.244533 44.480134 
L 610.4686 29.730852 
L 612.692668 85.091033 
L 614.916735 111.346539 
L 617.140803 137.036198 
L 619.36487 140.226562 
L 621.588938 160.728513 
L 623.813005 176.584236 
L 626.037073 167.915666 
L 628.26114 156.262408 
L 630.485208 131.765385 
L 632.709275 36.8638 
L 634.933343 111.080471 
L 637.15741 154.884097 
L 639.381478 99.445466 
L 641.605545 55.664225 
L 643.829613 49.772934 
L 646.05368 55.498903 
L 648.277748 98.663995 
L 650.501815 129.297595 
L 652.725883 142.120879 
L 654.94995 135.64535 
L 657.174018 155.235375 
L 659.398085 151.936431 
L 661.622152 118.266309 
L 663.84622 96.854142 
L 666.070287 72.726665 
L 668.294355 117.823323 
L 670.518422 139.256704 
L 672.74249 159.860029 
L 674.966557 159.278992 
L 677.190625 126.383621 
L 679.414692 112.053838 
" style="fill:none;stroke:#1f77b4;stroke-linecap:square;stroke-width:2;"/>
   </g>
   <g id="patch_8">
    <path d="M 401.517459 185.398125 
L 401.517459 22.318125 
" style="fill:none;stroke:#000000;stroke-linecap:square;stroke-linejoin:miter;stroke-width:0.8;"/>
   </g>
   <g id="patch_9">
    <path d="M 692.647894 185.398125 
L 692.647894 22.318125 
" style="fill:none;stroke:#000000;stroke-linecap:square;stroke-linejoin:miter;stroke-width:0.8;"/>
   </g>
   <g id="patch_10">
    <path d="M 401.517459 185.398125 
L 692.647894 185.398125 
" style="fill:none;stroke:#000000;stroke-linecap:square;stroke-linejoin:miter;stroke-width:0.8;"/>
   </g>
   <g id="patch_11">
    <path d="M 401.517459 22.318125 
L 692.647894 22.318125 
" style="fill:none;stroke:#000000;stroke-linecap:square;stroke-linejoin:miter;stroke-width:0.8;"/>
   </g>
   <g id="text_30">
    <!-- Corr. of nodes 23 - 24 seg. -->
    <defs>
     <path d="M 40.578125 39.3125 
Q 47.65625 37.796875 51.625 33 
Q 55.609375 28.21875 55.609375 21.1875 
Q 55.609375 10.40625 48.1875 4.484375 
Q 40.765625 -1.421875 27.09375 -1.421875 
Q 22.515625 -1.421875 17.65625 -0.515625 
Q 12.796875 0.390625 7.625 2.203125 
L 7.625 11.71875 
Q 11.71875 9.328125 16.59375 8.109375 
Q 21.484375 6.890625 26.8125 6.890625 
Q 36.078125 6.890625 40.9375 10.546875 
Q 45.796875 14.203125 45.796875 21.1875 
Q 45.796875 27.640625 41.28125 31.265625 
Q 36.765625 34.90625 28.71875 34.90625 
L 20.21875 34.90625 
L 20.21875 43.015625 
L 29.109375 43.015625 
Q 36.375 43.015625 40.234375 45.921875 
Q 44.09375 48.828125 44.09375 54.296875 
Q 44.09375 59.90625 40.109375 62.90625 
Q 36.140625 65.921875 28.71875 65.921875 
Q 24.65625 65.921875 20.015625 65.03125 
Q 15.375 64.15625 9.8125 62.3125 
L 9.8125 71.09375 
Q 15.4375 72.65625 20.34375 73.4375 
Q 25.25 74.21875 29.59375 74.21875 
Q 40.828125 74.21875 47.359375 69.109375 
Q 53.90625 64.015625 53.90625 55.328125 
Q 53.90625 49.265625 50.4375 45.09375 
Q 46.96875 40.921875 40.578125 39.3125 
z
" id="DejaVuSans-33"/>
    </defs>
    <g transform="translate(467.097989 16.318125)scale(0.12 -0.12)">
     <use xlink:href="#DejaVuSans-43"/>
     <use x="69.824219" xlink:href="#DejaVuSans-6f"/>
     <use x="131.005859" xlink:href="#DejaVuSans-72"/>
     <use x="172.103516" xlink:href="#DejaVuSans-72"/>
     <use x="213.076172" xlink:href="#DejaVuSans-2e"/>
     <use x="244.863281" xlink:href="#DejaVuSans-20"/>
     <use x="276.650391" xlink:href="#DejaVuSans-6f"/>
     <use x="337.832031" xlink:href="#DejaVuSans-66"/>
     <use x="373.037109" xlink:href="#DejaVuSans-20"/>
     <use x="404.824219" xlink:href="#DejaVuSans-6e"/>
     <use x="468.203125" xlink:href="#DejaVuSans-6f"/>
     <use x="529.384766" xlink:href="#DejaVuSans-64"/>
     <use x="592.861328" xlink:href="#DejaVuSans-65"/>
     <use x="654.384766" xlink:href="#DejaVuSans-73"/>
     <use x="706.484375" xlink:href="#DejaVuSans-20"/>
     <use x="738.271484" xlink:href="#DejaVuSans-32"/>
     <use x="801.894531" xlink:href="#DejaVuSans-33"/>
     <use x="865.517578" xlink:href="#DejaVuSans-20"/>
     <use x="897.304688" xlink:href="#DejaVuSans-2d"/>
     <use x="933.388672" xlink:href="#DejaVuSans-20"/>
     <use x="965.175781" xlink:href="#DejaVuSans-32"/>
     <use x="1028.798828" xlink:href="#DejaVuSans-34"/>
     <use x="1092.421875" xlink:href="#DejaVuSans-20"/>
     <use x="1124.208984" xlink:href="#DejaVuSans-73"/>
     <use x="1176.308594" xlink:href="#DejaVuSans-65"/>
     <use x="1237.832031" xlink:href="#DejaVuSans-67"/>
     <use x="1301.308594" xlink:href="#DejaVuSans-2e"/>
    </g>
   </g>
  </g>
  <g id="axes_3">
   <g id="patch_12">
    <path d="M 750.873981 185.398125 
L 1042.004416 185.398125 
L 1042.004416 22.318125 
L 750.873981 22.318125 
z
" style="fill:none;"/>
   </g>
   <g id="matplotlib.axis_5">
    <g id="xtick_15">
     <g id="line2d_27">
      <g>
       <use style="stroke:#000000;stroke-width:0.8;" x="764.107183" xlink:href="#m580afc21de" y="185.398125"/>
      </g>
     </g>
     <g id="text_31">
      <!-- 0 -->
      <g transform="translate(760.925933 199.996563)scale(0.1 -0.1)">
       <use xlink:href="#DejaVuSans-30"/>
      </g>
     </g>
    </g>
    <g id="xtick_16">
     <g id="line2d_28">
      <g>
       <use style="stroke:#000000;stroke-width:0.8;" x="808.588532" xlink:href="#m580afc21de" y="185.398125"/>
      </g>
     </g>
     <g id="text_32">
      <!-- 20 -->
      <g transform="translate(802.226032 199.996563)scale(0.1 -0.1)">
       <use xlink:href="#DejaVuSans-32"/>
       <use x="63.623047" xlink:href="#DejaVuSans-30"/>
      </g>
     </g>
    </g>
    <g id="xtick_17">
     <g id="line2d_29">
      <g>
       <use style="stroke:#000000;stroke-width:0.8;" x="853.069882" xlink:href="#m580afc21de" y="185.398125"/>
      </g>
     </g>
     <g id="text_33">
      <!-- 40 -->
      <g transform="translate(846.707382 199.996563)scale(0.1 -0.1)">
       <use xlink:href="#DejaVuSans-34"/>
       <use x="63.623047" xlink:href="#DejaVuSans-30"/>
      </g>
     </g>
    </g>
    <g id="xtick_18">
     <g id="line2d_30">
      <g>
       <use style="stroke:#000000;stroke-width:0.8;" x="897.551232" xlink:href="#m580afc21de" y="185.398125"/>
      </g>
     </g>
     <g id="text_34">
      <!-- 60 -->
      <g transform="translate(891.188732 199.996563)scale(0.1 -0.1)">
       <use xlink:href="#DejaVuSans-36"/>
       <use x="63.623047" xlink:href="#DejaVuSans-30"/>
      </g>
     </g>
    </g>
    <g id="xtick_19">
     <g id="line2d_31">
      <g>
       <use style="stroke:#000000;stroke-width:0.8;" x="942.032582" xlink:href="#m580afc21de" y="185.398125"/>
      </g>
     </g>
     <g id="text_35">
      <!-- 80 -->
      <g transform="translate(935.670082 199.996563)scale(0.1 -0.1)">
       <use xlink:href="#DejaVuSans-38"/>
       <use x="63.623047" xlink:href="#DejaVuSans-30"/>
      </g>
     </g>
    </g>
    <g id="xtick_20">
     <g id="line2d_32">
      <g>
       <use style="stroke:#000000;stroke-width:0.8;" x="986.513932" xlink:href="#m580afc21de" y="185.398125"/>
      </g>
     </g>
     <g id="text_36">
      <!-- 100 -->
      <g transform="translate(976.970182 199.996563)scale(0.1 -0.1)">
       <use xlink:href="#DejaVuSans-31"/>
       <use x="63.623047" xlink:href="#DejaVuSans-30"/>
       <use x="127.246094" xlink:href="#DejaVuSans-30"/>
      </g>
     </g>
    </g>
    <g id="xtick_21">
     <g id="line2d_33">
      <g>
       <use style="stroke:#000000;stroke-width:0.8;" x="1030.995282" xlink:href="#m580afc21de" y="185.398125"/>
      </g>
     </g>
     <g id="text_37">
      <!-- 120 -->
      <g transform="translate(1021.451532 199.996563)scale(0.1 -0.1)">
       <use xlink:href="#DejaVuSans-31"/>
       <use x="63.623047" xlink:href="#DejaVuSans-32"/>
       <use x="127.246094" xlink:href="#DejaVuSans-30"/>
      </g>
     </g>
    </g>
    <g id="text_38">
     <!-- n_window -->
     <g transform="translate(871.800917 213.674688)scale(0.1 -0.1)">
      <use xlink:href="#DejaVuSans-6e"/>
      <use x="63.378906" xlink:href="#DejaVuSans-5f"/>
      <use x="113.378906" xlink:href="#DejaVuSans-77"/>
      <use x="195.166016" xlink:href="#DejaVuSans-69"/>
      <use x="222.949219" xlink:href="#DejaVuSans-6e"/>
      <use x="286.328125" xlink:href="#DejaVuSans-64"/>
      <use x="349.804688" xlink:href="#DejaVuSans-6f"/>
      <use x="410.986328" xlink:href="#DejaVuSans-77"/>
     </g>
    </g>
   </g>
   <g id="matplotlib.axis_6">
    <g id="ytick_11">
     <g id="line2d_34">
      <g>
       <use style="stroke:#000000;stroke-width:0.8;" x="750.873981" xlink:href="#m91891c0a3d" y="178.18493"/>
      </g>
     </g>
     <g id="text_39">
      <!-- −1.0 -->
      <g transform="translate(719.591168 181.984148)scale(0.1 -0.1)">
       <use xlink:href="#DejaVuSans-2212"/>
       <use x="83.789062" xlink:href="#DejaVuSans-31"/>
       <use x="147.412109" xlink:href="#DejaVuSans-2e"/>
       <use x="179.199219" xlink:href="#DejaVuSans-30"/>
      </g>
     </g>
    </g>
    <g id="ytick_12">
     <g id="line2d_35">
      <g>
       <use style="stroke:#000000;stroke-width:0.8;" x="750.873981" xlink:href="#m91891c0a3d" y="140.249199"/>
      </g>
     </g>
     <g id="text_40">
      <!-- −0.5 -->
      <g transform="translate(719.591168 144.048417)scale(0.1 -0.1)">
       <use xlink:href="#DejaVuSans-2212"/>
       <use x="83.789062" xlink:href="#DejaVuSans-30"/>
       <use x="147.412109" xlink:href="#DejaVuSans-2e"/>
       <use x="179.199219" xlink:href="#DejaVuSans-35"/>
      </g>
     </g>
    </g>
    <g id="ytick_13">
     <g id="line2d_36">
      <g>
       <use style="stroke:#000000;stroke-width:0.8;" x="750.873981" xlink:href="#m91891c0a3d" y="102.313468"/>
      </g>
     </g>
     <g id="text_41">
      <!-- 0.0 -->
      <g transform="translate(727.970856 106.112686)scale(0.1 -0.1)">
       <use xlink:href="#DejaVuSans-30"/>
       <use x="63.623047" xlink:href="#DejaVuSans-2e"/>
       <use x="95.410156" xlink:href="#DejaVuSans-30"/>
      </g>
     </g>
    </g>
    <g id="ytick_14">
     <g id="line2d_37">
      <g>
       <use style="stroke:#000000;stroke-width:0.8;" x="750.873981" xlink:href="#m91891c0a3d" y="64.377737"/>
      </g>
     </g>
     <g id="text_42">
      <!-- 0.5 -->
      <g transform="translate(727.970856 68.176955)scale(0.1 -0.1)">
       <use xlink:href="#DejaVuSans-30"/>
       <use x="63.623047" xlink:href="#DejaVuSans-2e"/>
       <use x="95.410156" xlink:href="#DejaVuSans-35"/>
      </g>
     </g>
    </g>
    <g id="ytick_15">
     <g id="line2d_38">
      <g>
       <use style="stroke:#000000;stroke-width:0.8;" x="750.873981" xlink:href="#m91891c0a3d" y="26.442006"/>
      </g>
     </g>
     <g id="text_43">
      <!-- 1.0 -->
      <g transform="translate(727.970856 30.241224)scale(0.1 -0.1)">
       <use xlink:href="#DejaVuSans-31"/>
       <use x="63.623047" xlink:href="#DejaVuSans-2e"/>
       <use x="95.410156" xlink:href="#DejaVuSans-30"/>
      </g>
     </g>
    </g>
    <g id="text_44">
     <!-- Coef. corr Pearson -->
     <g transform="translate(713.511481 149.9675)rotate(-90)scale(0.1 -0.1)">
      <use xlink:href="#DejaVuSans-43"/>
      <use x="69.824219" xlink:href="#DejaVuSans-6f"/>
      <use x="131.005859" xlink:href="#DejaVuSans-65"/>
      <use x="192.529297" xlink:href="#DejaVuSans-66"/>
      <use x="227.625" xlink:href="#DejaVuSans-2e"/>
      <use x="259.412109" xlink:href="#DejaVuSans-20"/>
      <use x="291.199219" xlink:href="#DejaVuSans-63"/>
      <use x="346.179688" xlink:href="#DejaVuSans-6f"/>
      <use x="407.361328" xlink:href="#DejaVuSans-72"/>
      <use x="448.458984" xlink:href="#DejaVuSans-72"/>
      <use x="489.572266" xlink:href="#DejaVuSans-20"/>
      <use x="521.359375" xlink:href="#DejaVuSans-50"/>
      <use x="581.615234" xlink:href="#DejaVuSans-65"/>
      <use x="643.138672" xlink:href="#DejaVuSans-61"/>
      <use x="704.417969" xlink:href="#DejaVuSans-72"/>
      <use x="745.53125" xlink:href="#DejaVuSans-73"/>
      <use x="797.630859" xlink:href="#DejaVuSans-6f"/>
      <use x="858.8125" xlink:href="#DejaVuSans-6e"/>
     </g>
    </g>
   </g>
   <g id="line2d_39">
    <path clip-path="url(#p804e83f8a6)" d="M 764.107183 177.985398 
L 766.33125 139.052387 
L 768.555318 84.447207 
L 770.779385 88.134414 
L 773.003453 76.300112 
L 775.22752 57.949043 
L 777.451588 59.357306 
L 779.675655 128.458274 
L 781.899723 165.220489 
L 784.12379 162.807905 
L 786.347857 120.313639 
L 788.571925 44.99157 
L 790.795992 39.064463 
L 793.02006 51.684245 
L 795.244127 118.900449 
L 797.468195 63.508352 
L 799.692262 33.29305 
L 801.91633 30.037551 
L 804.140397 30.059178 
L 806.364465 33.123233 
L 808.588532 46.867118 
L 810.8126 40.541472 
L 813.036667 69.957285 
L 815.260735 61.71209 
L 817.484802 125.671198 
L 819.70887 150.619214 
L 821.932937 140.675147 
L 824.157005 112.139488 
L 826.381072 54.740737 
L 828.60514 36.788801 
L 830.829207 73.001397 
L 833.053275 85.947687 
L 835.277342 36.170735 
L 837.50141 30.192059 
L 839.725477 32.338349 
L 841.949545 30.871903 
L 844.173612 29.730852 
L 846.39768 33.3519 
L 848.621747 46.62061 
L 850.845815 73.644151 
L 853.069882 97.045913 
L 855.29395 165.030572 
L 857.518017 156.688957 
L 859.742085 143.648084 
L 861.966152 125.983424 
L 864.19022 120.53366 
L 866.414287 101.476643 
L 868.638355 116.262389 
L 870.862422 137.494843 
L 873.08649 132.791892 
L 875.310557 89.15725 
L 877.534625 47.943716 
L 879.758692 38.754976 
L 881.98276 42.308661 
L 884.206827 82.224387 
L 886.430895 137.78547 
L 888.654962 154.986798 
L 890.87903 99.403047 
L 893.103097 57.206006 
L 895.327165 43.679967 
L 897.551232 86.812262 
L 899.7753 99.661567 
L 901.999367 57.110481 
L 904.223435 45.74745 
L 906.447502 133.815248 
L 908.67157 132.397235 
L 910.895637 133.506183 
L 913.119705 128.065981 
L 915.343772 92.132168 
L 917.56784 99.527461 
L 919.791907 89.709788 
L 922.015975 86.337047 
L 924.240042 102.937658 
L 926.46411 164.414111 
L 928.688177 147.634434 
L 930.912245 96.407636 
L 933.136312 101.447043 
L 935.360379 72.192298 
L 937.584447 91.288377 
L 939.808514 129.308854 
L 942.032582 149.089443 
L 944.256649 133.315542 
L 946.480717 139.170513 
L 948.704784 151.71057 
L 950.928852 158.356684 
L 953.152919 106.310374 
L 955.376987 58.49052 
L 957.601054 33.511673 
L 959.825122 35.599361 
L 962.049189 34.635337 
L 964.273257 68.546415 
L 966.497324 136.408917 
L 968.721392 146.133512 
L 970.945459 155.096312 
L 973.169527 161.084506 
L 975.393594 43.987547 
L 977.617662 35.744367 
L 979.841729 39.851078 
L 982.065797 40.544181 
L 984.289864 72.327731 
L 986.513932 141.061579 
L 988.737999 162.130721 
L 990.962067 160.776406 
L 993.186134 134.679824 
L 995.410202 76.895068 
L 997.634269 141.878786 
L 999.858337 154.444758 
L 1002.082404 111.988811 
L 1004.306472 102.64965 
L 1006.530539 86.9283 
L 1008.754607 81.775289 
L 1010.978674 83.014429 
L 1013.202742 124.354871 
L 1015.426809 158.17493 
L 1017.650877 148.507524 
L 1019.874944 120.29383 
L 1022.099012 127.158173 
L 1024.323079 140.18231 
L 1026.547147 148.585757 
L 1028.771214 119.281432 
" style="fill:none;stroke:#1f77b4;stroke-linecap:square;stroke-width:2;"/>
   </g>
   <g id="patch_13">
    <path d="M 750.873981 185.398125 
L 750.873981 22.318125 
" style="fill:none;stroke:#000000;stroke-linecap:square;stroke-linejoin:miter;stroke-width:0.8;"/>
   </g>
   <g id="patch_14">
    <path d="M 1042.004416 185.398125 
L 1042.004416 22.318125 
" style="fill:none;stroke:#000000;stroke-linecap:square;stroke-linejoin:miter;stroke-width:0.8;"/>
   </g>
   <g id="patch_15">
    <path d="M 750.873981 185.398125 
L 1042.004416 185.398125 
" style="fill:none;stroke:#000000;stroke-linecap:square;stroke-linejoin:miter;stroke-width:0.8;"/>
   </g>
   <g id="patch_16">
    <path d="M 750.873981 22.318125 
L 1042.004416 22.318125 
" style="fill:none;stroke:#000000;stroke-linecap:square;stroke-linejoin:miter;stroke-width:0.8;"/>
   </g>
   <g id="text_45">
    <!-- Corr. of nodes 13 - 14 seg. -->
    <g transform="translate(816.454511 16.318125)scale(0.12 -0.12)">
     <use xlink:href="#DejaVuSans-43"/>
     <use x="69.824219" xlink:href="#DejaVuSans-6f"/>
     <use x="131.005859" xlink:href="#DejaVuSans-72"/>
     <use x="172.103516" xlink:href="#DejaVuSans-72"/>
     <use x="213.076172" xlink:href="#DejaVuSans-2e"/>
     <use x="244.863281" xlink:href="#DejaVuSans-20"/>
     <use x="276.650391" xlink:href="#DejaVuSans-6f"/>
     <use x="337.832031" xlink:href="#DejaVuSans-66"/>
     <use x="373.037109" xlink:href="#DejaVuSans-20"/>
     <use x="404.824219" xlink:href="#DejaVuSans-6e"/>
     <use x="468.203125" xlink:href="#DejaVuSans-6f"/>
     <use x="529.384766" xlink:href="#DejaVuSans-64"/>
     <use x="592.861328" xlink:href="#DejaVuSans-65"/>
     <use x="654.384766" xlink:href="#DejaVuSans-73"/>
     <use x="706.484375" xlink:href="#DejaVuSans-20"/>
     <use x="738.271484" xlink:href="#DejaVuSans-31"/>
     <use x="801.894531" xlink:href="#DejaVuSans-33"/>
     <use x="865.517578" xlink:href="#DejaVuSans-20"/>
     <use x="897.304688" xlink:href="#DejaVuSans-2d"/>
     <use x="933.388672" xlink:href="#DejaVuSans-20"/>
     <use x="965.175781" xlink:href="#DejaVuSans-31"/>
     <use x="1028.798828" xlink:href="#DejaVuSans-34"/>
     <use x="1092.421875" xlink:href="#DejaVuSans-20"/>
     <use x="1124.208984" xlink:href="#DejaVuSans-73"/>
     <use x="1176.308594" xlink:href="#DejaVuSans-65"/>
     <use x="1237.832031" xlink:href="#DejaVuSans-67"/>
     <use x="1301.308594" xlink:href="#DejaVuSans-2e"/>
    </g>
   </g>
  </g>
  <g id="axes_4">
   <g id="patch_17">
    <path d="M 1100.230503 185.398125 
L 1391.360938 185.398125 
L 1391.360938 22.318125 
L 1100.230503 22.318125 
z
" style="fill:none;"/>
   </g>
   <g id="matplotlib.axis_7">
    <g id="xtick_22">
     <g id="line2d_40">
      <g>
       <use style="stroke:#000000;stroke-width:0.8;" x="1113.463704" xlink:href="#m580afc21de" y="185.398125"/>
      </g>
     </g>
     <g id="text_46">
      <!-- 0 -->
      <g transform="translate(1110.282454 199.996563)scale(0.1 -0.1)">
       <use xlink:href="#DejaVuSans-30"/>
      </g>
     </g>
    </g>
    <g id="xtick_23">
     <g id="line2d_41">
      <g>
       <use style="stroke:#000000;stroke-width:0.8;" x="1157.945054" xlink:href="#m580afc21de" y="185.398125"/>
      </g>
     </g>
     <g id="text_47">
      <!-- 20 -->
      <g transform="translate(1151.582554 199.996563)scale(0.1 -0.1)">
       <use xlink:href="#DejaVuSans-32"/>
       <use x="63.623047" xlink:href="#DejaVuSans-30"/>
      </g>
     </g>
    </g>
    <g id="xtick_24">
     <g id="line2d_42">
      <g>
       <use style="stroke:#000000;stroke-width:0.8;" x="1202.426404" xlink:href="#m580afc21de" y="185.398125"/>
      </g>
     </g>
     <g id="text_48">
      <!-- 40 -->
      <g transform="translate(1196.063904 199.996563)scale(0.1 -0.1)">
       <use xlink:href="#DejaVuSans-34"/>
       <use x="63.623047" xlink:href="#DejaVuSans-30"/>
      </g>
     </g>
    </g>
    <g id="xtick_25">
     <g id="line2d_43">
      <g>
       <use style="stroke:#000000;stroke-width:0.8;" x="1246.907754" xlink:href="#m580afc21de" y="185.398125"/>
      </g>
     </g>
     <g id="text_49">
      <!-- 60 -->
      <g transform="translate(1240.545254 199.996563)scale(0.1 -0.1)">
       <use xlink:href="#DejaVuSans-36"/>
       <use x="63.623047" xlink:href="#DejaVuSans-30"/>
      </g>
     </g>
    </g>
    <g id="xtick_26">
     <g id="line2d_44">
      <g>
       <use style="stroke:#000000;stroke-width:0.8;" x="1291.389104" xlink:href="#m580afc21de" y="185.398125"/>
      </g>
     </g>
     <g id="text_50">
      <!-- 80 -->
      <g transform="translate(1285.026604 199.996563)scale(0.1 -0.1)">
       <use xlink:href="#DejaVuSans-38"/>
       <use x="63.623047" xlink:href="#DejaVuSans-30"/>
      </g>
     </g>
    </g>
    <g id="xtick_27">
     <g id="line2d_45">
      <g>
       <use style="stroke:#000000;stroke-width:0.8;" x="1335.870454" xlink:href="#m580afc21de" y="185.398125"/>
      </g>
     </g>
     <g id="text_51">
      <!-- 100 -->
      <g transform="translate(1326.326704 199.996563)scale(0.1 -0.1)">
       <use xlink:href="#DejaVuSans-31"/>
       <use x="63.623047" xlink:href="#DejaVuSans-30"/>
       <use x="127.246094" xlink:href="#DejaVuSans-30"/>
      </g>
     </g>
    </g>
    <g id="xtick_28">
     <g id="line2d_46">
      <g>
       <use style="stroke:#000000;stroke-width:0.8;" x="1380.351803" xlink:href="#m580afc21de" y="185.398125"/>
      </g>
     </g>
     <g id="text_52">
      <!-- 120 -->
      <g transform="translate(1370.808053 199.996563)scale(0.1 -0.1)">
       <use xlink:href="#DejaVuSans-31"/>
       <use x="63.623047" xlink:href="#DejaVuSans-32"/>
       <use x="127.246094" xlink:href="#DejaVuSans-30"/>
      </g>
     </g>
    </g>
    <g id="text_53">
     <!-- n_window -->
     <g transform="translate(1221.157439 213.674688)scale(0.1 -0.1)">
      <use xlink:href="#DejaVuSans-6e"/>
      <use x="63.378906" xlink:href="#DejaVuSans-5f"/>
      <use x="113.378906" xlink:href="#DejaVuSans-77"/>
      <use x="195.166016" xlink:href="#DejaVuSans-69"/>
      <use x="222.949219" xlink:href="#DejaVuSans-6e"/>
      <use x="286.328125" xlink:href="#DejaVuSans-64"/>
      <use x="349.804688" xlink:href="#DejaVuSans-6f"/>
      <use x="410.986328" xlink:href="#DejaVuSans-77"/>
     </g>
    </g>
   </g>
   <g id="matplotlib.axis_8">
    <g id="ytick_16">
     <g id="line2d_47">
      <g>
       <use style="stroke:#000000;stroke-width:0.8;" x="1100.230503" xlink:href="#m91891c0a3d" y="181.426065"/>
      </g>
     </g>
     <g id="text_54">
      <!-- −1.0 -->
      <g transform="translate(1068.94769 185.225284)scale(0.1 -0.1)">
       <use xlink:href="#DejaVuSans-2212"/>
       <use x="83.789062" xlink:href="#DejaVuSans-31"/>
       <use x="147.412109" xlink:href="#DejaVuSans-2e"/>
       <use x="179.199219" xlink:href="#DejaVuSans-30"/>
      </g>
     </g>
    </g>
    <g id="ytick_17">
     <g id="line2d_48">
      <g>
       <use style="stroke:#000000;stroke-width:0.8;" x="1100.230503" xlink:href="#m91891c0a3d" y="141.546664"/>
      </g>
     </g>
     <g id="text_55">
      <!-- −0.5 -->
      <g transform="translate(1068.94769 145.345883)scale(0.1 -0.1)">
       <use xlink:href="#DejaVuSans-2212"/>
       <use x="83.789062" xlink:href="#DejaVuSans-30"/>
       <use x="147.412109" xlink:href="#DejaVuSans-2e"/>
       <use x="179.199219" xlink:href="#DejaVuSans-35"/>
      </g>
     </g>
    </g>
    <g id="ytick_18">
     <g id="line2d_49">
      <g>
       <use style="stroke:#000000;stroke-width:0.8;" x="1100.230503" xlink:href="#m91891c0a3d" y="101.667262"/>
      </g>
     </g>
     <g id="text_56">
      <!-- 0.0 -->
      <g transform="translate(1077.327378 105.466481)scale(0.1 -0.1)">
       <use xlink:href="#DejaVuSans-30"/>
       <use x="63.623047" xlink:href="#DejaVuSans-2e"/>
       <use x="95.410156" xlink:href="#DejaVuSans-30"/>
      </g>
     </g>
    </g>
    <g id="ytick_19">
     <g id="line2d_50">
      <g>
       <use style="stroke:#000000;stroke-width:0.8;" x="1100.230503" xlink:href="#m91891c0a3d" y="61.787861"/>
      </g>
     </g>
     <g id="text_57">
      <!-- 0.5 -->
      <g transform="translate(1077.327378 65.58708)scale(0.1 -0.1)">
       <use xlink:href="#DejaVuSans-30"/>
       <use x="63.623047" xlink:href="#DejaVuSans-2e"/>
       <use x="95.410156" xlink:href="#DejaVuSans-35"/>
      </g>
     </g>
    </g>
    <g id="ytick_20">
     <g id="line2d_51">
      <g>
       <use style="stroke:#000000;stroke-width:0.8;" x="1100.230503" xlink:href="#m91891c0a3d" y="21.908459"/>
      </g>
     </g>
     <g id="text_58">
      <!-- 1.0 -->
      <g transform="translate(1077.327378 25.707678)scale(0.1 -0.1)">
       <use xlink:href="#DejaVuSans-31"/>
       <use x="63.623047" xlink:href="#DejaVuSans-2e"/>
       <use x="95.410156" xlink:href="#DejaVuSans-30"/>
      </g>
     </g>
    </g>
    <g id="text_59">
     <!-- Coef. corr Pearson -->
     <g transform="translate(1062.868003 149.9675)rotate(-90)scale(0.1 -0.1)">
      <use xlink:href="#DejaVuSans-43"/>
      <use x="69.824219" xlink:href="#DejaVuSans-6f"/>
      <use x="131.005859" xlink:href="#DejaVuSans-65"/>
      <use x="192.529297" xlink:href="#DejaVuSans-66"/>
      <use x="227.625" xlink:href="#DejaVuSans-2e"/>
      <use x="259.412109" xlink:href="#DejaVuSans-20"/>
      <use x="291.199219" xlink:href="#DejaVuSans-63"/>
      <use x="346.179688" xlink:href="#DejaVuSans-6f"/>
      <use x="407.361328" xlink:href="#DejaVuSans-72"/>
      <use x="448.458984" xlink:href="#DejaVuSans-72"/>
      <use x="489.572266" xlink:href="#DejaVuSans-20"/>
      <use x="521.359375" xlink:href="#DejaVuSans-50"/>
      <use x="581.615234" xlink:href="#DejaVuSans-65"/>
      <use x="643.138672" xlink:href="#DejaVuSans-61"/>
      <use x="704.417969" xlink:href="#DejaVuSans-72"/>
      <use x="745.53125" xlink:href="#DejaVuSans-73"/>
      <use x="797.630859" xlink:href="#DejaVuSans-6f"/>
      <use x="858.8125" xlink:href="#DejaVuSans-6e"/>
     </g>
    </g>
   </g>
   <g id="line2d_52">
    <path clip-path="url(#p1f1f242b99)" d="M 1113.463704 120.197791 
L 1115.687772 107.747789 
L 1117.911839 97.531078 
L 1120.135907 70.628215 
L 1122.359974 78.076067 
L 1124.584042 117.820713 
L 1126.808109 91.383077 
L 1129.032177 101.527225 
L 1131.256244 89.276015 
L 1133.480312 92.075715 
L 1135.704379 72.470007 
L 1137.928447 88.380834 
L 1140.152514 119.283302 
L 1142.376582 154.697678 
L 1144.600649 138.490466 
L 1146.824717 86.942618 
L 1149.048784 80.293681 
L 1151.272852 101.42606 
L 1153.496919 83.405782 
L 1155.720987 51.023184 
L 1157.945054 29.730852 
L 1160.169122 39.773711 
L 1162.393189 38.610879 
L 1164.617257 34.376229 
L 1166.841324 35.762208 
L 1169.065392 57.802453 
L 1171.289459 120.430189 
L 1173.513527 145.64953 
L 1175.737594 124.912065 
L 1177.961662 119.564876 
L 1180.185729 105.964412 
L 1182.409797 98.438471 
L 1184.633864 37.094614 
L 1186.857932 68.60672 
L 1189.081999 159.289497 
L 1191.306067 171.222373 
L 1193.530134 164.933056 
L 1195.754202 162.93202 
L 1197.978269 166.538943 
L 1200.202337 166.990587 
L 1202.426404 154.548837 
L 1204.650471 147.528963 
L 1206.874539 149.796747 
L 1209.098606 97.081891 
L 1211.322674 87.17071 
L 1213.546741 132.694624 
L 1215.770809 118.956635 
L 1217.994876 120.688887 
L 1220.218944 124.742327 
L 1222.443011 132.16062 
L 1224.667079 73.706429 
L 1226.891146 70.596148 
L 1229.115214 143.206427 
L 1231.339281 156.539381 
L 1233.563349 94.629332 
L 1235.787416 64.402243 
L 1238.011484 72.908251 
L 1240.235551 93.379953 
L 1242.459619 139.961786 
L 1244.683686 131.326107 
L 1246.907754 157.2179 
L 1249.131821 129.826641 
L 1251.355889 142.395266 
L 1253.579956 149.794829 
L 1255.804024 136.425816 
L 1258.028091 128.922887 
L 1260.252159 133.100733 
L 1262.476226 156.603675 
L 1264.700294 114.533466 
L 1266.924361 95.206738 
L 1269.148429 116.507321 
L 1271.372496 79.713613 
L 1273.596564 89.049945 
L 1275.820631 65.739043 
L 1278.044699 83.912931 
L 1280.268766 103.002564 
L 1282.492834 141.52053 
L 1284.716901 177.985398 
L 1286.940969 176.399885 
L 1289.165036 174.859754 
L 1291.389104 172.250689 
L 1293.613171 175.171004 
L 1295.837239 169.244432 
L 1298.061306 133.815933 
L 1300.285374 118.7355 
L 1302.509441 157.463326 
L 1304.733509 166.192534 
L 1306.957576 140.687898 
L 1309.181644 63.972352 
L 1311.405711 52.619801 
L 1313.629779 64.181978 
L 1315.853846 129.607952 
L 1318.077914 135.264767 
L 1320.301981 143.176828 
L 1322.526049 122.633758 
L 1324.750116 90.982813 
L 1326.974184 51.805298 
L 1329.198251 58.637646 
L 1331.422319 121.850945 
L 1333.646386 116.274921 
L 1335.870454 120.079925 
L 1338.094521 146.408703 
L 1340.318589 142.803214 
L 1342.542656 158.805281 
L 1344.766724 129.366151 
L 1346.990791 92.958013 
L 1349.214859 91.56187 
L 1351.438926 112.848825 
L 1353.662994 153.160624 
L 1355.887061 140.584814 
L 1358.111128 145.709456 
L 1360.335196 156.770101 
L 1362.559263 155.390375 
L 1364.783331 146.577199 
L 1367.007398 121.243286 
L 1369.231466 169.044852 
L 1371.455533 175.690735 
L 1373.679601 177.261804 
L 1375.903668 177.948023 
L 1378.127736 175.512563 
" style="fill:none;stroke:#1f77b4;stroke-linecap:square;stroke-width:2;"/>
   </g>
   <g id="patch_18">
    <path d="M 1100.230503 185.398125 
L 1100.230503 22.318125 
" style="fill:none;stroke:#000000;stroke-linecap:square;stroke-linejoin:miter;stroke-width:0.8;"/>
   </g>
   <g id="patch_19">
    <path d="M 1391.360938 185.398125 
L 1391.360938 22.318125 
" style="fill:none;stroke:#000000;stroke-linecap:square;stroke-linejoin:miter;stroke-width:0.8;"/>
   </g>
   <g id="patch_20">
    <path d="M 1100.230503 185.398125 
L 1391.360938 185.398125 
" style="fill:none;stroke:#000000;stroke-linecap:square;stroke-linejoin:miter;stroke-width:0.8;"/>
   </g>
   <g id="patch_21">
    <path d="M 1100.230503 22.318125 
L 1391.360938 22.318125 
" style="fill:none;stroke:#000000;stroke-linecap:square;stroke-linejoin:miter;stroke-width:0.8;"/>
   </g>
   <g id="text_60">
    <!-- Corr. of nodes 6 - 7 seg. -->
    <defs>
     <path d="M 8.203125 72.90625 
L 55.078125 72.90625 
L 55.078125 68.703125 
L 28.609375 0 
L 18.3125 0 
L 43.21875 64.59375 
L 8.203125 64.59375 
z
" id="DejaVuSans-37"/>
    </defs>
    <g transform="translate(1173.446033 16.318125)scale(0.12 -0.12)">
     <use xlink:href="#DejaVuSans-43"/>
     <use x="69.824219" xlink:href="#DejaVuSans-6f"/>
     <use x="131.005859" xlink:href="#DejaVuSans-72"/>
     <use x="172.103516" xlink:href="#DejaVuSans-72"/>
     <use x="213.076172" xlink:href="#DejaVuSans-2e"/>
     <use x="244.863281" xlink:href="#DejaVuSans-20"/>
     <use x="276.650391" xlink:href="#DejaVuSans-6f"/>
     <use x="337.832031" xlink:href="#DejaVuSans-66"/>
     <use x="373.037109" xlink:href="#DejaVuSans-20"/>
     <use x="404.824219" xlink:href="#DejaVuSans-6e"/>
     <use x="468.203125" xlink:href="#DejaVuSans-6f"/>
     <use x="529.384766" xlink:href="#DejaVuSans-64"/>
     <use x="592.861328" xlink:href="#DejaVuSans-65"/>
     <use x="654.384766" xlink:href="#DejaVuSans-73"/>
     <use x="706.484375" xlink:href="#DejaVuSans-20"/>
     <use x="738.271484" xlink:href="#DejaVuSans-36"/>
     <use x="801.894531" xlink:href="#DejaVuSans-20"/>
     <use x="833.681641" xlink:href="#DejaVuSans-2d"/>
     <use x="869.765625" xlink:href="#DejaVuSans-20"/>
     <use x="901.552734" xlink:href="#DejaVuSans-37"/>
     <use x="965.175781" xlink:href="#DejaVuSans-20"/>
     <use x="996.962891" xlink:href="#DejaVuSans-73"/>
     <use x="1049.0625" xlink:href="#DejaVuSans-65"/>
     <use x="1110.585938" xlink:href="#DejaVuSans-67"/>
     <use x="1174.0625" xlink:href="#DejaVuSans-2e"/>
    </g>
   </g>
  </g>
 </g>
 <defs>
  <clipPath id="pfd43af5bc8">
   <rect height="163.08" width="291.130435" x="52.160938" y="22.318125"/>
  </clipPath>
  <clipPath id="p0cf33f9cd0">
   <rect height="163.08" width="291.130435" x="401.517459" y="22.318125"/>
  </clipPath>
  <clipPath id="p804e83f8a6">
   <rect height="163.08" width="291.130435" x="750.873981" y="22.318125"/>
  </clipPath>
  <clipPath id="p1f1f242b99">
   <rect height="163.08" width="291.130435" x="1100.230503" y="22.318125"/>
  </clipPath>
 </defs>
</svg>
