<?xml version="1.0" encoding="utf-8" standalone="no"?>
<!DOCTYPE svg PUBLIC "-//W3C//DTD SVG 1.1//EN"
  "http://www.w3.org/Graphics/SVG/1.1/DTD/svg11.dtd">
<!-- Created with matplotlib (http://matplotlib.org/) -->
<svg height="223.2325pt" version="1.1" viewBox="0 0 1408.423438 223.2325" width="1408.423438pt" xmlns="http://www.w3.org/2000/svg" xmlns:xlink="http://www.w3.org/1999/xlink">
 <defs>
  <style type="text/css">
*{stroke-linecap:butt;stroke-linejoin:round;}
  </style>
 </defs>
 <g id="figure_1">
  <g id="patch_1">
   <path d="M 0 223.2325 
L 1408.423438 223.2325 
L 1408.423438 0 
L 0 0 
z
" style="fill:#ffffff;"/>
  </g>
  <g id="axes_1">
   <g id="patch_2">
    <path d="M 58.523438 185.398125 
L 349.653872 185.398125 
L 349.653872 22.318125 
L 58.523438 22.318125 
z
" style="fill:none;"/>
   </g>
   <g id="matplotlib.axis_1">
    <g id="xtick_1">
     <g id="line2d_1">
      <defs>
       <path d="M 0 0 
L 0 3.5 
" id="m5843f63248" style="stroke:#000000;stroke-width:0.8;"/>
      </defs>
      <g>
       <use style="stroke:#000000;stroke-width:0.8;" x="71.756639" xlink:href="#m5843f63248" y="185.398125"/>
      </g>
     </g>
     <g id="text_1">
      <!-- 0 -->
      <defs>
       <path d="M 31.78125 66.40625 
Q 24.171875 66.40625 20.328125 58.90625 
Q 16.5 51.421875 16.5 36.375 
Q 16.5 21.390625 20.328125 13.890625 
Q 24.171875 6.390625 31.78125 6.390625 
Q 39.453125 6.390625 43.28125 13.890625 
Q 47.125 21.390625 47.125 36.375 
Q 47.125 51.421875 43.28125 58.90625 
Q 39.453125 66.40625 31.78125 66.40625 
z
M 31.78125 74.21875 
Q 44.046875 74.21875 50.515625 64.515625 
Q 56.984375 54.828125 56.984375 36.375 
Q 56.984375 17.96875 50.515625 8.265625 
Q 44.046875 -1.421875 31.78125 -1.421875 
Q 19.53125 -1.421875 13.0625 8.265625 
Q 6.59375 17.96875 6.59375 36.375 
Q 6.59375 54.828125 13.0625 64.515625 
Q 19.53125 74.21875 31.78125 74.21875 
z
" id="DejaVuSans-30"/>
      </defs>
      <g transform="translate(68.575389 199.996563)scale(0.1 -0.1)">
       <use xlink:href="#DejaVuSans-30"/>
      </g>
     </g>
    </g>
    <g id="xtick_2">
     <g id="line2d_2">
      <g>
       <use style="stroke:#000000;stroke-width:0.8;" x="116.61495" xlink:href="#m5843f63248" y="185.398125"/>
      </g>
     </g>
     <g id="text_2">
      <!-- 10 -->
      <defs>
       <path d="M 12.40625 8.296875 
L 28.515625 8.296875 
L 28.515625 63.921875 
L 10.984375 60.40625 
L 10.984375 69.390625 
L 28.421875 72.90625 
L 38.28125 72.90625 
L 38.28125 8.296875 
L 54.390625 8.296875 
L 54.390625 0 
L 12.40625 0 
z
" id="DejaVuSans-31"/>
      </defs>
      <g transform="translate(110.25245 199.996563)scale(0.1 -0.1)">
       <use xlink:href="#DejaVuSans-31"/>
       <use x="63.623047" xlink:href="#DejaVuSans-30"/>
      </g>
     </g>
    </g>
    <g id="xtick_3">
     <g id="line2d_3">
      <g>
       <use style="stroke:#000000;stroke-width:0.8;" x="161.47326" xlink:href="#m5843f63248" y="185.398125"/>
      </g>
     </g>
     <g id="text_3">
      <!-- 20 -->
      <defs>
       <path d="M 19.1875 8.296875 
L 53.609375 8.296875 
L 53.609375 0 
L 7.328125 0 
L 7.328125 8.296875 
Q 12.9375 14.109375 22.625 23.890625 
Q 32.328125 33.6875 34.8125 36.53125 
Q 39.546875 41.84375 41.421875 45.53125 
Q 43.3125 49.21875 43.3125 52.78125 
Q 43.3125 58.59375 39.234375 62.25 
Q 35.15625 65.921875 28.609375 65.921875 
Q 23.96875 65.921875 18.8125 64.3125 
Q 13.671875 62.703125 7.8125 59.421875 
L 7.8125 69.390625 
Q 13.765625 71.78125 18.9375 73 
Q 24.125 74.21875 28.421875 74.21875 
Q 39.75 74.21875 46.484375 68.546875 
Q 53.21875 62.890625 53.21875 53.421875 
Q 53.21875 48.921875 51.53125 44.890625 
Q 49.859375 40.875 45.40625 35.40625 
Q 44.1875 33.984375 37.640625 27.21875 
Q 31.109375 20.453125 19.1875 8.296875 
z
" id="DejaVuSans-32"/>
      </defs>
      <g transform="translate(155.11076 199.996563)scale(0.1 -0.1)">
       <use xlink:href="#DejaVuSans-32"/>
       <use x="63.623047" xlink:href="#DejaVuSans-30"/>
      </g>
     </g>
    </g>
    <g id="xtick_4">
     <g id="line2d_4">
      <g>
       <use style="stroke:#000000;stroke-width:0.8;" x="206.33157" xlink:href="#m5843f63248" y="185.398125"/>
      </g>
     </g>
     <g id="text_4">
      <!-- 30 -->
      <defs>
       <path d="M 40.578125 39.3125 
Q 47.65625 37.796875 51.625 33 
Q 55.609375 28.21875 55.609375 21.1875 
Q 55.609375 10.40625 48.1875 4.484375 
Q 40.765625 -1.421875 27.09375 -1.421875 
Q 22.515625 -1.421875 17.65625 -0.515625 
Q 12.796875 0.390625 7.625 2.203125 
L 7.625 11.71875 
Q 11.71875 9.328125 16.59375 8.109375 
Q 21.484375 6.890625 26.8125 6.890625 
Q 36.078125 6.890625 40.9375 10.546875 
Q 45.796875 14.203125 45.796875 21.1875 
Q 45.796875 27.640625 41.28125 31.265625 
Q 36.765625 34.90625 28.71875 34.90625 
L 20.21875 34.90625 
L 20.21875 43.015625 
L 29.109375 43.015625 
Q 36.375 43.015625 40.234375 45.921875 
Q 44.09375 48.828125 44.09375 54.296875 
Q 44.09375 59.90625 40.109375 62.90625 
Q 36.140625 65.921875 28.71875 65.921875 
Q 24.65625 65.921875 20.015625 65.03125 
Q 15.375 64.15625 9.8125 62.3125 
L 9.8125 71.09375 
Q 15.4375 72.65625 20.34375 73.4375 
Q 25.25 74.21875 29.59375 74.21875 
Q 40.828125 74.21875 47.359375 69.109375 
Q 53.90625 64.015625 53.90625 55.328125 
Q 53.90625 49.265625 50.4375 45.09375 
Q 46.96875 40.921875 40.578125 39.3125 
z
" id="DejaVuSans-33"/>
      </defs>
      <g transform="translate(199.96907 199.996563)scale(0.1 -0.1)">
       <use xlink:href="#DejaVuSans-33"/>
       <use x="63.623047" xlink:href="#DejaVuSans-30"/>
      </g>
     </g>
    </g>
    <g id="xtick_5">
     <g id="line2d_5">
      <g>
       <use style="stroke:#000000;stroke-width:0.8;" x="251.189881" xlink:href="#m5843f63248" y="185.398125"/>
      </g>
     </g>
     <g id="text_5">
      <!-- 40 -->
      <defs>
       <path d="M 37.796875 64.3125 
L 12.890625 25.390625 
L 37.796875 25.390625 
z
M 35.203125 72.90625 
L 47.609375 72.90625 
L 47.609375 25.390625 
L 58.015625 25.390625 
L 58.015625 17.1875 
L 47.609375 17.1875 
L 47.609375 0 
L 37.796875 0 
L 37.796875 17.1875 
L 4.890625 17.1875 
L 4.890625 26.703125 
z
" id="DejaVuSans-34"/>
      </defs>
      <g transform="translate(244.827381 199.996563)scale(0.1 -0.1)">
       <use xlink:href="#DejaVuSans-34"/>
       <use x="63.623047" xlink:href="#DejaVuSans-30"/>
      </g>
     </g>
    </g>
    <g id="xtick_6">
     <g id="line2d_6">
      <g>
       <use style="stroke:#000000;stroke-width:0.8;" x="296.048191" xlink:href="#m5843f63248" y="185.398125"/>
      </g>
     </g>
     <g id="text_6">
      <!-- 50 -->
      <defs>
       <path d="M 10.796875 72.90625 
L 49.515625 72.90625 
L 49.515625 64.59375 
L 19.828125 64.59375 
L 19.828125 46.734375 
Q 21.96875 47.46875 24.109375 47.828125 
Q 26.265625 48.1875 28.421875 48.1875 
Q 40.625 48.1875 47.75 41.5 
Q 54.890625 34.8125 54.890625 23.390625 
Q 54.890625 11.625 47.5625 5.09375 
Q 40.234375 -1.421875 26.90625 -1.421875 
Q 22.3125 -1.421875 17.546875 -0.640625 
Q 12.796875 0.140625 7.71875 1.703125 
L 7.71875 11.625 
Q 12.109375 9.234375 16.796875 8.0625 
Q 21.484375 6.890625 26.703125 6.890625 
Q 35.15625 6.890625 40.078125 11.328125 
Q 45.015625 15.765625 45.015625 23.390625 
Q 45.015625 31 40.078125 35.4375 
Q 35.15625 39.890625 26.703125 39.890625 
Q 22.75 39.890625 18.8125 39.015625 
Q 14.890625 38.140625 10.796875 36.28125 
z
" id="DejaVuSans-35"/>
      </defs>
      <g transform="translate(289.685691 199.996563)scale(0.1 -0.1)">
       <use xlink:href="#DejaVuSans-35"/>
       <use x="63.623047" xlink:href="#DejaVuSans-30"/>
      </g>
     </g>
    </g>
    <g id="xtick_7">
     <g id="line2d_7">
      <g>
       <use style="stroke:#000000;stroke-width:0.8;" x="340.906502" xlink:href="#m5843f63248" y="185.398125"/>
      </g>
     </g>
     <g id="text_7">
      <!-- 60 -->
      <defs>
       <path d="M 33.015625 40.375 
Q 26.375 40.375 22.484375 35.828125 
Q 18.609375 31.296875 18.609375 23.390625 
Q 18.609375 15.53125 22.484375 10.953125 
Q 26.375 6.390625 33.015625 6.390625 
Q 39.65625 6.390625 43.53125 10.953125 
Q 47.40625 15.53125 47.40625 23.390625 
Q 47.40625 31.296875 43.53125 35.828125 
Q 39.65625 40.375 33.015625 40.375 
z
M 52.59375 71.296875 
L 52.59375 62.3125 
Q 48.875 64.0625 45.09375 64.984375 
Q 41.3125 65.921875 37.59375 65.921875 
Q 27.828125 65.921875 22.671875 59.328125 
Q 17.53125 52.734375 16.796875 39.40625 
Q 19.671875 43.65625 24.015625 45.921875 
Q 28.375 48.1875 33.59375 48.1875 
Q 44.578125 48.1875 50.953125 41.515625 
Q 57.328125 34.859375 57.328125 23.390625 
Q 57.328125 12.15625 50.6875 5.359375 
Q 44.046875 -1.421875 33.015625 -1.421875 
Q 20.359375 -1.421875 13.671875 8.265625 
Q 6.984375 17.96875 6.984375 36.375 
Q 6.984375 53.65625 15.1875 63.9375 
Q 23.390625 74.21875 37.203125 74.21875 
Q 40.921875 74.21875 44.703125 73.484375 
Q 48.484375 72.75 52.59375 71.296875 
z
" id="DejaVuSans-36"/>
      </defs>
      <g transform="translate(334.544002 199.996563)scale(0.1 -0.1)">
       <use xlink:href="#DejaVuSans-36"/>
       <use x="63.623047" xlink:href="#DejaVuSans-30"/>
      </g>
     </g>
    </g>
    <g id="text_8">
     <!-- n_window -->
     <defs>
      <path d="M 54.890625 33.015625 
L 54.890625 0 
L 45.90625 0 
L 45.90625 32.71875 
Q 45.90625 40.484375 42.875 44.328125 
Q 39.84375 48.1875 33.796875 48.1875 
Q 26.515625 48.1875 22.3125 43.546875 
Q 18.109375 38.921875 18.109375 30.90625 
L 18.109375 0 
L 9.078125 0 
L 9.078125 54.6875 
L 18.109375 54.6875 
L 18.109375 46.1875 
Q 21.34375 51.125 25.703125 53.5625 
Q 30.078125 56 35.796875 56 
Q 45.21875 56 50.046875 50.171875 
Q 54.890625 44.34375 54.890625 33.015625 
z
" id="DejaVuSans-6e"/>
      <path d="M 50.984375 -16.609375 
L 50.984375 -23.578125 
L -0.984375 -23.578125 
L -0.984375 -16.609375 
z
" id="DejaVuSans-5f"/>
      <path d="M 4.203125 54.6875 
L 13.1875 54.6875 
L 24.421875 12.015625 
L 35.59375 54.6875 
L 46.1875 54.6875 
L 57.421875 12.015625 
L 68.609375 54.6875 
L 77.59375 54.6875 
L 63.28125 0 
L 52.6875 0 
L 40.921875 44.828125 
L 29.109375 0 
L 18.5 0 
z
" id="DejaVuSans-77"/>
      <path d="M 9.421875 54.6875 
L 18.40625 54.6875 
L 18.40625 0 
L 9.421875 0 
z
M 9.421875 75.984375 
L 18.40625 75.984375 
L 18.40625 64.59375 
L 9.421875 64.59375 
z
" id="DejaVuSans-69"/>
      <path d="M 45.40625 46.390625 
L 45.40625 75.984375 
L 54.390625 75.984375 
L 54.390625 0 
L 45.40625 0 
L 45.40625 8.203125 
Q 42.578125 3.328125 38.25 0.953125 
Q 33.9375 -1.421875 27.875 -1.421875 
Q 17.96875 -1.421875 11.734375 6.484375 
Q 5.515625 14.40625 5.515625 27.296875 
Q 5.515625 40.1875 11.734375 48.09375 
Q 17.96875 56 27.875 56 
Q 33.9375 56 38.25 53.625 
Q 42.578125 51.265625 45.40625 46.390625 
z
M 14.796875 27.296875 
Q 14.796875 17.390625 18.875 11.75 
Q 22.953125 6.109375 30.078125 6.109375 
Q 37.203125 6.109375 41.296875 11.75 
Q 45.40625 17.390625 45.40625 27.296875 
Q 45.40625 37.203125 41.296875 42.84375 
Q 37.203125 48.484375 30.078125 48.484375 
Q 22.953125 48.484375 18.875 42.84375 
Q 14.796875 37.203125 14.796875 27.296875 
z
" id="DejaVuSans-64"/>
      <path d="M 30.609375 48.390625 
Q 23.390625 48.390625 19.1875 42.75 
Q 14.984375 37.109375 14.984375 27.296875 
Q 14.984375 17.484375 19.15625 11.84375 
Q 23.34375 6.203125 30.609375 6.203125 
Q 37.796875 6.203125 41.984375 11.859375 
Q 46.1875 17.53125 46.1875 27.296875 
Q 46.1875 37.015625 41.984375 42.703125 
Q 37.796875 48.390625 30.609375 48.390625 
z
M 30.609375 56 
Q 42.328125 56 49.015625 48.375 
Q 55.71875 40.765625 55.71875 27.296875 
Q 55.71875 13.875 49.015625 6.21875 
Q 42.328125 -1.421875 30.609375 -1.421875 
Q 18.84375 -1.421875 12.171875 6.21875 
Q 5.515625 13.875 5.515625 27.296875 
Q 5.515625 40.765625 12.171875 48.375 
Q 18.84375 56 30.609375 56 
z
" id="DejaVuSans-6f"/>
     </defs>
     <g transform="translate(179.450374 213.674688)scale(0.1 -0.1)">
      <use xlink:href="#DejaVuSans-6e"/>
      <use x="63.378906" xlink:href="#DejaVuSans-5f"/>
      <use x="113.378906" xlink:href="#DejaVuSans-77"/>
      <use x="195.166016" xlink:href="#DejaVuSans-69"/>
      <use x="222.949219" xlink:href="#DejaVuSans-6e"/>
      <use x="286.328125" xlink:href="#DejaVuSans-64"/>
      <use x="349.804688" xlink:href="#DejaVuSans-6f"/>
      <use x="410.986328" xlink:href="#DejaVuSans-77"/>
     </g>
    </g>
   </g>
   <g id="matplotlib.axis_2">
    <g id="ytick_1">
     <g id="line2d_8">
      <defs>
       <path d="M 0 0 
L -3.5 0 
" id="m41106a239f" style="stroke:#000000;stroke-width:0.8;"/>
      </defs>
      <g>
       <use style="stroke:#000000;stroke-width:0.8;" x="58.523438" xlink:href="#m41106a239f" y="166.474768"/>
      </g>
     </g>
     <g id="text_9">
      <!-- −0.75 -->
      <defs>
       <path d="M 10.59375 35.5 
L 73.1875 35.5 
L 73.1875 27.203125 
L 10.59375 27.203125 
z
" id="DejaVuSans-2212"/>
       <path d="M 10.6875 12.40625 
L 21 12.40625 
L 21 0 
L 10.6875 0 
z
" id="DejaVuSans-2e"/>
       <path d="M 8.203125 72.90625 
L 55.078125 72.90625 
L 55.078125 68.703125 
L 28.609375 0 
L 18.3125 0 
L 43.21875 64.59375 
L 8.203125 64.59375 
z
" id="DejaVuSans-37"/>
      </defs>
      <g transform="translate(20.878125 170.273987)scale(0.1 -0.1)">
       <use xlink:href="#DejaVuSans-2212"/>
       <use x="83.789062" xlink:href="#DejaVuSans-30"/>
       <use x="147.412109" xlink:href="#DejaVuSans-2e"/>
       <use x="179.199219" xlink:href="#DejaVuSans-37"/>
       <use x="242.822266" xlink:href="#DejaVuSans-35"/>
      </g>
     </g>
    </g>
    <g id="ytick_2">
     <g id="line2d_9">
      <g>
       <use style="stroke:#000000;stroke-width:0.8;" x="58.523438" xlink:href="#m41106a239f" y="145.592648"/>
      </g>
     </g>
     <g id="text_10">
      <!-- −0.50 -->
      <g transform="translate(20.878125 149.391867)scale(0.1 -0.1)">
       <use xlink:href="#DejaVuSans-2212"/>
       <use x="83.789062" xlink:href="#DejaVuSans-30"/>
       <use x="147.412109" xlink:href="#DejaVuSans-2e"/>
       <use x="179.199219" xlink:href="#DejaVuSans-35"/>
       <use x="242.822266" xlink:href="#DejaVuSans-30"/>
      </g>
     </g>
    </g>
    <g id="ytick_3">
     <g id="line2d_10">
      <g>
       <use style="stroke:#000000;stroke-width:0.8;" x="58.523438" xlink:href="#m41106a239f" y="124.710528"/>
      </g>
     </g>
     <g id="text_11">
      <!-- −0.25 -->
      <g transform="translate(20.878125 128.509747)scale(0.1 -0.1)">
       <use xlink:href="#DejaVuSans-2212"/>
       <use x="83.789062" xlink:href="#DejaVuSans-30"/>
       <use x="147.412109" xlink:href="#DejaVuSans-2e"/>
       <use x="179.199219" xlink:href="#DejaVuSans-32"/>
       <use x="242.822266" xlink:href="#DejaVuSans-35"/>
      </g>
     </g>
    </g>
    <g id="ytick_4">
     <g id="line2d_11">
      <g>
       <use style="stroke:#000000;stroke-width:0.8;" x="58.523438" xlink:href="#m41106a239f" y="103.828408"/>
      </g>
     </g>
     <g id="text_12">
      <!-- 0.00 -->
      <g transform="translate(29.257812 107.627627)scale(0.1 -0.1)">
       <use xlink:href="#DejaVuSans-30"/>
       <use x="63.623047" xlink:href="#DejaVuSans-2e"/>
       <use x="95.410156" xlink:href="#DejaVuSans-30"/>
       <use x="159.033203" xlink:href="#DejaVuSans-30"/>
      </g>
     </g>
    </g>
    <g id="ytick_5">
     <g id="line2d_12">
      <g>
       <use style="stroke:#000000;stroke-width:0.8;" x="58.523438" xlink:href="#m41106a239f" y="82.946288"/>
      </g>
     </g>
     <g id="text_13">
      <!-- 0.25 -->
      <g transform="translate(29.257812 86.745506)scale(0.1 -0.1)">
       <use xlink:href="#DejaVuSans-30"/>
       <use x="63.623047" xlink:href="#DejaVuSans-2e"/>
       <use x="95.410156" xlink:href="#DejaVuSans-32"/>
       <use x="159.033203" xlink:href="#DejaVuSans-35"/>
      </g>
     </g>
    </g>
    <g id="ytick_6">
     <g id="line2d_13">
      <g>
       <use style="stroke:#000000;stroke-width:0.8;" x="58.523438" xlink:href="#m41106a239f" y="62.064167"/>
      </g>
     </g>
     <g id="text_14">
      <!-- 0.50 -->
      <g transform="translate(29.257812 65.863386)scale(0.1 -0.1)">
       <use xlink:href="#DejaVuSans-30"/>
       <use x="63.623047" xlink:href="#DejaVuSans-2e"/>
       <use x="95.410156" xlink:href="#DejaVuSans-35"/>
       <use x="159.033203" xlink:href="#DejaVuSans-30"/>
      </g>
     </g>
    </g>
    <g id="ytick_7">
     <g id="line2d_14">
      <g>
       <use style="stroke:#000000;stroke-width:0.8;" x="58.523438" xlink:href="#m41106a239f" y="41.182047"/>
      </g>
     </g>
     <g id="text_15">
      <!-- 0.75 -->
      <g transform="translate(29.257812 44.981266)scale(0.1 -0.1)">
       <use xlink:href="#DejaVuSans-30"/>
       <use x="63.623047" xlink:href="#DejaVuSans-2e"/>
       <use x="95.410156" xlink:href="#DejaVuSans-37"/>
       <use x="159.033203" xlink:href="#DejaVuSans-35"/>
      </g>
     </g>
    </g>
    <g id="text_16">
     <!-- Coef. corr Pearson -->
     <defs>
      <path d="M 64.40625 67.28125 
L 64.40625 56.890625 
Q 59.421875 61.53125 53.78125 63.8125 
Q 48.140625 66.109375 41.796875 66.109375 
Q 29.296875 66.109375 22.65625 58.46875 
Q 16.015625 50.828125 16.015625 36.375 
Q 16.015625 21.96875 22.65625 14.328125 
Q 29.296875 6.6875 41.796875 6.6875 
Q 48.140625 6.6875 53.78125 8.984375 
Q 59.421875 11.28125 64.40625 15.921875 
L 64.40625 5.609375 
Q 59.234375 2.09375 53.4375 0.328125 
Q 47.65625 -1.421875 41.21875 -1.421875 
Q 24.65625 -1.421875 15.125 8.703125 
Q 5.609375 18.84375 5.609375 36.375 
Q 5.609375 53.953125 15.125 64.078125 
Q 24.65625 74.21875 41.21875 74.21875 
Q 47.75 74.21875 53.53125 72.484375 
Q 59.328125 70.75 64.40625 67.28125 
z
" id="DejaVuSans-43"/>
      <path d="M 56.203125 29.59375 
L 56.203125 25.203125 
L 14.890625 25.203125 
Q 15.484375 15.921875 20.484375 11.0625 
Q 25.484375 6.203125 34.421875 6.203125 
Q 39.59375 6.203125 44.453125 7.46875 
Q 49.3125 8.734375 54.109375 11.28125 
L 54.109375 2.78125 
Q 49.265625 0.734375 44.1875 -0.34375 
Q 39.109375 -1.421875 33.890625 -1.421875 
Q 20.796875 -1.421875 13.15625 6.1875 
Q 5.515625 13.8125 5.515625 26.8125 
Q 5.515625 40.234375 12.765625 48.109375 
Q 20.015625 56 32.328125 56 
Q 43.359375 56 49.78125 48.890625 
Q 56.203125 41.796875 56.203125 29.59375 
z
M 47.21875 32.234375 
Q 47.125 39.59375 43.09375 43.984375 
Q 39.0625 48.390625 32.421875 48.390625 
Q 24.90625 48.390625 20.390625 44.140625 
Q 15.875 39.890625 15.1875 32.171875 
z
" id="DejaVuSans-65"/>
      <path d="M 37.109375 75.984375 
L 37.109375 68.5 
L 28.515625 68.5 
Q 23.6875 68.5 21.796875 66.546875 
Q 19.921875 64.59375 19.921875 59.515625 
L 19.921875 54.6875 
L 34.71875 54.6875 
L 34.71875 47.703125 
L 19.921875 47.703125 
L 19.921875 0 
L 10.890625 0 
L 10.890625 47.703125 
L 2.296875 47.703125 
L 2.296875 54.6875 
L 10.890625 54.6875 
L 10.890625 58.5 
Q 10.890625 67.625 15.140625 71.796875 
Q 19.390625 75.984375 28.609375 75.984375 
z
" id="DejaVuSans-66"/>
      <path id="DejaVuSans-20"/>
      <path d="M 48.78125 52.59375 
L 48.78125 44.1875 
Q 44.96875 46.296875 41.140625 47.34375 
Q 37.3125 48.390625 33.40625 48.390625 
Q 24.65625 48.390625 19.8125 42.84375 
Q 14.984375 37.3125 14.984375 27.296875 
Q 14.984375 17.28125 19.8125 11.734375 
Q 24.65625 6.203125 33.40625 6.203125 
Q 37.3125 6.203125 41.140625 7.25 
Q 44.96875 8.296875 48.78125 10.40625 
L 48.78125 2.09375 
Q 45.015625 0.34375 40.984375 -0.53125 
Q 36.96875 -1.421875 32.421875 -1.421875 
Q 20.0625 -1.421875 12.78125 6.34375 
Q 5.515625 14.109375 5.515625 27.296875 
Q 5.515625 40.671875 12.859375 48.328125 
Q 20.21875 56 33.015625 56 
Q 37.15625 56 41.109375 55.140625 
Q 45.0625 54.296875 48.78125 52.59375 
z
" id="DejaVuSans-63"/>
      <path d="M 41.109375 46.296875 
Q 39.59375 47.171875 37.8125 47.578125 
Q 36.03125 48 33.890625 48 
Q 26.265625 48 22.1875 43.046875 
Q 18.109375 38.09375 18.109375 28.8125 
L 18.109375 0 
L 9.078125 0 
L 9.078125 54.6875 
L 18.109375 54.6875 
L 18.109375 46.1875 
Q 20.953125 51.171875 25.484375 53.578125 
Q 30.03125 56 36.53125 56 
Q 37.453125 56 38.578125 55.875 
Q 39.703125 55.765625 41.0625 55.515625 
z
" id="DejaVuSans-72"/>
      <path d="M 19.671875 64.796875 
L 19.671875 37.40625 
L 32.078125 37.40625 
Q 38.96875 37.40625 42.71875 40.96875 
Q 46.484375 44.53125 46.484375 51.125 
Q 46.484375 57.671875 42.71875 61.234375 
Q 38.96875 64.796875 32.078125 64.796875 
z
M 9.8125 72.90625 
L 32.078125 72.90625 
Q 44.34375 72.90625 50.609375 67.359375 
Q 56.890625 61.8125 56.890625 51.125 
Q 56.890625 40.328125 50.609375 34.8125 
Q 44.34375 29.296875 32.078125 29.296875 
L 19.671875 29.296875 
L 19.671875 0 
L 9.8125 0 
z
" id="DejaVuSans-50"/>
      <path d="M 34.28125 27.484375 
Q 23.390625 27.484375 19.1875 25 
Q 14.984375 22.515625 14.984375 16.5 
Q 14.984375 11.71875 18.140625 8.90625 
Q 21.296875 6.109375 26.703125 6.109375 
Q 34.1875 6.109375 38.703125 11.40625 
Q 43.21875 16.703125 43.21875 25.484375 
L 43.21875 27.484375 
z
M 52.203125 31.203125 
L 52.203125 0 
L 43.21875 0 
L 43.21875 8.296875 
Q 40.140625 3.328125 35.546875 0.953125 
Q 30.953125 -1.421875 24.3125 -1.421875 
Q 15.921875 -1.421875 10.953125 3.296875 
Q 6 8.015625 6 15.921875 
Q 6 25.140625 12.171875 29.828125 
Q 18.359375 34.515625 30.609375 34.515625 
L 43.21875 34.515625 
L 43.21875 35.40625 
Q 43.21875 41.609375 39.140625 45 
Q 35.0625 48.390625 27.6875 48.390625 
Q 23 48.390625 18.546875 47.265625 
Q 14.109375 46.140625 10.015625 43.890625 
L 10.015625 52.203125 
Q 14.9375 54.109375 19.578125 55.046875 
Q 24.21875 56 28.609375 56 
Q 40.484375 56 46.34375 49.84375 
Q 52.203125 43.703125 52.203125 31.203125 
z
" id="DejaVuSans-61"/>
      <path d="M 44.28125 53.078125 
L 44.28125 44.578125 
Q 40.484375 46.53125 36.375 47.5 
Q 32.28125 48.484375 27.875 48.484375 
Q 21.1875 48.484375 17.84375 46.4375 
Q 14.5 44.390625 14.5 40.28125 
Q 14.5 37.15625 16.890625 35.375 
Q 19.28125 33.59375 26.515625 31.984375 
L 29.59375 31.296875 
Q 39.15625 29.25 43.1875 25.515625 
Q 47.21875 21.78125 47.21875 15.09375 
Q 47.21875 7.46875 41.1875 3.015625 
Q 35.15625 -1.421875 24.609375 -1.421875 
Q 20.21875 -1.421875 15.453125 -0.5625 
Q 10.6875 0.296875 5.421875 2 
L 5.421875 11.28125 
Q 10.40625 8.6875 15.234375 7.390625 
Q 20.0625 6.109375 24.8125 6.109375 
Q 31.15625 6.109375 34.5625 8.28125 
Q 37.984375 10.453125 37.984375 14.40625 
Q 37.984375 18.0625 35.515625 20.015625 
Q 33.0625 21.96875 24.703125 23.78125 
L 21.578125 24.515625 
Q 13.234375 26.265625 9.515625 29.90625 
Q 5.8125 33.546875 5.8125 39.890625 
Q 5.8125 47.609375 11.28125 51.796875 
Q 16.75 56 26.8125 56 
Q 31.78125 56 36.171875 55.265625 
Q 40.578125 54.546875 44.28125 53.078125 
z
" id="DejaVuSans-73"/>
     </defs>
     <g transform="translate(14.798437 149.9675)rotate(-90)scale(0.1 -0.1)">
      <use xlink:href="#DejaVuSans-43"/>
      <use x="69.824219" xlink:href="#DejaVuSans-6f"/>
      <use x="131.005859" xlink:href="#DejaVuSans-65"/>
      <use x="192.529297" xlink:href="#DejaVuSans-66"/>
      <use x="227.625" xlink:href="#DejaVuSans-2e"/>
      <use x="259.412109" xlink:href="#DejaVuSans-20"/>
      <use x="291.199219" xlink:href="#DejaVuSans-63"/>
      <use x="346.179688" xlink:href="#DejaVuSans-6f"/>
      <use x="407.361328" xlink:href="#DejaVuSans-72"/>
      <use x="448.458984" xlink:href="#DejaVuSans-72"/>
      <use x="489.572266" xlink:href="#DejaVuSans-20"/>
      <use x="521.359375" xlink:href="#DejaVuSans-50"/>
      <use x="581.615234" xlink:href="#DejaVuSans-65"/>
      <use x="643.138672" xlink:href="#DejaVuSans-61"/>
      <use x="704.417969" xlink:href="#DejaVuSans-72"/>
      <use x="745.53125" xlink:href="#DejaVuSans-73"/>
      <use x="797.630859" xlink:href="#DejaVuSans-6f"/>
      <use x="858.8125" xlink:href="#DejaVuSans-6e"/>
     </g>
    </g>
   </g>
   <g id="line2d_15">
    <path clip-path="url(#p5faa74650f)" d="M 71.756639 177.450084 
L 76.24247 165.556461 
L 80.728301 168.044417 
L 85.214132 56.729479 
L 89.699963 61.609104 
L 94.185794 90.967995 
L 98.671625 142.045729 
L 103.157456 163.414776 
L 107.643287 94.35559 
L 112.129118 48.406708 
L 116.61495 78.22529 
L 121.100781 107.920593 
L 125.586612 49.331408 
L 130.072443 30.342878 
L 134.558274 74.849758 
L 139.044105 140.289553 
L 143.529936 53.747356 
L 148.015767 74.321833 
L 152.501598 34.501394 
L 156.987429 121.806082 
L 161.47326 55.629759 
L 165.959091 103.258899 
L 170.444922 88.747798 
L 174.930753 38.492228 
L 179.416584 29.730852 
L 183.902415 142.222711 
L 188.388246 135.250987 
L 192.874077 77.581601 
L 197.359908 106.791492 
L 201.845739 46.943361 
L 206.33157 57.957214 
L 210.817401 103.564921 
L 215.303233 31.268919 
L 219.789064 36.986823 
L 224.274895 114.965736 
L 228.760726 166.762377 
L 233.246557 176.036746 
L 237.732388 126.405087 
L 242.218219 121.159813 
L 246.70405 74.180383 
L 251.189881 114.229643 
L 255.675712 77.803372 
L 260.161543 81.578144 
L 264.647374 53.114933 
L 269.133205 162.57837 
L 273.619036 177.985398 
L 278.104867 99.193789 
L 282.590698 63.358924 
L 287.076529 113.086014 
L 291.56236 123.061727 
L 296.048191 172.9785 
L 300.534022 100.043477 
L 305.019853 65.712562 
L 309.505684 83.852191 
L 313.991515 77.285609 
L 318.477347 71.370172 
L 322.963178 122.541448 
L 327.449009 177.231504 
L 331.93484 173.299376 
L 336.420671 93.95267 
" style="fill:none;stroke:#1f77b4;stroke-linecap:square;stroke-width:2;"/>
   </g>
   <g id="patch_3">
    <path d="M 58.523438 185.398125 
L 58.523438 22.318125 
" style="fill:none;stroke:#000000;stroke-linecap:square;stroke-linejoin:miter;stroke-width:0.8;"/>
   </g>
   <g id="patch_4">
    <path d="M 349.653872 185.398125 
L 349.653872 22.318125 
" style="fill:none;stroke:#000000;stroke-linecap:square;stroke-linejoin:miter;stroke-width:0.8;"/>
   </g>
   <g id="patch_5">
    <path d="M 58.523438 185.398125 
L 349.653872 185.398125 
" style="fill:none;stroke:#000000;stroke-linecap:square;stroke-linejoin:miter;stroke-width:0.8;"/>
   </g>
   <g id="patch_6">
    <path d="M 58.523438 22.318125 
L 349.653872 22.318125 
" style="fill:none;stroke:#000000;stroke-linecap:square;stroke-linejoin:miter;stroke-width:0.8;"/>
   </g>
   <g id="text_17">
    <!-- Corr. of nodes 19 - 20 seg. -->
    <defs>
     <path d="M 10.984375 1.515625 
L 10.984375 10.5 
Q 14.703125 8.734375 18.5 7.8125 
Q 22.3125 6.890625 25.984375 6.890625 
Q 35.75 6.890625 40.890625 13.453125 
Q 46.046875 20.015625 46.78125 33.40625 
Q 43.953125 29.203125 39.59375 26.953125 
Q 35.25 24.703125 29.984375 24.703125 
Q 19.046875 24.703125 12.671875 31.3125 
Q 6.296875 37.9375 6.296875 49.421875 
Q 6.296875 60.640625 12.9375 67.421875 
Q 19.578125 74.21875 30.609375 74.21875 
Q 43.265625 74.21875 49.921875 64.515625 
Q 56.59375 54.828125 56.59375 36.375 
Q 56.59375 19.140625 48.40625 8.859375 
Q 40.234375 -1.421875 26.421875 -1.421875 
Q 22.703125 -1.421875 18.890625 -0.6875 
Q 15.09375 0.046875 10.984375 1.515625 
z
M 30.609375 32.421875 
Q 37.25 32.421875 41.125 36.953125 
Q 45.015625 41.5 45.015625 49.421875 
Q 45.015625 57.28125 41.125 61.84375 
Q 37.25 66.40625 30.609375 66.40625 
Q 23.96875 66.40625 20.09375 61.84375 
Q 16.21875 57.28125 16.21875 49.421875 
Q 16.21875 41.5 20.09375 36.953125 
Q 23.96875 32.421875 30.609375 32.421875 
z
" id="DejaVuSans-39"/>
     <path d="M 4.890625 31.390625 
L 31.203125 31.390625 
L 31.203125 23.390625 
L 4.890625 23.390625 
z
" id="DejaVuSans-2d"/>
     <path d="M 45.40625 27.984375 
Q 45.40625 37.75 41.375 43.109375 
Q 37.359375 48.484375 30.078125 48.484375 
Q 22.859375 48.484375 18.828125 43.109375 
Q 14.796875 37.75 14.796875 27.984375 
Q 14.796875 18.265625 18.828125 12.890625 
Q 22.859375 7.515625 30.078125 7.515625 
Q 37.359375 7.515625 41.375 12.890625 
Q 45.40625 18.265625 45.40625 27.984375 
z
M 54.390625 6.78125 
Q 54.390625 -7.171875 48.1875 -13.984375 
Q 42 -20.796875 29.203125 -20.796875 
Q 24.46875 -20.796875 20.265625 -20.09375 
Q 16.0625 -19.390625 12.109375 -17.921875 
L 12.109375 -9.1875 
Q 16.0625 -11.328125 19.921875 -12.34375 
Q 23.78125 -13.375 27.78125 -13.375 
Q 36.625 -13.375 41.015625 -8.765625 
Q 45.40625 -4.15625 45.40625 5.171875 
L 45.40625 9.625 
Q 42.625 4.78125 38.28125 2.390625 
Q 33.9375 0 27.875 0 
Q 17.828125 0 11.671875 7.65625 
Q 5.515625 15.328125 5.515625 27.984375 
Q 5.515625 40.671875 11.671875 48.328125 
Q 17.828125 56 27.875 56 
Q 33.9375 56 38.28125 53.609375 
Q 42.625 51.21875 45.40625 46.390625 
L 45.40625 54.6875 
L 54.390625 54.6875 
z
" id="DejaVuSans-67"/>
    </defs>
    <g transform="translate(124.103967 16.318125)scale(0.12 -0.12)">
     <use xlink:href="#DejaVuSans-43"/>
     <use x="69.824219" xlink:href="#DejaVuSans-6f"/>
     <use x="131.005859" xlink:href="#DejaVuSans-72"/>
     <use x="172.103516" xlink:href="#DejaVuSans-72"/>
     <use x="213.076172" xlink:href="#DejaVuSans-2e"/>
     <use x="244.863281" xlink:href="#DejaVuSans-20"/>
     <use x="276.650391" xlink:href="#DejaVuSans-6f"/>
     <use x="337.832031" xlink:href="#DejaVuSans-66"/>
     <use x="373.037109" xlink:href="#DejaVuSans-20"/>
     <use x="404.824219" xlink:href="#DejaVuSans-6e"/>
     <use x="468.203125" xlink:href="#DejaVuSans-6f"/>
     <use x="529.384766" xlink:href="#DejaVuSans-64"/>
     <use x="592.861328" xlink:href="#DejaVuSans-65"/>
     <use x="654.384766" xlink:href="#DejaVuSans-73"/>
     <use x="706.484375" xlink:href="#DejaVuSans-20"/>
     <use x="738.271484" xlink:href="#DejaVuSans-31"/>
     <use x="801.894531" xlink:href="#DejaVuSans-39"/>
     <use x="865.517578" xlink:href="#DejaVuSans-20"/>
     <use x="897.304688" xlink:href="#DejaVuSans-2d"/>
     <use x="933.388672" xlink:href="#DejaVuSans-20"/>
     <use x="965.175781" xlink:href="#DejaVuSans-32"/>
     <use x="1028.798828" xlink:href="#DejaVuSans-30"/>
     <use x="1092.421875" xlink:href="#DejaVuSans-20"/>
     <use x="1124.208984" xlink:href="#DejaVuSans-73"/>
     <use x="1176.308594" xlink:href="#DejaVuSans-65"/>
     <use x="1237.832031" xlink:href="#DejaVuSans-67"/>
     <use x="1301.308594" xlink:href="#DejaVuSans-2e"/>
    </g>
   </g>
  </g>
  <g id="axes_2">
   <g id="patch_7">
    <path d="M 407.879959 185.398125 
L 699.010394 185.398125 
L 699.010394 22.318125 
L 407.879959 22.318125 
z
" style="fill:none;"/>
   </g>
   <g id="matplotlib.axis_3">
    <g id="xtick_8">
     <g id="line2d_16">
      <g>
       <use style="stroke:#000000;stroke-width:0.8;" x="421.113161" xlink:href="#m5843f63248" y="185.398125"/>
      </g>
     </g>
     <g id="text_18">
      <!-- 0 -->
      <g transform="translate(417.931911 199.996563)scale(0.1 -0.1)">
       <use xlink:href="#DejaVuSans-30"/>
      </g>
     </g>
    </g>
    <g id="xtick_9">
     <g id="line2d_17">
      <g>
       <use style="stroke:#000000;stroke-width:0.8;" x="465.971471" xlink:href="#m5843f63248" y="185.398125"/>
      </g>
     </g>
     <g id="text_19">
      <!-- 10 -->
      <g transform="translate(459.608971 199.996563)scale(0.1 -0.1)">
       <use xlink:href="#DejaVuSans-31"/>
       <use x="63.623047" xlink:href="#DejaVuSans-30"/>
      </g>
     </g>
    </g>
    <g id="xtick_10">
     <g id="line2d_18">
      <g>
       <use style="stroke:#000000;stroke-width:0.8;" x="510.829782" xlink:href="#m5843f63248" y="185.398125"/>
      </g>
     </g>
     <g id="text_20">
      <!-- 20 -->
      <g transform="translate(504.467282 199.996563)scale(0.1 -0.1)">
       <use xlink:href="#DejaVuSans-32"/>
       <use x="63.623047" xlink:href="#DejaVuSans-30"/>
      </g>
     </g>
    </g>
    <g id="xtick_11">
     <g id="line2d_19">
      <g>
       <use style="stroke:#000000;stroke-width:0.8;" x="555.688092" xlink:href="#m5843f63248" y="185.398125"/>
      </g>
     </g>
     <g id="text_21">
      <!-- 30 -->
      <g transform="translate(549.325592 199.996563)scale(0.1 -0.1)">
       <use xlink:href="#DejaVuSans-33"/>
       <use x="63.623047" xlink:href="#DejaVuSans-30"/>
      </g>
     </g>
    </g>
    <g id="xtick_12">
     <g id="line2d_20">
      <g>
       <use style="stroke:#000000;stroke-width:0.8;" x="600.546403" xlink:href="#m5843f63248" y="185.398125"/>
      </g>
     </g>
     <g id="text_22">
      <!-- 40 -->
      <g transform="translate(594.183903 199.996563)scale(0.1 -0.1)">
       <use xlink:href="#DejaVuSans-34"/>
       <use x="63.623047" xlink:href="#DejaVuSans-30"/>
      </g>
     </g>
    </g>
    <g id="xtick_13">
     <g id="line2d_21">
      <g>
       <use style="stroke:#000000;stroke-width:0.8;" x="645.404713" xlink:href="#m5843f63248" y="185.398125"/>
      </g>
     </g>
     <g id="text_23">
      <!-- 50 -->
      <g transform="translate(639.042213 199.996563)scale(0.1 -0.1)">
       <use xlink:href="#DejaVuSans-35"/>
       <use x="63.623047" xlink:href="#DejaVuSans-30"/>
      </g>
     </g>
    </g>
    <g id="xtick_14">
     <g id="line2d_22">
      <g>
       <use style="stroke:#000000;stroke-width:0.8;" x="690.263023" xlink:href="#m5843f63248" y="185.398125"/>
      </g>
     </g>
     <g id="text_24">
      <!-- 60 -->
      <g transform="translate(683.900523 199.996563)scale(0.1 -0.1)">
       <use xlink:href="#DejaVuSans-36"/>
       <use x="63.623047" xlink:href="#DejaVuSans-30"/>
      </g>
     </g>
    </g>
    <g id="text_25">
     <!-- n_window -->
     <g transform="translate(528.806895 213.674688)scale(0.1 -0.1)">
      <use xlink:href="#DejaVuSans-6e"/>
      <use x="63.378906" xlink:href="#DejaVuSans-5f"/>
      <use x="113.378906" xlink:href="#DejaVuSans-77"/>
      <use x="195.166016" xlink:href="#DejaVuSans-69"/>
      <use x="222.949219" xlink:href="#DejaVuSans-6e"/>
      <use x="286.328125" xlink:href="#DejaVuSans-64"/>
      <use x="349.804688" xlink:href="#DejaVuSans-6f"/>
      <use x="410.986328" xlink:href="#DejaVuSans-77"/>
     </g>
    </g>
   </g>
   <g id="matplotlib.axis_4">
    <g id="ytick_8">
     <g id="line2d_23">
      <g>
       <use style="stroke:#000000;stroke-width:0.8;" x="407.879959" xlink:href="#m41106a239f" y="146.675286"/>
      </g>
     </g>
     <g id="text_26">
      <!-- −0.5 -->
      <g transform="translate(376.597147 150.474505)scale(0.1 -0.1)">
       <use xlink:href="#DejaVuSans-2212"/>
       <use x="83.789062" xlink:href="#DejaVuSans-30"/>
       <use x="147.412109" xlink:href="#DejaVuSans-2e"/>
       <use x="179.199219" xlink:href="#DejaVuSans-35"/>
      </g>
     </g>
    </g>
    <g id="ytick_9">
     <g id="line2d_24">
      <g>
       <use style="stroke:#000000;stroke-width:0.8;" x="407.879959" xlink:href="#m41106a239f" y="106.017563"/>
      </g>
     </g>
     <g id="text_27">
      <!-- 0.0 -->
      <g transform="translate(384.976834 109.816782)scale(0.1 -0.1)">
       <use xlink:href="#DejaVuSans-30"/>
       <use x="63.623047" xlink:href="#DejaVuSans-2e"/>
       <use x="95.410156" xlink:href="#DejaVuSans-30"/>
      </g>
     </g>
    </g>
    <g id="ytick_10">
     <g id="line2d_25">
      <g>
       <use style="stroke:#000000;stroke-width:0.8;" x="407.879959" xlink:href="#m41106a239f" y="65.359841"/>
      </g>
     </g>
     <g id="text_28">
      <!-- 0.5 -->
      <g transform="translate(384.976834 69.159059)scale(0.1 -0.1)">
       <use xlink:href="#DejaVuSans-30"/>
       <use x="63.623047" xlink:href="#DejaVuSans-2e"/>
       <use x="95.410156" xlink:href="#DejaVuSans-35"/>
      </g>
     </g>
    </g>
    <g id="ytick_11">
     <g id="line2d_26">
      <g>
       <use style="stroke:#000000;stroke-width:0.8;" x="407.879959" xlink:href="#m41106a239f" y="24.702118"/>
      </g>
     </g>
     <g id="text_29">
      <!-- 1.0 -->
      <g transform="translate(384.976834 28.501337)scale(0.1 -0.1)">
       <use xlink:href="#DejaVuSans-31"/>
       <use x="63.623047" xlink:href="#DejaVuSans-2e"/>
       <use x="95.410156" xlink:href="#DejaVuSans-30"/>
      </g>
     </g>
    </g>
    <g id="text_30">
     <!-- Coef. corr Pearson -->
     <g transform="translate(370.517459 149.9675)rotate(-90)scale(0.1 -0.1)">
      <use xlink:href="#DejaVuSans-43"/>
      <use x="69.824219" xlink:href="#DejaVuSans-6f"/>
      <use x="131.005859" xlink:href="#DejaVuSans-65"/>
      <use x="192.529297" xlink:href="#DejaVuSans-66"/>
      <use x="227.625" xlink:href="#DejaVuSans-2e"/>
      <use x="259.412109" xlink:href="#DejaVuSans-20"/>
      <use x="291.199219" xlink:href="#DejaVuSans-63"/>
      <use x="346.179688" xlink:href="#DejaVuSans-6f"/>
      <use x="407.361328" xlink:href="#DejaVuSans-72"/>
      <use x="448.458984" xlink:href="#DejaVuSans-72"/>
      <use x="489.572266" xlink:href="#DejaVuSans-20"/>
      <use x="521.359375" xlink:href="#DejaVuSans-50"/>
      <use x="581.615234" xlink:href="#DejaVuSans-65"/>
      <use x="643.138672" xlink:href="#DejaVuSans-61"/>
      <use x="704.417969" xlink:href="#DejaVuSans-72"/>
      <use x="745.53125" xlink:href="#DejaVuSans-73"/>
      <use x="797.630859" xlink:href="#DejaVuSans-6f"/>
      <use x="858.8125" xlink:href="#DejaVuSans-6e"/>
     </g>
    </g>
   </g>
   <g id="line2d_27">
    <path clip-path="url(#pe318ad7466)" d="M 421.113161 92.173913 
L 425.598992 176.416172 
L 430.084823 155.974367 
L 434.570654 105.153574 
L 439.056485 51.971845 
L 443.542316 83.385529 
L 448.028147 106.722852 
L 452.513978 162.618323 
L 456.999809 80.074551 
L 461.48564 37.65603 
L 465.971471 155.079538 
L 470.457302 177.985398 
L 474.943133 78.736254 
L 479.428964 81.099204 
L 483.914795 146.208065 
L 488.400626 163.316532 
L 492.886458 167.690864 
L 497.372289 151.325011 
L 501.85812 128.487233 
L 506.343951 144.634611 
L 510.829782 155.962673 
L 515.315613 80.866618 
L 519.801444 70.339768 
L 524.287275 118.653678 
L 528.773106 159.400208 
L 533.258937 67.094739 
L 537.744768 29.730852 
L 542.230599 117.462964 
L 546.71643 37.318587 
L 551.202261 53.837018 
L 555.688092 42.890371 
L 560.173923 96.093651 
L 564.659754 99.00377 
L 569.145585 136.491838 
L 573.631416 90.705287 
L 578.117247 157.305969 
L 582.603078 142.77883 
L 587.088909 130.432348 
L 591.574741 36.975604 
L 596.060572 86.378663 
L 600.546403 156.809082 
L 605.032234 156.698853 
L 609.518065 66.671384 
L 614.003896 54.073354 
L 618.489727 76.560978 
L 622.975558 131.993056 
L 627.461389 149.312625 
L 631.94722 176.140303 
L 636.433051 153.718254 
L 640.918882 31.280303 
L 645.404713 146.112636 
L 649.890544 50.49911 
L 654.376375 66.208261 
L 658.862206 149.658457 
L 663.348037 161.726793 
L 667.833868 135.526098 
L 672.319699 89.233883 
L 676.80553 140.397703 
L 681.291361 165.450562 
L 685.777192 116.2121 
" style="fill:none;stroke:#1f77b4;stroke-linecap:square;stroke-width:2;"/>
   </g>
   <g id="patch_8">
    <path d="M 407.879959 185.398125 
L 407.879959 22.318125 
" style="fill:none;stroke:#000000;stroke-linecap:square;stroke-linejoin:miter;stroke-width:0.8;"/>
   </g>
   <g id="patch_9">
    <path d="M 699.010394 185.398125 
L 699.010394 22.318125 
" style="fill:none;stroke:#000000;stroke-linecap:square;stroke-linejoin:miter;stroke-width:0.8;"/>
   </g>
   <g id="patch_10">
    <path d="M 407.879959 185.398125 
L 699.010394 185.398125 
" style="fill:none;stroke:#000000;stroke-linecap:square;stroke-linejoin:miter;stroke-width:0.8;"/>
   </g>
   <g id="patch_11">
    <path d="M 407.879959 22.318125 
L 699.010394 22.318125 
" style="fill:none;stroke:#000000;stroke-linecap:square;stroke-linejoin:miter;stroke-width:0.8;"/>
   </g>
   <g id="text_31">
    <!-- Corr. of nodes 23 - 24 seg. -->
    <g transform="translate(473.460489 16.318125)scale(0.12 -0.12)">
     <use xlink:href="#DejaVuSans-43"/>
     <use x="69.824219" xlink:href="#DejaVuSans-6f"/>
     <use x="131.005859" xlink:href="#DejaVuSans-72"/>
     <use x="172.103516" xlink:href="#DejaVuSans-72"/>
     <use x="213.076172" xlink:href="#DejaVuSans-2e"/>
     <use x="244.863281" xlink:href="#DejaVuSans-20"/>
     <use x="276.650391" xlink:href="#DejaVuSans-6f"/>
     <use x="337.832031" xlink:href="#DejaVuSans-66"/>
     <use x="373.037109" xlink:href="#DejaVuSans-20"/>
     <use x="404.824219" xlink:href="#DejaVuSans-6e"/>
     <use x="468.203125" xlink:href="#DejaVuSans-6f"/>
     <use x="529.384766" xlink:href="#DejaVuSans-64"/>
     <use x="592.861328" xlink:href="#DejaVuSans-65"/>
     <use x="654.384766" xlink:href="#DejaVuSans-73"/>
     <use x="706.484375" xlink:href="#DejaVuSans-20"/>
     <use x="738.271484" xlink:href="#DejaVuSans-32"/>
     <use x="801.894531" xlink:href="#DejaVuSans-33"/>
     <use x="865.517578" xlink:href="#DejaVuSans-20"/>
     <use x="897.304688" xlink:href="#DejaVuSans-2d"/>
     <use x="933.388672" xlink:href="#DejaVuSans-20"/>
     <use x="965.175781" xlink:href="#DejaVuSans-32"/>
     <use x="1028.798828" xlink:href="#DejaVuSans-34"/>
     <use x="1092.421875" xlink:href="#DejaVuSans-20"/>
     <use x="1124.208984" xlink:href="#DejaVuSans-73"/>
     <use x="1176.308594" xlink:href="#DejaVuSans-65"/>
     <use x="1237.832031" xlink:href="#DejaVuSans-67"/>
     <use x="1301.308594" xlink:href="#DejaVuSans-2e"/>
    </g>
   </g>
  </g>
  <g id="axes_3">
   <g id="patch_12">
    <path d="M 757.236481 185.398125 
L 1048.366916 185.398125 
L 1048.366916 22.318125 
L 757.236481 22.318125 
z
" style="fill:none;"/>
   </g>
   <g id="matplotlib.axis_5">
    <g id="xtick_15">
     <g id="line2d_28">
      <g>
       <use style="stroke:#000000;stroke-width:0.8;" x="770.469683" xlink:href="#m5843f63248" y="185.398125"/>
      </g>
     </g>
     <g id="text_32">
      <!-- 0 -->
      <g transform="translate(767.288433 199.996563)scale(0.1 -0.1)">
       <use xlink:href="#DejaVuSans-30"/>
      </g>
     </g>
    </g>
    <g id="xtick_16">
     <g id="line2d_29">
      <g>
       <use style="stroke:#000000;stroke-width:0.8;" x="815.327993" xlink:href="#m5843f63248" y="185.398125"/>
      </g>
     </g>
     <g id="text_33">
      <!-- 10 -->
      <g transform="translate(808.965493 199.996563)scale(0.1 -0.1)">
       <use xlink:href="#DejaVuSans-31"/>
       <use x="63.623047" xlink:href="#DejaVuSans-30"/>
      </g>
     </g>
    </g>
    <g id="xtick_17">
     <g id="line2d_30">
      <g>
       <use style="stroke:#000000;stroke-width:0.8;" x="860.186303" xlink:href="#m5843f63248" y="185.398125"/>
      </g>
     </g>
     <g id="text_34">
      <!-- 20 -->
      <g transform="translate(853.823803 199.996563)scale(0.1 -0.1)">
       <use xlink:href="#DejaVuSans-32"/>
       <use x="63.623047" xlink:href="#DejaVuSans-30"/>
      </g>
     </g>
    </g>
    <g id="xtick_18">
     <g id="line2d_31">
      <g>
       <use style="stroke:#000000;stroke-width:0.8;" x="905.044614" xlink:href="#m5843f63248" y="185.398125"/>
      </g>
     </g>
     <g id="text_35">
      <!-- 30 -->
      <g transform="translate(898.682114 199.996563)scale(0.1 -0.1)">
       <use xlink:href="#DejaVuSans-33"/>
       <use x="63.623047" xlink:href="#DejaVuSans-30"/>
      </g>
     </g>
    </g>
    <g id="xtick_19">
     <g id="line2d_32">
      <g>
       <use style="stroke:#000000;stroke-width:0.8;" x="949.902924" xlink:href="#m5843f63248" y="185.398125"/>
      </g>
     </g>
     <g id="text_36">
      <!-- 40 -->
      <g transform="translate(943.540424 199.996563)scale(0.1 -0.1)">
       <use xlink:href="#DejaVuSans-34"/>
       <use x="63.623047" xlink:href="#DejaVuSans-30"/>
      </g>
     </g>
    </g>
    <g id="xtick_20">
     <g id="line2d_33">
      <g>
       <use style="stroke:#000000;stroke-width:0.8;" x="994.761235" xlink:href="#m5843f63248" y="185.398125"/>
      </g>
     </g>
     <g id="text_37">
      <!-- 50 -->
      <g transform="translate(988.398735 199.996563)scale(0.1 -0.1)">
       <use xlink:href="#DejaVuSans-35"/>
       <use x="63.623047" xlink:href="#DejaVuSans-30"/>
      </g>
     </g>
    </g>
    <g id="xtick_21">
     <g id="line2d_34">
      <g>
       <use style="stroke:#000000;stroke-width:0.8;" x="1039.619545" xlink:href="#m5843f63248" y="185.398125"/>
      </g>
     </g>
     <g id="text_38">
      <!-- 60 -->
      <g transform="translate(1033.257045 199.996563)scale(0.1 -0.1)">
       <use xlink:href="#DejaVuSans-36"/>
       <use x="63.623047" xlink:href="#DejaVuSans-30"/>
      </g>
     </g>
    </g>
    <g id="text_39">
     <!-- n_window -->
     <g transform="translate(878.163417 213.674688)scale(0.1 -0.1)">
      <use xlink:href="#DejaVuSans-6e"/>
      <use x="63.378906" xlink:href="#DejaVuSans-5f"/>
      <use x="113.378906" xlink:href="#DejaVuSans-77"/>
      <use x="195.166016" xlink:href="#DejaVuSans-69"/>
      <use x="222.949219" xlink:href="#DejaVuSans-6e"/>
      <use x="286.328125" xlink:href="#DejaVuSans-64"/>
      <use x="349.804688" xlink:href="#DejaVuSans-6f"/>
      <use x="410.986328" xlink:href="#DejaVuSans-77"/>
     </g>
    </g>
   </g>
   <g id="matplotlib.axis_6">
    <g id="ytick_12">
     <g id="line2d_35">
      <g>
       <use style="stroke:#000000;stroke-width:0.8;" x="757.236481" xlink:href="#m41106a239f" y="178.185163"/>
      </g>
     </g>
     <g id="text_40">
      <!-- −1.0 -->
      <g transform="translate(725.953668 181.984382)scale(0.1 -0.1)">
       <use xlink:href="#DejaVuSans-2212"/>
       <use x="83.789062" xlink:href="#DejaVuSans-31"/>
       <use x="147.412109" xlink:href="#DejaVuSans-2e"/>
       <use x="179.199219" xlink:href="#DejaVuSans-30"/>
      </g>
     </g>
    </g>
    <g id="ytick_13">
     <g id="line2d_36">
      <g>
       <use style="stroke:#000000;stroke-width:0.8;" x="757.236481" xlink:href="#m41106a239f" y="140.204995"/>
      </g>
     </g>
     <g id="text_41">
      <!-- −0.5 -->
      <g transform="translate(725.953668 144.004214)scale(0.1 -0.1)">
       <use xlink:href="#DejaVuSans-2212"/>
       <use x="83.789062" xlink:href="#DejaVuSans-30"/>
       <use x="147.412109" xlink:href="#DejaVuSans-2e"/>
       <use x="179.199219" xlink:href="#DejaVuSans-35"/>
      </g>
     </g>
    </g>
    <g id="ytick_14">
     <g id="line2d_37">
      <g>
       <use style="stroke:#000000;stroke-width:0.8;" x="757.236481" xlink:href="#m41106a239f" y="102.224826"/>
      </g>
     </g>
     <g id="text_42">
      <!-- 0.0 -->
      <g transform="translate(734.333356 106.024045)scale(0.1 -0.1)">
       <use xlink:href="#DejaVuSans-30"/>
       <use x="63.623047" xlink:href="#DejaVuSans-2e"/>
       <use x="95.410156" xlink:href="#DejaVuSans-30"/>
      </g>
     </g>
    </g>
    <g id="ytick_15">
     <g id="line2d_38">
      <g>
       <use style="stroke:#000000;stroke-width:0.8;" x="757.236481" xlink:href="#m41106a239f" y="64.244658"/>
      </g>
     </g>
     <g id="text_43">
      <!-- 0.5 -->
      <g transform="translate(734.333356 68.043877)scale(0.1 -0.1)">
       <use xlink:href="#DejaVuSans-30"/>
       <use x="63.623047" xlink:href="#DejaVuSans-2e"/>
       <use x="95.410156" xlink:href="#DejaVuSans-35"/>
      </g>
     </g>
    </g>
    <g id="ytick_16">
     <g id="line2d_39">
      <g>
       <use style="stroke:#000000;stroke-width:0.8;" x="757.236481" xlink:href="#m41106a239f" y="26.264489"/>
      </g>
     </g>
     <g id="text_44">
      <!-- 1.0 -->
      <g transform="translate(734.333356 30.063708)scale(0.1 -0.1)">
       <use xlink:href="#DejaVuSans-31"/>
       <use x="63.623047" xlink:href="#DejaVuSans-2e"/>
       <use x="95.410156" xlink:href="#DejaVuSans-30"/>
      </g>
     </g>
    </g>
    <g id="text_45">
     <!-- Coef. corr Pearson -->
     <g transform="translate(719.873981 149.9675)rotate(-90)scale(0.1 -0.1)">
      <use xlink:href="#DejaVuSans-43"/>
      <use x="69.824219" xlink:href="#DejaVuSans-6f"/>
      <use x="131.005859" xlink:href="#DejaVuSans-65"/>
      <use x="192.529297" xlink:href="#DejaVuSans-66"/>
      <use x="227.625" xlink:href="#DejaVuSans-2e"/>
      <use x="259.412109" xlink:href="#DejaVuSans-20"/>
      <use x="291.199219" xlink:href="#DejaVuSans-63"/>
      <use x="346.179688" xlink:href="#DejaVuSans-6f"/>
      <use x="407.361328" xlink:href="#DejaVuSans-72"/>
      <use x="448.458984" xlink:href="#DejaVuSans-72"/>
      <use x="489.572266" xlink:href="#DejaVuSans-20"/>
      <use x="521.359375" xlink:href="#DejaVuSans-50"/>
      <use x="581.615234" xlink:href="#DejaVuSans-65"/>
      <use x="643.138672" xlink:href="#DejaVuSans-61"/>
      <use x="704.417969" xlink:href="#DejaVuSans-72"/>
      <use x="745.53125" xlink:href="#DejaVuSans-73"/>
      <use x="797.630859" xlink:href="#DejaVuSans-6f"/>
      <use x="858.8125" xlink:href="#DejaVuSans-6e"/>
     </g>
    </g>
   </g>
   <g id="line2d_40">
    <path clip-path="url(#p50d3569058)" d="M 770.469683 177.985398 
L 774.955514 88.132121 
L 779.441345 66.672368 
L 783.927176 78.525531 
L 788.413007 163.782231 
L 792.898838 71.995182 
L 797.384669 42.560663 
L 801.8705 95.833783 
L 806.356331 29.730852 
L 810.842162 30.549709 
L 815.327993 44.107119 
L 819.813824 58.969248 
L 824.299655 150.189223 
L 828.785486 130.315501 
L 833.271317 39.899882 
L 837.757148 105.880276 
L 842.242979 29.934024 
L 846.72881 32.590288 
L 851.214641 30.438841 
L 855.700472 50.659359 
L 860.186303 123.672353 
L 864.672134 150.945626 
L 869.157966 109.747449 
L 873.643797 100.114687 
L 878.129628 138.726415 
L 882.615459 61.392639 
L 887.10129 38.168044 
L 891.587121 99.591847 
L 896.072952 127.376235 
L 900.558783 36.965278 
L 905.044614 107.205402 
L 909.530445 56.332867 
L 914.016276 135.835588 
L 918.502107 134.551159 
L 922.987938 91.329477 
L 927.473769 83.763294 
L 931.9596 143.275394 
L 936.445431 107.653832 
L 940.931262 90.237817 
L 945.417093 121.067231 
L 949.902924 147.501245 
L 954.388755 146.792102 
L 958.874586 145.153979 
L 963.360417 42.744834 
L 967.846249 47.743951 
L 972.33208 114.65507 
L 976.817911 150.005474 
L 981.303742 117.618714 
L 985.789573 40.472708 
L 990.275404 50.768081 
L 994.761235 155.396442 
L 999.247066 154.174039 
L 1003.732897 89.093054 
L 1008.218728 142.204197 
L 1012.704559 99.757017 
L 1017.19039 75.624128 
L 1021.676221 140.695774 
L 1026.162052 135.117366 
L 1030.647883 135.628406 
L 1035.133714 141.75832 
" style="fill:none;stroke:#1f77b4;stroke-linecap:square;stroke-width:2;"/>
   </g>
   <g id="patch_13">
    <path d="M 757.236481 185.398125 
L 757.236481 22.318125 
" style="fill:none;stroke:#000000;stroke-linecap:square;stroke-linejoin:miter;stroke-width:0.8;"/>
   </g>
   <g id="patch_14">
    <path d="M 1048.366916 185.398125 
L 1048.366916 22.318125 
" style="fill:none;stroke:#000000;stroke-linecap:square;stroke-linejoin:miter;stroke-width:0.8;"/>
   </g>
   <g id="patch_15">
    <path d="M 757.236481 185.398125 
L 1048.366916 185.398125 
" style="fill:none;stroke:#000000;stroke-linecap:square;stroke-linejoin:miter;stroke-width:0.8;"/>
   </g>
   <g id="patch_16">
    <path d="M 757.236481 22.318125 
L 1048.366916 22.318125 
" style="fill:none;stroke:#000000;stroke-linecap:square;stroke-linejoin:miter;stroke-width:0.8;"/>
   </g>
   <g id="text_46">
    <!-- Corr. of nodes 13 - 14 seg. -->
    <g transform="translate(822.817011 16.318125)scale(0.12 -0.12)">
     <use xlink:href="#DejaVuSans-43"/>
     <use x="69.824219" xlink:href="#DejaVuSans-6f"/>
     <use x="131.005859" xlink:href="#DejaVuSans-72"/>
     <use x="172.103516" xlink:href="#DejaVuSans-72"/>
     <use x="213.076172" xlink:href="#DejaVuSans-2e"/>
     <use x="244.863281" xlink:href="#DejaVuSans-20"/>
     <use x="276.650391" xlink:href="#DejaVuSans-6f"/>
     <use x="337.832031" xlink:href="#DejaVuSans-66"/>
     <use x="373.037109" xlink:href="#DejaVuSans-20"/>
     <use x="404.824219" xlink:href="#DejaVuSans-6e"/>
     <use x="468.203125" xlink:href="#DejaVuSans-6f"/>
     <use x="529.384766" xlink:href="#DejaVuSans-64"/>
     <use x="592.861328" xlink:href="#DejaVuSans-65"/>
     <use x="654.384766" xlink:href="#DejaVuSans-73"/>
     <use x="706.484375" xlink:href="#DejaVuSans-20"/>
     <use x="738.271484" xlink:href="#DejaVuSans-31"/>
     <use x="801.894531" xlink:href="#DejaVuSans-33"/>
     <use x="865.517578" xlink:href="#DejaVuSans-20"/>
     <use x="897.304688" xlink:href="#DejaVuSans-2d"/>
     <use x="933.388672" xlink:href="#DejaVuSans-20"/>
     <use x="965.175781" xlink:href="#DejaVuSans-31"/>
     <use x="1028.798828" xlink:href="#DejaVuSans-34"/>
     <use x="1092.421875" xlink:href="#DejaVuSans-20"/>
     <use x="1124.208984" xlink:href="#DejaVuSans-73"/>
     <use x="1176.308594" xlink:href="#DejaVuSans-65"/>
     <use x="1237.832031" xlink:href="#DejaVuSans-67"/>
     <use x="1301.308594" xlink:href="#DejaVuSans-2e"/>
    </g>
   </g>
  </g>
  <g id="axes_4">
   <g id="patch_17">
    <path d="M 1106.593003 185.398125 
L 1397.723438 185.398125 
L 1397.723438 22.318125 
L 1106.593003 22.318125 
z
" style="fill:none;"/>
   </g>
   <g id="matplotlib.axis_7">
    <g id="xtick_22">
     <g id="line2d_41">
      <g>
       <use style="stroke:#000000;stroke-width:0.8;" x="1119.826204" xlink:href="#m5843f63248" y="185.398125"/>
      </g>
     </g>
     <g id="text_47">
      <!-- 0 -->
      <g transform="translate(1116.644954 199.996563)scale(0.1 -0.1)">
       <use xlink:href="#DejaVuSans-30"/>
      </g>
     </g>
    </g>
    <g id="xtick_23">
     <g id="line2d_42">
      <g>
       <use style="stroke:#000000;stroke-width:0.8;" x="1164.684515" xlink:href="#m5843f63248" y="185.398125"/>
      </g>
     </g>
     <g id="text_48">
      <!-- 10 -->
      <g transform="translate(1158.322015 199.996563)scale(0.1 -0.1)">
       <use xlink:href="#DejaVuSans-31"/>
       <use x="63.623047" xlink:href="#DejaVuSans-30"/>
      </g>
     </g>
    </g>
    <g id="xtick_24">
     <g id="line2d_43">
      <g>
       <use style="stroke:#000000;stroke-width:0.8;" x="1209.542825" xlink:href="#m5843f63248" y="185.398125"/>
      </g>
     </g>
     <g id="text_49">
      <!-- 20 -->
      <g transform="translate(1203.180325 199.996563)scale(0.1 -0.1)">
       <use xlink:href="#DejaVuSans-32"/>
       <use x="63.623047" xlink:href="#DejaVuSans-30"/>
      </g>
     </g>
    </g>
    <g id="xtick_25">
     <g id="line2d_44">
      <g>
       <use style="stroke:#000000;stroke-width:0.8;" x="1254.401136" xlink:href="#m5843f63248" y="185.398125"/>
      </g>
     </g>
     <g id="text_50">
      <!-- 30 -->
      <g transform="translate(1248.038636 199.996563)scale(0.1 -0.1)">
       <use xlink:href="#DejaVuSans-33"/>
       <use x="63.623047" xlink:href="#DejaVuSans-30"/>
      </g>
     </g>
    </g>
    <g id="xtick_26">
     <g id="line2d_45">
      <g>
       <use style="stroke:#000000;stroke-width:0.8;" x="1299.259446" xlink:href="#m5843f63248" y="185.398125"/>
      </g>
     </g>
     <g id="text_51">
      <!-- 40 -->
      <g transform="translate(1292.896946 199.996563)scale(0.1 -0.1)">
       <use xlink:href="#DejaVuSans-34"/>
       <use x="63.623047" xlink:href="#DejaVuSans-30"/>
      </g>
     </g>
    </g>
    <g id="xtick_27">
     <g id="line2d_46">
      <g>
       <use style="stroke:#000000;stroke-width:0.8;" x="1344.117757" xlink:href="#m5843f63248" y="185.398125"/>
      </g>
     </g>
     <g id="text_52">
      <!-- 50 -->
      <g transform="translate(1337.755257 199.996563)scale(0.1 -0.1)">
       <use xlink:href="#DejaVuSans-35"/>
       <use x="63.623047" xlink:href="#DejaVuSans-30"/>
      </g>
     </g>
    </g>
    <g id="xtick_28">
     <g id="line2d_47">
      <g>
       <use style="stroke:#000000;stroke-width:0.8;" x="1388.976067" xlink:href="#m5843f63248" y="185.398125"/>
      </g>
     </g>
     <g id="text_53">
      <!-- 60 -->
      <g transform="translate(1382.613567 199.996563)scale(0.1 -0.1)">
       <use xlink:href="#DejaVuSans-36"/>
       <use x="63.623047" xlink:href="#DejaVuSans-30"/>
      </g>
     </g>
    </g>
    <g id="text_54">
     <!-- n_window -->
     <g transform="translate(1227.519939 213.674688)scale(0.1 -0.1)">
      <use xlink:href="#DejaVuSans-6e"/>
      <use x="63.378906" xlink:href="#DejaVuSans-5f"/>
      <use x="113.378906" xlink:href="#DejaVuSans-77"/>
      <use x="195.166016" xlink:href="#DejaVuSans-69"/>
      <use x="222.949219" xlink:href="#DejaVuSans-6e"/>
      <use x="286.328125" xlink:href="#DejaVuSans-64"/>
      <use x="349.804688" xlink:href="#DejaVuSans-6f"/>
      <use x="410.986328" xlink:href="#DejaVuSans-77"/>
     </g>
    </g>
   </g>
   <g id="matplotlib.axis_8">
    <g id="ytick_17">
     <g id="line2d_48">
      <g>
       <use style="stroke:#000000;stroke-width:0.8;" x="1106.593003" xlink:href="#m41106a239f" y="182.022724"/>
      </g>
     </g>
     <g id="text_55">
      <!-- −1.0 -->
      <g transform="translate(1075.31019 185.821943)scale(0.1 -0.1)">
       <use xlink:href="#DejaVuSans-2212"/>
       <use x="83.789062" xlink:href="#DejaVuSans-31"/>
       <use x="147.412109" xlink:href="#DejaVuSans-2e"/>
       <use x="179.199219" xlink:href="#DejaVuSans-30"/>
      </g>
     </g>
    </g>
    <g id="ytick_18">
     <g id="line2d_49">
      <g>
       <use style="stroke:#000000;stroke-width:0.8;" x="1106.593003" xlink:href="#m41106a239f" y="141.288611"/>
      </g>
     </g>
     <g id="text_56">
      <!-- −0.5 -->
      <g transform="translate(1075.31019 145.08783)scale(0.1 -0.1)">
       <use xlink:href="#DejaVuSans-2212"/>
       <use x="83.789062" xlink:href="#DejaVuSans-30"/>
       <use x="147.412109" xlink:href="#DejaVuSans-2e"/>
       <use x="179.199219" xlink:href="#DejaVuSans-35"/>
      </g>
     </g>
    </g>
    <g id="ytick_19">
     <g id="line2d_50">
      <g>
       <use style="stroke:#000000;stroke-width:0.8;" x="1106.593003" xlink:href="#m41106a239f" y="100.554499"/>
      </g>
     </g>
     <g id="text_57">
      <!-- 0.0 -->
      <g transform="translate(1083.689878 104.353718)scale(0.1 -0.1)">
       <use xlink:href="#DejaVuSans-30"/>
       <use x="63.623047" xlink:href="#DejaVuSans-2e"/>
       <use x="95.410156" xlink:href="#DejaVuSans-30"/>
      </g>
     </g>
    </g>
    <g id="ytick_20">
     <g id="line2d_51">
      <g>
       <use style="stroke:#000000;stroke-width:0.8;" x="1106.593003" xlink:href="#m41106a239f" y="59.820386"/>
      </g>
     </g>
     <g id="text_58">
      <!-- 0.5 -->
      <g transform="translate(1083.689878 63.619605)scale(0.1 -0.1)">
       <use xlink:href="#DejaVuSans-30"/>
       <use x="63.623047" xlink:href="#DejaVuSans-2e"/>
       <use x="95.410156" xlink:href="#DejaVuSans-35"/>
      </g>
     </g>
    </g>
    <g id="text_59">
     <!-- Coef. corr Pearson -->
     <g transform="translate(1069.230503 149.9675)rotate(-90)scale(0.1 -0.1)">
      <use xlink:href="#DejaVuSans-43"/>
      <use x="69.824219" xlink:href="#DejaVuSans-6f"/>
      <use x="131.005859" xlink:href="#DejaVuSans-65"/>
      <use x="192.529297" xlink:href="#DejaVuSans-66"/>
      <use x="227.625" xlink:href="#DejaVuSans-2e"/>
      <use x="259.412109" xlink:href="#DejaVuSans-20"/>
      <use x="291.199219" xlink:href="#DejaVuSans-63"/>
      <use x="346.179688" xlink:href="#DejaVuSans-6f"/>
      <use x="407.361328" xlink:href="#DejaVuSans-72"/>
      <use x="448.458984" xlink:href="#DejaVuSans-72"/>
      <use x="489.572266" xlink:href="#DejaVuSans-20"/>
      <use x="521.359375" xlink:href="#DejaVuSans-50"/>
      <use x="581.615234" xlink:href="#DejaVuSans-65"/>
      <use x="643.138672" xlink:href="#DejaVuSans-61"/>
      <use x="704.417969" xlink:href="#DejaVuSans-72"/>
      <use x="745.53125" xlink:href="#DejaVuSans-73"/>
      <use x="797.630859" xlink:href="#DejaVuSans-6f"/>
      <use x="858.8125" xlink:href="#DejaVuSans-6e"/>
     </g>
    </g>
   </g>
   <g id="line2d_52">
    <path clip-path="url(#p0264e9d262)" d="M 1119.826204 119.482181 
L 1124.312035 94.390646 
L 1128.797866 117.441324 
L 1133.283697 101.1431 
L 1137.769528 89.159176 
L 1142.25536 70.834113 
L 1146.741191 141.287227 
L 1151.227022 108.066851 
L 1155.712853 84.43603 
L 1160.198684 70.594195 
L 1164.684515 29.730852 
L 1169.170346 36.425903 
L 1173.656177 44.972971 
L 1178.142008 146.59959 
L 1182.627839 123.646987 
L 1187.11367 101.883241 
L 1191.599501 34.342601 
L 1196.085332 170.50015 
L 1200.571163 164.452353 
L 1205.056994 167.530965 
L 1209.542825 146.111532 
L 1214.028656 129.103705 
L 1218.514487 119.334687 
L 1223.000318 117.224243 
L 1227.486149 128.92225 
L 1231.97198 50.42601 
L 1236.457811 149.874972 
L 1240.943642 69.629579 
L 1245.429474 84.881256 
L 1249.915305 142.779922 
L 1254.401136 165.15853 
L 1258.886967 146.446255 
L 1263.372798 135.422218 
L 1267.858629 154.731982 
L 1272.34446 90.023409 
L 1276.830291 107.100667 
L 1281.316122 67.470609 
L 1285.801953 92.827489 
L 1290.287784 167.135619 
L 1294.773615 176.324638 
L 1299.259446 174.409975 
L 1303.745277 158.597816 
L 1308.231108 142.422885 
L 1312.716939 159.268087 
L 1317.20277 49.234957 
L 1321.688601 96.842256 
L 1326.174432 132.828034 
L 1330.660263 103.089809 
L 1335.146094 49.302095 
L 1339.631925 121.002999 
L 1344.117757 126.509959 
L 1348.603588 145.198671 
L 1353.089419 106.92731 
L 1357.57525 91.056925 
L 1362.061081 157.757231 
L 1366.546912 157.747337 
L 1371.032743 151.800055 
L 1375.518574 149.283901 
L 1380.004405 177.486249 
L 1384.490236 177.985398 
" style="fill:none;stroke:#1f77b4;stroke-linecap:square;stroke-width:2;"/>
   </g>
   <g id="patch_18">
    <path d="M 1106.593003 185.398125 
L 1106.593003 22.318125 
" style="fill:none;stroke:#000000;stroke-linecap:square;stroke-linejoin:miter;stroke-width:0.8;"/>
   </g>
   <g id="patch_19">
    <path d="M 1397.723438 185.398125 
L 1397.723438 22.318125 
" style="fill:none;stroke:#000000;stroke-linecap:square;stroke-linejoin:miter;stroke-width:0.8;"/>
   </g>
   <g id="patch_20">
    <path d="M 1106.593003 185.398125 
L 1397.723438 185.398125 
" style="fill:none;stroke:#000000;stroke-linecap:square;stroke-linejoin:miter;stroke-width:0.8;"/>
   </g>
   <g id="patch_21">
    <path d="M 1106.593003 22.318125 
L 1397.723438 22.318125 
" style="fill:none;stroke:#000000;stroke-linecap:square;stroke-linejoin:miter;stroke-width:0.8;"/>
   </g>
   <g id="text_60">
    <!-- Corr. of nodes 6 - 7 seg. -->
    <g transform="translate(1179.808533 16.318125)scale(0.12 -0.12)">
     <use xlink:href="#DejaVuSans-43"/>
     <use x="69.824219" xlink:href="#DejaVuSans-6f"/>
     <use x="131.005859" xlink:href="#DejaVuSans-72"/>
     <use x="172.103516" xlink:href="#DejaVuSans-72"/>
     <use x="213.076172" xlink:href="#DejaVuSans-2e"/>
     <use x="244.863281" xlink:href="#DejaVuSans-20"/>
     <use x="276.650391" xlink:href="#DejaVuSans-6f"/>
     <use x="337.832031" xlink:href="#DejaVuSans-66"/>
     <use x="373.037109" xlink:href="#DejaVuSans-20"/>
     <use x="404.824219" xlink:href="#DejaVuSans-6e"/>
     <use x="468.203125" xlink:href="#DejaVuSans-6f"/>
     <use x="529.384766" xlink:href="#DejaVuSans-64"/>
     <use x="592.861328" xlink:href="#DejaVuSans-65"/>
     <use x="654.384766" xlink:href="#DejaVuSans-73"/>
     <use x="706.484375" xlink:href="#DejaVuSans-20"/>
     <use x="738.271484" xlink:href="#DejaVuSans-36"/>
     <use x="801.894531" xlink:href="#DejaVuSans-20"/>
     <use x="833.681641" xlink:href="#DejaVuSans-2d"/>
     <use x="869.765625" xlink:href="#DejaVuSans-20"/>
     <use x="901.552734" xlink:href="#DejaVuSans-37"/>
     <use x="965.175781" xlink:href="#DejaVuSans-20"/>
     <use x="996.962891" xlink:href="#DejaVuSans-73"/>
     <use x="1049.0625" xlink:href="#DejaVuSans-65"/>
     <use x="1110.585938" xlink:href="#DejaVuSans-67"/>
     <use x="1174.0625" xlink:href="#DejaVuSans-2e"/>
    </g>
   </g>
  </g>
 </g>
 <defs>
  <clipPath id="p5faa74650f">
   <rect height="163.08" width="291.130435" x="58.523438" y="22.318125"/>
  </clipPath>
  <clipPath id="pe318ad7466">
   <rect height="163.08" width="291.130435" x="407.879959" y="22.318125"/>
  </clipPath>
  <clipPath id="p50d3569058">
   <rect height="163.08" width="291.130435" x="757.236481" y="22.318125"/>
  </clipPath>
  <clipPath id="p0264e9d262">
   <rect height="163.08" width="291.130435" x="1106.593003" y="22.318125"/>
  </clipPath>
 </defs>
</svg>
