<?xml version="1.0" encoding="utf-8" standalone="no"?>
<!DOCTYPE svg PUBLIC "-//W3C//DTD SVG 1.1//EN"
  "http://www.w3.org/Graphics/SVG/1.1/DTD/svg11.dtd">
<!-- Created with matplotlib (http://matplotlib.org/) -->
<svg height="223.2325pt" version="1.1" viewBox="0 0 1408.423438 223.2325" width="1408.423438pt" xmlns="http://www.w3.org/2000/svg" xmlns:xlink="http://www.w3.org/1999/xlink">
 <defs>
  <style type="text/css">
*{stroke-linecap:butt;stroke-linejoin:round;}
  </style>
 </defs>
 <g id="figure_1">
  <g id="patch_1">
   <path d="M 0 223.2325 
L 1408.423438 223.2325 
L 1408.423438 0 
L 0 0 
z
" style="fill:#ffffff;"/>
  </g>
  <g id="axes_1">
   <g id="patch_2">
    <path d="M 58.523438 185.398125 
L 349.653872 185.398125 
L 349.653872 22.318125 
L 58.523438 22.318125 
z
" style="fill:none;"/>
   </g>
   <g id="matplotlib.axis_1">
    <g id="xtick_1">
     <g id="line2d_1">
      <defs>
       <path d="M 0 0 
L 0 3.5 
" id="mc7aa4599b0" style="stroke:#000000;stroke-width:0.8;"/>
      </defs>
      <g>
       <use style="stroke:#000000;stroke-width:0.8;" x="71.756639" xlink:href="#mc7aa4599b0" y="185.398125"/>
      </g>
     </g>
     <g id="text_1">
      <!-- 0 -->
      <defs>
       <path d="M 31.78125 66.40625 
Q 24.171875 66.40625 20.328125 58.90625 
Q 16.5 51.421875 16.5 36.375 
Q 16.5 21.390625 20.328125 13.890625 
Q 24.171875 6.390625 31.78125 6.390625 
Q 39.453125 6.390625 43.28125 13.890625 
Q 47.125 21.390625 47.125 36.375 
Q 47.125 51.421875 43.28125 58.90625 
Q 39.453125 66.40625 31.78125 66.40625 
z
M 31.78125 74.21875 
Q 44.046875 74.21875 50.515625 64.515625 
Q 56.984375 54.828125 56.984375 36.375 
Q 56.984375 17.96875 50.515625 8.265625 
Q 44.046875 -1.421875 31.78125 -1.421875 
Q 19.53125 -1.421875 13.0625 8.265625 
Q 6.59375 17.96875 6.59375 36.375 
Q 6.59375 54.828125 13.0625 64.515625 
Q 19.53125 74.21875 31.78125 74.21875 
z
" id="DejaVuSans-30"/>
      </defs>
      <g transform="translate(68.575389 199.996563)scale(0.1 -0.1)">
       <use xlink:href="#DejaVuSans-30"/>
      </g>
     </g>
    </g>
    <g id="xtick_2">
     <g id="line2d_2">
      <g>
       <use style="stroke:#000000;stroke-width:0.8;" x="109.565786" xlink:href="#mc7aa4599b0" y="185.398125"/>
      </g>
     </g>
     <g id="text_2">
      <!-- 5 -->
      <defs>
       <path d="M 10.796875 72.90625 
L 49.515625 72.90625 
L 49.515625 64.59375 
L 19.828125 64.59375 
L 19.828125 46.734375 
Q 21.96875 47.46875 24.109375 47.828125 
Q 26.265625 48.1875 28.421875 48.1875 
Q 40.625 48.1875 47.75 41.5 
Q 54.890625 34.8125 54.890625 23.390625 
Q 54.890625 11.625 47.5625 5.09375 
Q 40.234375 -1.421875 26.90625 -1.421875 
Q 22.3125 -1.421875 17.546875 -0.640625 
Q 12.796875 0.140625 7.71875 1.703125 
L 7.71875 11.625 
Q 12.109375 9.234375 16.796875 8.0625 
Q 21.484375 6.890625 26.703125 6.890625 
Q 35.15625 6.890625 40.078125 11.328125 
Q 45.015625 15.765625 45.015625 23.390625 
Q 45.015625 31 40.078125 35.4375 
Q 35.15625 39.890625 26.703125 39.890625 
Q 22.75 39.890625 18.8125 39.015625 
Q 14.890625 38.140625 10.796875 36.28125 
z
" id="DejaVuSans-35"/>
      </defs>
      <g transform="translate(106.384536 199.996563)scale(0.1 -0.1)">
       <use xlink:href="#DejaVuSans-35"/>
      </g>
     </g>
    </g>
    <g id="xtick_3">
     <g id="line2d_3">
      <g>
       <use style="stroke:#000000;stroke-width:0.8;" x="147.374934" xlink:href="#mc7aa4599b0" y="185.398125"/>
      </g>
     </g>
     <g id="text_3">
      <!-- 10 -->
      <defs>
       <path d="M 12.40625 8.296875 
L 28.515625 8.296875 
L 28.515625 63.921875 
L 10.984375 60.40625 
L 10.984375 69.390625 
L 28.421875 72.90625 
L 38.28125 72.90625 
L 38.28125 8.296875 
L 54.390625 8.296875 
L 54.390625 0 
L 12.40625 0 
z
" id="DejaVuSans-31"/>
      </defs>
      <g transform="translate(141.012434 199.996563)scale(0.1 -0.1)">
       <use xlink:href="#DejaVuSans-31"/>
       <use x="63.623047" xlink:href="#DejaVuSans-30"/>
      </g>
     </g>
    </g>
    <g id="xtick_4">
     <g id="line2d_4">
      <g>
       <use style="stroke:#000000;stroke-width:0.8;" x="185.184081" xlink:href="#mc7aa4599b0" y="185.398125"/>
      </g>
     </g>
     <g id="text_4">
      <!-- 15 -->
      <g transform="translate(178.821581 199.996563)scale(0.1 -0.1)">
       <use xlink:href="#DejaVuSans-31"/>
       <use x="63.623047" xlink:href="#DejaVuSans-35"/>
      </g>
     </g>
    </g>
    <g id="xtick_5">
     <g id="line2d_5">
      <g>
       <use style="stroke:#000000;stroke-width:0.8;" x="222.993229" xlink:href="#mc7aa4599b0" y="185.398125"/>
      </g>
     </g>
     <g id="text_5">
      <!-- 20 -->
      <defs>
       <path d="M 19.1875 8.296875 
L 53.609375 8.296875 
L 53.609375 0 
L 7.328125 0 
L 7.328125 8.296875 
Q 12.9375 14.109375 22.625 23.890625 
Q 32.328125 33.6875 34.8125 36.53125 
Q 39.546875 41.84375 41.421875 45.53125 
Q 43.3125 49.21875 43.3125 52.78125 
Q 43.3125 58.59375 39.234375 62.25 
Q 35.15625 65.921875 28.609375 65.921875 
Q 23.96875 65.921875 18.8125 64.3125 
Q 13.671875 62.703125 7.8125 59.421875 
L 7.8125 69.390625 
Q 13.765625 71.78125 18.9375 73 
Q 24.125 74.21875 28.421875 74.21875 
Q 39.75 74.21875 46.484375 68.546875 
Q 53.21875 62.890625 53.21875 53.421875 
Q 53.21875 48.921875 51.53125 44.890625 
Q 49.859375 40.875 45.40625 35.40625 
Q 44.1875 33.984375 37.640625 27.21875 
Q 31.109375 20.453125 19.1875 8.296875 
z
" id="DejaVuSans-32"/>
      </defs>
      <g transform="translate(216.630729 199.996563)scale(0.1 -0.1)">
       <use xlink:href="#DejaVuSans-32"/>
       <use x="63.623047" xlink:href="#DejaVuSans-30"/>
      </g>
     </g>
    </g>
    <g id="xtick_6">
     <g id="line2d_6">
      <g>
       <use style="stroke:#000000;stroke-width:0.8;" x="260.802376" xlink:href="#mc7aa4599b0" y="185.398125"/>
      </g>
     </g>
     <g id="text_6">
      <!-- 25 -->
      <g transform="translate(254.439876 199.996563)scale(0.1 -0.1)">
       <use xlink:href="#DejaVuSans-32"/>
       <use x="63.623047" xlink:href="#DejaVuSans-35"/>
      </g>
     </g>
    </g>
    <g id="xtick_7">
     <g id="line2d_7">
      <g>
       <use style="stroke:#000000;stroke-width:0.8;" x="298.611523" xlink:href="#mc7aa4599b0" y="185.398125"/>
      </g>
     </g>
     <g id="text_7">
      <!-- 30 -->
      <defs>
       <path d="M 40.578125 39.3125 
Q 47.65625 37.796875 51.625 33 
Q 55.609375 28.21875 55.609375 21.1875 
Q 55.609375 10.40625 48.1875 4.484375 
Q 40.765625 -1.421875 27.09375 -1.421875 
Q 22.515625 -1.421875 17.65625 -0.515625 
Q 12.796875 0.390625 7.625 2.203125 
L 7.625 11.71875 
Q 11.71875 9.328125 16.59375 8.109375 
Q 21.484375 6.890625 26.8125 6.890625 
Q 36.078125 6.890625 40.9375 10.546875 
Q 45.796875 14.203125 45.796875 21.1875 
Q 45.796875 27.640625 41.28125 31.265625 
Q 36.765625 34.90625 28.71875 34.90625 
L 20.21875 34.90625 
L 20.21875 43.015625 
L 29.109375 43.015625 
Q 36.375 43.015625 40.234375 45.921875 
Q 44.09375 48.828125 44.09375 54.296875 
Q 44.09375 59.90625 40.109375 62.90625 
Q 36.140625 65.921875 28.71875 65.921875 
Q 24.65625 65.921875 20.015625 65.03125 
Q 15.375 64.15625 9.8125 62.3125 
L 9.8125 71.09375 
Q 15.4375 72.65625 20.34375 73.4375 
Q 25.25 74.21875 29.59375 74.21875 
Q 40.828125 74.21875 47.359375 69.109375 
Q 53.90625 64.015625 53.90625 55.328125 
Q 53.90625 49.265625 50.4375 45.09375 
Q 46.96875 40.921875 40.578125 39.3125 
z
" id="DejaVuSans-33"/>
      </defs>
      <g transform="translate(292.249023 199.996563)scale(0.1 -0.1)">
       <use xlink:href="#DejaVuSans-33"/>
       <use x="63.623047" xlink:href="#DejaVuSans-30"/>
      </g>
     </g>
    </g>
    <g id="xtick_8">
     <g id="line2d_8">
      <g>
       <use style="stroke:#000000;stroke-width:0.8;" x="336.420671" xlink:href="#mc7aa4599b0" y="185.398125"/>
      </g>
     </g>
     <g id="text_8">
      <!-- 35 -->
      <g transform="translate(330.058171 199.996563)scale(0.1 -0.1)">
       <use xlink:href="#DejaVuSans-33"/>
       <use x="63.623047" xlink:href="#DejaVuSans-35"/>
      </g>
     </g>
    </g>
    <g id="text_9">
     <!-- n_window -->
     <defs>
      <path d="M 54.890625 33.015625 
L 54.890625 0 
L 45.90625 0 
L 45.90625 32.71875 
Q 45.90625 40.484375 42.875 44.328125 
Q 39.84375 48.1875 33.796875 48.1875 
Q 26.515625 48.1875 22.3125 43.546875 
Q 18.109375 38.921875 18.109375 30.90625 
L 18.109375 0 
L 9.078125 0 
L 9.078125 54.6875 
L 18.109375 54.6875 
L 18.109375 46.1875 
Q 21.34375 51.125 25.703125 53.5625 
Q 30.078125 56 35.796875 56 
Q 45.21875 56 50.046875 50.171875 
Q 54.890625 44.34375 54.890625 33.015625 
z
" id="DejaVuSans-6e"/>
      <path d="M 50.984375 -16.609375 
L 50.984375 -23.578125 
L -0.984375 -23.578125 
L -0.984375 -16.609375 
z
" id="DejaVuSans-5f"/>
      <path d="M 4.203125 54.6875 
L 13.1875 54.6875 
L 24.421875 12.015625 
L 35.59375 54.6875 
L 46.1875 54.6875 
L 57.421875 12.015625 
L 68.609375 54.6875 
L 77.59375 54.6875 
L 63.28125 0 
L 52.6875 0 
L 40.921875 44.828125 
L 29.109375 0 
L 18.5 0 
z
" id="DejaVuSans-77"/>
      <path d="M 9.421875 54.6875 
L 18.40625 54.6875 
L 18.40625 0 
L 9.421875 0 
z
M 9.421875 75.984375 
L 18.40625 75.984375 
L 18.40625 64.59375 
L 9.421875 64.59375 
z
" id="DejaVuSans-69"/>
      <path d="M 45.40625 46.390625 
L 45.40625 75.984375 
L 54.390625 75.984375 
L 54.390625 0 
L 45.40625 0 
L 45.40625 8.203125 
Q 42.578125 3.328125 38.25 0.953125 
Q 33.9375 -1.421875 27.875 -1.421875 
Q 17.96875 -1.421875 11.734375 6.484375 
Q 5.515625 14.40625 5.515625 27.296875 
Q 5.515625 40.1875 11.734375 48.09375 
Q 17.96875 56 27.875 56 
Q 33.9375 56 38.25 53.625 
Q 42.578125 51.265625 45.40625 46.390625 
z
M 14.796875 27.296875 
Q 14.796875 17.390625 18.875 11.75 
Q 22.953125 6.109375 30.078125 6.109375 
Q 37.203125 6.109375 41.296875 11.75 
Q 45.40625 17.390625 45.40625 27.296875 
Q 45.40625 37.203125 41.296875 42.84375 
Q 37.203125 48.484375 30.078125 48.484375 
Q 22.953125 48.484375 18.875 42.84375 
Q 14.796875 37.203125 14.796875 27.296875 
z
" id="DejaVuSans-64"/>
      <path d="M 30.609375 48.390625 
Q 23.390625 48.390625 19.1875 42.75 
Q 14.984375 37.109375 14.984375 27.296875 
Q 14.984375 17.484375 19.15625 11.84375 
Q 23.34375 6.203125 30.609375 6.203125 
Q 37.796875 6.203125 41.984375 11.859375 
Q 46.1875 17.53125 46.1875 27.296875 
Q 46.1875 37.015625 41.984375 42.703125 
Q 37.796875 48.390625 30.609375 48.390625 
z
M 30.609375 56 
Q 42.328125 56 49.015625 48.375 
Q 55.71875 40.765625 55.71875 27.296875 
Q 55.71875 13.875 49.015625 6.21875 
Q 42.328125 -1.421875 30.609375 -1.421875 
Q 18.84375 -1.421875 12.171875 6.21875 
Q 5.515625 13.875 5.515625 27.296875 
Q 5.515625 40.765625 12.171875 48.375 
Q 18.84375 56 30.609375 56 
z
" id="DejaVuSans-6f"/>
     </defs>
     <g transform="translate(179.450374 213.674688)scale(0.1 -0.1)">
      <use xlink:href="#DejaVuSans-6e"/>
      <use x="63.378906" xlink:href="#DejaVuSans-5f"/>
      <use x="113.378906" xlink:href="#DejaVuSans-77"/>
      <use x="195.166016" xlink:href="#DejaVuSans-69"/>
      <use x="222.949219" xlink:href="#DejaVuSans-6e"/>
      <use x="286.328125" xlink:href="#DejaVuSans-64"/>
      <use x="349.804688" xlink:href="#DejaVuSans-6f"/>
      <use x="410.986328" xlink:href="#DejaVuSans-77"/>
     </g>
    </g>
   </g>
   <g id="matplotlib.axis_2">
    <g id="ytick_1">
     <g id="line2d_9">
      <defs>
       <path d="M 0 0 
L -3.5 0 
" id="m1f0878af03" style="stroke:#000000;stroke-width:0.8;"/>
      </defs>
      <g>
       <use style="stroke:#000000;stroke-width:0.8;" x="58.523438" xlink:href="#m1f0878af03" y="173.10882"/>
      </g>
     </g>
     <g id="text_10">
      <!-- −0.75 -->
      <defs>
       <path d="M 10.59375 35.5 
L 73.1875 35.5 
L 73.1875 27.203125 
L 10.59375 27.203125 
z
" id="DejaVuSans-2212"/>
       <path d="M 10.6875 12.40625 
L 21 12.40625 
L 21 0 
L 10.6875 0 
z
" id="DejaVuSans-2e"/>
       <path d="M 8.203125 72.90625 
L 55.078125 72.90625 
L 55.078125 68.703125 
L 28.609375 0 
L 18.3125 0 
L 43.21875 64.59375 
L 8.203125 64.59375 
z
" id="DejaVuSans-37"/>
      </defs>
      <g transform="translate(20.878125 176.908039)scale(0.1 -0.1)">
       <use xlink:href="#DejaVuSans-2212"/>
       <use x="83.789062" xlink:href="#DejaVuSans-30"/>
       <use x="147.412109" xlink:href="#DejaVuSans-2e"/>
       <use x="179.199219" xlink:href="#DejaVuSans-37"/>
       <use x="242.822266" xlink:href="#DejaVuSans-35"/>
      </g>
     </g>
    </g>
    <g id="ytick_2">
     <g id="line2d_10">
      <g>
       <use style="stroke:#000000;stroke-width:0.8;" x="58.523438" xlink:href="#m1f0878af03" y="149.294933"/>
      </g>
     </g>
     <g id="text_11">
      <!-- −0.50 -->
      <g transform="translate(20.878125 153.094151)scale(0.1 -0.1)">
       <use xlink:href="#DejaVuSans-2212"/>
       <use x="83.789062" xlink:href="#DejaVuSans-30"/>
       <use x="147.412109" xlink:href="#DejaVuSans-2e"/>
       <use x="179.199219" xlink:href="#DejaVuSans-35"/>
       <use x="242.822266" xlink:href="#DejaVuSans-30"/>
      </g>
     </g>
    </g>
    <g id="ytick_3">
     <g id="line2d_11">
      <g>
       <use style="stroke:#000000;stroke-width:0.8;" x="58.523438" xlink:href="#m1f0878af03" y="125.481045"/>
      </g>
     </g>
     <g id="text_12">
      <!-- −0.25 -->
      <g transform="translate(20.878125 129.280264)scale(0.1 -0.1)">
       <use xlink:href="#DejaVuSans-2212"/>
       <use x="83.789062" xlink:href="#DejaVuSans-30"/>
       <use x="147.412109" xlink:href="#DejaVuSans-2e"/>
       <use x="179.199219" xlink:href="#DejaVuSans-32"/>
       <use x="242.822266" xlink:href="#DejaVuSans-35"/>
      </g>
     </g>
    </g>
    <g id="ytick_4">
     <g id="line2d_12">
      <g>
       <use style="stroke:#000000;stroke-width:0.8;" x="58.523438" xlink:href="#m1f0878af03" y="101.667158"/>
      </g>
     </g>
     <g id="text_13">
      <!-- 0.00 -->
      <g transform="translate(29.257812 105.466377)scale(0.1 -0.1)">
       <use xlink:href="#DejaVuSans-30"/>
       <use x="63.623047" xlink:href="#DejaVuSans-2e"/>
       <use x="95.410156" xlink:href="#DejaVuSans-30"/>
       <use x="159.033203" xlink:href="#DejaVuSans-30"/>
      </g>
     </g>
    </g>
    <g id="ytick_5">
     <g id="line2d_13">
      <g>
       <use style="stroke:#000000;stroke-width:0.8;" x="58.523438" xlink:href="#m1f0878af03" y="77.85327"/>
      </g>
     </g>
     <g id="text_14">
      <!-- 0.25 -->
      <g transform="translate(29.257812 81.652489)scale(0.1 -0.1)">
       <use xlink:href="#DejaVuSans-30"/>
       <use x="63.623047" xlink:href="#DejaVuSans-2e"/>
       <use x="95.410156" xlink:href="#DejaVuSans-32"/>
       <use x="159.033203" xlink:href="#DejaVuSans-35"/>
      </g>
     </g>
    </g>
    <g id="ytick_6">
     <g id="line2d_14">
      <g>
       <use style="stroke:#000000;stroke-width:0.8;" x="58.523438" xlink:href="#m1f0878af03" y="54.039383"/>
      </g>
     </g>
     <g id="text_15">
      <!-- 0.50 -->
      <g transform="translate(29.257812 57.838602)scale(0.1 -0.1)">
       <use xlink:href="#DejaVuSans-30"/>
       <use x="63.623047" xlink:href="#DejaVuSans-2e"/>
       <use x="95.410156" xlink:href="#DejaVuSans-35"/>
       <use x="159.033203" xlink:href="#DejaVuSans-30"/>
      </g>
     </g>
    </g>
    <g id="ytick_7">
     <g id="line2d_15">
      <g>
       <use style="stroke:#000000;stroke-width:0.8;" x="58.523438" xlink:href="#m1f0878af03" y="30.225496"/>
      </g>
     </g>
     <g id="text_16">
      <!-- 0.75 -->
      <g transform="translate(29.257812 34.024714)scale(0.1 -0.1)">
       <use xlink:href="#DejaVuSans-30"/>
       <use x="63.623047" xlink:href="#DejaVuSans-2e"/>
       <use x="95.410156" xlink:href="#DejaVuSans-37"/>
       <use x="159.033203" xlink:href="#DejaVuSans-35"/>
      </g>
     </g>
    </g>
    <g id="text_17">
     <!-- Coef. corr Pearson -->
     <defs>
      <path d="M 64.40625 67.28125 
L 64.40625 56.890625 
Q 59.421875 61.53125 53.78125 63.8125 
Q 48.140625 66.109375 41.796875 66.109375 
Q 29.296875 66.109375 22.65625 58.46875 
Q 16.015625 50.828125 16.015625 36.375 
Q 16.015625 21.96875 22.65625 14.328125 
Q 29.296875 6.6875 41.796875 6.6875 
Q 48.140625 6.6875 53.78125 8.984375 
Q 59.421875 11.28125 64.40625 15.921875 
L 64.40625 5.609375 
Q 59.234375 2.09375 53.4375 0.328125 
Q 47.65625 -1.421875 41.21875 -1.421875 
Q 24.65625 -1.421875 15.125 8.703125 
Q 5.609375 18.84375 5.609375 36.375 
Q 5.609375 53.953125 15.125 64.078125 
Q 24.65625 74.21875 41.21875 74.21875 
Q 47.75 74.21875 53.53125 72.484375 
Q 59.328125 70.75 64.40625 67.28125 
z
" id="DejaVuSans-43"/>
      <path d="M 56.203125 29.59375 
L 56.203125 25.203125 
L 14.890625 25.203125 
Q 15.484375 15.921875 20.484375 11.0625 
Q 25.484375 6.203125 34.421875 6.203125 
Q 39.59375 6.203125 44.453125 7.46875 
Q 49.3125 8.734375 54.109375 11.28125 
L 54.109375 2.78125 
Q 49.265625 0.734375 44.1875 -0.34375 
Q 39.109375 -1.421875 33.890625 -1.421875 
Q 20.796875 -1.421875 13.15625 6.1875 
Q 5.515625 13.8125 5.515625 26.8125 
Q 5.515625 40.234375 12.765625 48.109375 
Q 20.015625 56 32.328125 56 
Q 43.359375 56 49.78125 48.890625 
Q 56.203125 41.796875 56.203125 29.59375 
z
M 47.21875 32.234375 
Q 47.125 39.59375 43.09375 43.984375 
Q 39.0625 48.390625 32.421875 48.390625 
Q 24.90625 48.390625 20.390625 44.140625 
Q 15.875 39.890625 15.1875 32.171875 
z
" id="DejaVuSans-65"/>
      <path d="M 37.109375 75.984375 
L 37.109375 68.5 
L 28.515625 68.5 
Q 23.6875 68.5 21.796875 66.546875 
Q 19.921875 64.59375 19.921875 59.515625 
L 19.921875 54.6875 
L 34.71875 54.6875 
L 34.71875 47.703125 
L 19.921875 47.703125 
L 19.921875 0 
L 10.890625 0 
L 10.890625 47.703125 
L 2.296875 47.703125 
L 2.296875 54.6875 
L 10.890625 54.6875 
L 10.890625 58.5 
Q 10.890625 67.625 15.140625 71.796875 
Q 19.390625 75.984375 28.609375 75.984375 
z
" id="DejaVuSans-66"/>
      <path id="DejaVuSans-20"/>
      <path d="M 48.78125 52.59375 
L 48.78125 44.1875 
Q 44.96875 46.296875 41.140625 47.34375 
Q 37.3125 48.390625 33.40625 48.390625 
Q 24.65625 48.390625 19.8125 42.84375 
Q 14.984375 37.3125 14.984375 27.296875 
Q 14.984375 17.28125 19.8125 11.734375 
Q 24.65625 6.203125 33.40625 6.203125 
Q 37.3125 6.203125 41.140625 7.25 
Q 44.96875 8.296875 48.78125 10.40625 
L 48.78125 2.09375 
Q 45.015625 0.34375 40.984375 -0.53125 
Q 36.96875 -1.421875 32.421875 -1.421875 
Q 20.0625 -1.421875 12.78125 6.34375 
Q 5.515625 14.109375 5.515625 27.296875 
Q 5.515625 40.671875 12.859375 48.328125 
Q 20.21875 56 33.015625 56 
Q 37.15625 56 41.109375 55.140625 
Q 45.0625 54.296875 48.78125 52.59375 
z
" id="DejaVuSans-63"/>
      <path d="M 41.109375 46.296875 
Q 39.59375 47.171875 37.8125 47.578125 
Q 36.03125 48 33.890625 48 
Q 26.265625 48 22.1875 43.046875 
Q 18.109375 38.09375 18.109375 28.8125 
L 18.109375 0 
L 9.078125 0 
L 9.078125 54.6875 
L 18.109375 54.6875 
L 18.109375 46.1875 
Q 20.953125 51.171875 25.484375 53.578125 
Q 30.03125 56 36.53125 56 
Q 37.453125 56 38.578125 55.875 
Q 39.703125 55.765625 41.0625 55.515625 
z
" id="DejaVuSans-72"/>
      <path d="M 19.671875 64.796875 
L 19.671875 37.40625 
L 32.078125 37.40625 
Q 38.96875 37.40625 42.71875 40.96875 
Q 46.484375 44.53125 46.484375 51.125 
Q 46.484375 57.671875 42.71875 61.234375 
Q 38.96875 64.796875 32.078125 64.796875 
z
M 9.8125 72.90625 
L 32.078125 72.90625 
Q 44.34375 72.90625 50.609375 67.359375 
Q 56.890625 61.8125 56.890625 51.125 
Q 56.890625 40.328125 50.609375 34.8125 
Q 44.34375 29.296875 32.078125 29.296875 
L 19.671875 29.296875 
L 19.671875 0 
L 9.8125 0 
z
" id="DejaVuSans-50"/>
      <path d="M 34.28125 27.484375 
Q 23.390625 27.484375 19.1875 25 
Q 14.984375 22.515625 14.984375 16.5 
Q 14.984375 11.71875 18.140625 8.90625 
Q 21.296875 6.109375 26.703125 6.109375 
Q 34.1875 6.109375 38.703125 11.40625 
Q 43.21875 16.703125 43.21875 25.484375 
L 43.21875 27.484375 
z
M 52.203125 31.203125 
L 52.203125 0 
L 43.21875 0 
L 43.21875 8.296875 
Q 40.140625 3.328125 35.546875 0.953125 
Q 30.953125 -1.421875 24.3125 -1.421875 
Q 15.921875 -1.421875 10.953125 3.296875 
Q 6 8.015625 6 15.921875 
Q 6 25.140625 12.171875 29.828125 
Q 18.359375 34.515625 30.609375 34.515625 
L 43.21875 34.515625 
L 43.21875 35.40625 
Q 43.21875 41.609375 39.140625 45 
Q 35.0625 48.390625 27.6875 48.390625 
Q 23 48.390625 18.546875 47.265625 
Q 14.109375 46.140625 10.015625 43.890625 
L 10.015625 52.203125 
Q 14.9375 54.109375 19.578125 55.046875 
Q 24.21875 56 28.609375 56 
Q 40.484375 56 46.34375 49.84375 
Q 52.203125 43.703125 52.203125 31.203125 
z
" id="DejaVuSans-61"/>
      <path d="M 44.28125 53.078125 
L 44.28125 44.578125 
Q 40.484375 46.53125 36.375 47.5 
Q 32.28125 48.484375 27.875 48.484375 
Q 21.1875 48.484375 17.84375 46.4375 
Q 14.5 44.390625 14.5 40.28125 
Q 14.5 37.15625 16.890625 35.375 
Q 19.28125 33.59375 26.515625 31.984375 
L 29.59375 31.296875 
Q 39.15625 29.25 43.1875 25.515625 
Q 47.21875 21.78125 47.21875 15.09375 
Q 47.21875 7.46875 41.1875 3.015625 
Q 35.15625 -1.421875 24.609375 -1.421875 
Q 20.21875 -1.421875 15.453125 -0.5625 
Q 10.6875 0.296875 5.421875 2 
L 5.421875 11.28125 
Q 10.40625 8.6875 15.234375 7.390625 
Q 20.0625 6.109375 24.8125 6.109375 
Q 31.15625 6.109375 34.5625 8.28125 
Q 37.984375 10.453125 37.984375 14.40625 
Q 37.984375 18.0625 35.515625 20.015625 
Q 33.0625 21.96875 24.703125 23.78125 
L 21.578125 24.515625 
Q 13.234375 26.265625 9.515625 29.90625 
Q 5.8125 33.546875 5.8125 39.890625 
Q 5.8125 47.609375 11.28125 51.796875 
Q 16.75 56 26.8125 56 
Q 31.78125 56 36.171875 55.265625 
Q 40.578125 54.546875 44.28125 53.078125 
z
" id="DejaVuSans-73"/>
     </defs>
     <g transform="translate(14.798437 149.9675)rotate(-90)scale(0.1 -0.1)">
      <use xlink:href="#DejaVuSans-43"/>
      <use x="69.824219" xlink:href="#DejaVuSans-6f"/>
      <use x="131.005859" xlink:href="#DejaVuSans-65"/>
      <use x="192.529297" xlink:href="#DejaVuSans-66"/>
      <use x="227.625" xlink:href="#DejaVuSans-2e"/>
      <use x="259.412109" xlink:href="#DejaVuSans-20"/>
      <use x="291.199219" xlink:href="#DejaVuSans-63"/>
      <use x="346.179688" xlink:href="#DejaVuSans-6f"/>
      <use x="407.361328" xlink:href="#DejaVuSans-72"/>
      <use x="448.458984" xlink:href="#DejaVuSans-72"/>
      <use x="489.572266" xlink:href="#DejaVuSans-20"/>
      <use x="521.359375" xlink:href="#DejaVuSans-50"/>
      <use x="581.615234" xlink:href="#DejaVuSans-65"/>
      <use x="643.138672" xlink:href="#DejaVuSans-61"/>
      <use x="704.417969" xlink:href="#DejaVuSans-72"/>
      <use x="745.53125" xlink:href="#DejaVuSans-73"/>
      <use x="797.630859" xlink:href="#DejaVuSans-6f"/>
      <use x="858.8125" xlink:href="#DejaVuSans-6e"/>
     </g>
    </g>
   </g>
   <g id="line2d_16">
    <path clip-path="url(#p776e1f1682)" d="M 71.756639 116.548497 
L 79.318469 111.283511 
L 86.880298 118.382671 
L 94.442128 76.839141 
L 102.003957 75.228536 
L 109.565786 80.677151 
L 117.127616 61.869621 
L 124.689445 35.813157 
L 132.251275 48.546213 
L 139.813104 55.865004 
L 147.374934 94.407887 
L 154.936763 124.380938 
L 162.498593 118.307301 
L 170.060422 81.646184 
L 177.622252 129.928812 
L 185.184081 154.654632 
L 192.745911 124.88575 
L 200.30774 89.939711 
L 207.86957 69.363249 
L 215.431399 70.486262 
L 222.993229 38.538403 
L 230.555058 29.730852 
L 238.116888 49.596725 
L 245.678717 78.95179 
L 253.240546 74.098377 
L 260.802376 73.241794 
L 268.364205 89.428815 
L 275.926035 177.985398 
L 283.487864 131.320358 
L 291.049694 135.454697 
L 298.611523 129.077752 
L 306.173353 110.840021 
L 313.735182 111.657238 
L 321.297012 126.869099 
L 328.858841 117.935859 
L 336.420671 132.970493 
" style="fill:none;stroke:#1f77b4;stroke-linecap:square;stroke-width:2;"/>
   </g>
   <g id="patch_3">
    <path d="M 58.523438 185.398125 
L 58.523438 22.318125 
" style="fill:none;stroke:#000000;stroke-linecap:square;stroke-linejoin:miter;stroke-width:0.8;"/>
   </g>
   <g id="patch_4">
    <path d="M 349.653872 185.398125 
L 349.653872 22.318125 
" style="fill:none;stroke:#000000;stroke-linecap:square;stroke-linejoin:miter;stroke-width:0.8;"/>
   </g>
   <g id="patch_5">
    <path d="M 58.523438 185.398125 
L 349.653872 185.398125 
" style="fill:none;stroke:#000000;stroke-linecap:square;stroke-linejoin:miter;stroke-width:0.8;"/>
   </g>
   <g id="patch_6">
    <path d="M 58.523438 22.318125 
L 349.653872 22.318125 
" style="fill:none;stroke:#000000;stroke-linecap:square;stroke-linejoin:miter;stroke-width:0.8;"/>
   </g>
   <g id="text_18">
    <!-- Corr. of nodes 19 - 20 seg. -->
    <defs>
     <path d="M 10.984375 1.515625 
L 10.984375 10.5 
Q 14.703125 8.734375 18.5 7.8125 
Q 22.3125 6.890625 25.984375 6.890625 
Q 35.75 6.890625 40.890625 13.453125 
Q 46.046875 20.015625 46.78125 33.40625 
Q 43.953125 29.203125 39.59375 26.953125 
Q 35.25 24.703125 29.984375 24.703125 
Q 19.046875 24.703125 12.671875 31.3125 
Q 6.296875 37.9375 6.296875 49.421875 
Q 6.296875 60.640625 12.9375 67.421875 
Q 19.578125 74.21875 30.609375 74.21875 
Q 43.265625 74.21875 49.921875 64.515625 
Q 56.59375 54.828125 56.59375 36.375 
Q 56.59375 19.140625 48.40625 8.859375 
Q 40.234375 -1.421875 26.421875 -1.421875 
Q 22.703125 -1.421875 18.890625 -0.6875 
Q 15.09375 0.046875 10.984375 1.515625 
z
M 30.609375 32.421875 
Q 37.25 32.421875 41.125 36.953125 
Q 45.015625 41.5 45.015625 49.421875 
Q 45.015625 57.28125 41.125 61.84375 
Q 37.25 66.40625 30.609375 66.40625 
Q 23.96875 66.40625 20.09375 61.84375 
Q 16.21875 57.28125 16.21875 49.421875 
Q 16.21875 41.5 20.09375 36.953125 
Q 23.96875 32.421875 30.609375 32.421875 
z
" id="DejaVuSans-39"/>
     <path d="M 4.890625 31.390625 
L 31.203125 31.390625 
L 31.203125 23.390625 
L 4.890625 23.390625 
z
" id="DejaVuSans-2d"/>
     <path d="M 45.40625 27.984375 
Q 45.40625 37.75 41.375 43.109375 
Q 37.359375 48.484375 30.078125 48.484375 
Q 22.859375 48.484375 18.828125 43.109375 
Q 14.796875 37.75 14.796875 27.984375 
Q 14.796875 18.265625 18.828125 12.890625 
Q 22.859375 7.515625 30.078125 7.515625 
Q 37.359375 7.515625 41.375 12.890625 
Q 45.40625 18.265625 45.40625 27.984375 
z
M 54.390625 6.78125 
Q 54.390625 -7.171875 48.1875 -13.984375 
Q 42 -20.796875 29.203125 -20.796875 
Q 24.46875 -20.796875 20.265625 -20.09375 
Q 16.0625 -19.390625 12.109375 -17.921875 
L 12.109375 -9.1875 
Q 16.0625 -11.328125 19.921875 -12.34375 
Q 23.78125 -13.375 27.78125 -13.375 
Q 36.625 -13.375 41.015625 -8.765625 
Q 45.40625 -4.15625 45.40625 5.171875 
L 45.40625 9.625 
Q 42.625 4.78125 38.28125 2.390625 
Q 33.9375 0 27.875 0 
Q 17.828125 0 11.671875 7.65625 
Q 5.515625 15.328125 5.515625 27.984375 
Q 5.515625 40.671875 11.671875 48.328125 
Q 17.828125 56 27.875 56 
Q 33.9375 56 38.28125 53.609375 
Q 42.625 51.21875 45.40625 46.390625 
L 45.40625 54.6875 
L 54.390625 54.6875 
z
" id="DejaVuSans-67"/>
    </defs>
    <g transform="translate(124.103967 16.318125)scale(0.12 -0.12)">
     <use xlink:href="#DejaVuSans-43"/>
     <use x="69.824219" xlink:href="#DejaVuSans-6f"/>
     <use x="131.005859" xlink:href="#DejaVuSans-72"/>
     <use x="172.103516" xlink:href="#DejaVuSans-72"/>
     <use x="213.076172" xlink:href="#DejaVuSans-2e"/>
     <use x="244.863281" xlink:href="#DejaVuSans-20"/>
     <use x="276.650391" xlink:href="#DejaVuSans-6f"/>
     <use x="337.832031" xlink:href="#DejaVuSans-66"/>
     <use x="373.037109" xlink:href="#DejaVuSans-20"/>
     <use x="404.824219" xlink:href="#DejaVuSans-6e"/>
     <use x="468.203125" xlink:href="#DejaVuSans-6f"/>
     <use x="529.384766" xlink:href="#DejaVuSans-64"/>
     <use x="592.861328" xlink:href="#DejaVuSans-65"/>
     <use x="654.384766" xlink:href="#DejaVuSans-73"/>
     <use x="706.484375" xlink:href="#DejaVuSans-20"/>
     <use x="738.271484" xlink:href="#DejaVuSans-31"/>
     <use x="801.894531" xlink:href="#DejaVuSans-39"/>
     <use x="865.517578" xlink:href="#DejaVuSans-20"/>
     <use x="897.304688" xlink:href="#DejaVuSans-2d"/>
     <use x="933.388672" xlink:href="#DejaVuSans-20"/>
     <use x="965.175781" xlink:href="#DejaVuSans-32"/>
     <use x="1028.798828" xlink:href="#DejaVuSans-30"/>
     <use x="1092.421875" xlink:href="#DejaVuSans-20"/>
     <use x="1124.208984" xlink:href="#DejaVuSans-73"/>
     <use x="1176.308594" xlink:href="#DejaVuSans-65"/>
     <use x="1237.832031" xlink:href="#DejaVuSans-67"/>
     <use x="1301.308594" xlink:href="#DejaVuSans-2e"/>
    </g>
   </g>
  </g>
  <g id="axes_2">
   <g id="patch_7">
    <path d="M 407.879959 185.398125 
L 699.010394 185.398125 
L 699.010394 22.318125 
L 407.879959 22.318125 
z
" style="fill:none;"/>
   </g>
   <g id="matplotlib.axis_3">
    <g id="xtick_9">
     <g id="line2d_17">
      <g>
       <use style="stroke:#000000;stroke-width:0.8;" x="421.113161" xlink:href="#mc7aa4599b0" y="185.398125"/>
      </g>
     </g>
     <g id="text_19">
      <!-- 0 -->
      <g transform="translate(417.931911 199.996563)scale(0.1 -0.1)">
       <use xlink:href="#DejaVuSans-30"/>
      </g>
     </g>
    </g>
    <g id="xtick_10">
     <g id="line2d_18">
      <g>
       <use style="stroke:#000000;stroke-width:0.8;" x="458.922308" xlink:href="#mc7aa4599b0" y="185.398125"/>
      </g>
     </g>
     <g id="text_20">
      <!-- 5 -->
      <g transform="translate(455.741058 199.996563)scale(0.1 -0.1)">
       <use xlink:href="#DejaVuSans-35"/>
      </g>
     </g>
    </g>
    <g id="xtick_11">
     <g id="line2d_19">
      <g>
       <use style="stroke:#000000;stroke-width:0.8;" x="496.731456" xlink:href="#mc7aa4599b0" y="185.398125"/>
      </g>
     </g>
     <g id="text_21">
      <!-- 10 -->
      <g transform="translate(490.368956 199.996563)scale(0.1 -0.1)">
       <use xlink:href="#DejaVuSans-31"/>
       <use x="63.623047" xlink:href="#DejaVuSans-30"/>
      </g>
     </g>
    </g>
    <g id="xtick_12">
     <g id="line2d_20">
      <g>
       <use style="stroke:#000000;stroke-width:0.8;" x="534.540603" xlink:href="#mc7aa4599b0" y="185.398125"/>
      </g>
     </g>
     <g id="text_22">
      <!-- 15 -->
      <g transform="translate(528.178103 199.996563)scale(0.1 -0.1)">
       <use xlink:href="#DejaVuSans-31"/>
       <use x="63.623047" xlink:href="#DejaVuSans-35"/>
      </g>
     </g>
    </g>
    <g id="xtick_13">
     <g id="line2d_21">
      <g>
       <use style="stroke:#000000;stroke-width:0.8;" x="572.34975" xlink:href="#mc7aa4599b0" y="185.398125"/>
      </g>
     </g>
     <g id="text_23">
      <!-- 20 -->
      <g transform="translate(565.98725 199.996563)scale(0.1 -0.1)">
       <use xlink:href="#DejaVuSans-32"/>
       <use x="63.623047" xlink:href="#DejaVuSans-30"/>
      </g>
     </g>
    </g>
    <g id="xtick_14">
     <g id="line2d_22">
      <g>
       <use style="stroke:#000000;stroke-width:0.8;" x="610.158898" xlink:href="#mc7aa4599b0" y="185.398125"/>
      </g>
     </g>
     <g id="text_24">
      <!-- 25 -->
      <g transform="translate(603.796398 199.996563)scale(0.1 -0.1)">
       <use xlink:href="#DejaVuSans-32"/>
       <use x="63.623047" xlink:href="#DejaVuSans-35"/>
      </g>
     </g>
    </g>
    <g id="xtick_15">
     <g id="line2d_23">
      <g>
       <use style="stroke:#000000;stroke-width:0.8;" x="647.968045" xlink:href="#mc7aa4599b0" y="185.398125"/>
      </g>
     </g>
     <g id="text_25">
      <!-- 30 -->
      <g transform="translate(641.605545 199.996563)scale(0.1 -0.1)">
       <use xlink:href="#DejaVuSans-33"/>
       <use x="63.623047" xlink:href="#DejaVuSans-30"/>
      </g>
     </g>
    </g>
    <g id="xtick_16">
     <g id="line2d_24">
      <g>
       <use style="stroke:#000000;stroke-width:0.8;" x="685.777192" xlink:href="#mc7aa4599b0" y="185.398125"/>
      </g>
     </g>
     <g id="text_26">
      <!-- 35 -->
      <g transform="translate(679.414692 199.996563)scale(0.1 -0.1)">
       <use xlink:href="#DejaVuSans-33"/>
       <use x="63.623047" xlink:href="#DejaVuSans-35"/>
      </g>
     </g>
    </g>
    <g id="text_27">
     <!-- n_window -->
     <g transform="translate(528.806895 213.674688)scale(0.1 -0.1)">
      <use xlink:href="#DejaVuSans-6e"/>
      <use x="63.378906" xlink:href="#DejaVuSans-5f"/>
      <use x="113.378906" xlink:href="#DejaVuSans-77"/>
      <use x="195.166016" xlink:href="#DejaVuSans-69"/>
      <use x="222.949219" xlink:href="#DejaVuSans-6e"/>
      <use x="286.328125" xlink:href="#DejaVuSans-64"/>
      <use x="349.804688" xlink:href="#DejaVuSans-6f"/>
      <use x="410.986328" xlink:href="#DejaVuSans-77"/>
     </g>
    </g>
   </g>
   <g id="matplotlib.axis_4">
    <g id="ytick_8">
     <g id="line2d_25">
      <g>
       <use style="stroke:#000000;stroke-width:0.8;" x="407.879959" xlink:href="#m1f0878af03" y="166.711889"/>
      </g>
     </g>
     <g id="text_28">
      <!-- −0.4 -->
      <defs>
       <path d="M 37.796875 64.3125 
L 12.890625 25.390625 
L 37.796875 25.390625 
z
M 35.203125 72.90625 
L 47.609375 72.90625 
L 47.609375 25.390625 
L 58.015625 25.390625 
L 58.015625 17.1875 
L 47.609375 17.1875 
L 47.609375 0 
L 37.796875 0 
L 37.796875 17.1875 
L 4.890625 17.1875 
L 4.890625 26.703125 
z
" id="DejaVuSans-34"/>
      </defs>
      <g transform="translate(376.597147 170.511107)scale(0.1 -0.1)">
       <use xlink:href="#DejaVuSans-2212"/>
       <use x="83.789062" xlink:href="#DejaVuSans-30"/>
       <use x="147.412109" xlink:href="#DejaVuSans-2e"/>
       <use x="179.199219" xlink:href="#DejaVuSans-34"/>
      </g>
     </g>
    </g>
    <g id="ytick_9">
     <g id="line2d_26">
      <g>
       <use style="stroke:#000000;stroke-width:0.8;" x="407.879959" xlink:href="#m1f0878af03" y="134.649898"/>
      </g>
     </g>
     <g id="text_29">
      <!-- −0.2 -->
      <g transform="translate(376.597147 138.449117)scale(0.1 -0.1)">
       <use xlink:href="#DejaVuSans-2212"/>
       <use x="83.789062" xlink:href="#DejaVuSans-30"/>
       <use x="147.412109" xlink:href="#DejaVuSans-2e"/>
       <use x="179.199219" xlink:href="#DejaVuSans-32"/>
      </g>
     </g>
    </g>
    <g id="ytick_10">
     <g id="line2d_27">
      <g>
       <use style="stroke:#000000;stroke-width:0.8;" x="407.879959" xlink:href="#m1f0878af03" y="102.587907"/>
      </g>
     </g>
     <g id="text_30">
      <!-- 0.0 -->
      <g transform="translate(384.976834 106.387126)scale(0.1 -0.1)">
       <use xlink:href="#DejaVuSans-30"/>
       <use x="63.623047" xlink:href="#DejaVuSans-2e"/>
       <use x="95.410156" xlink:href="#DejaVuSans-30"/>
      </g>
     </g>
    </g>
    <g id="ytick_11">
     <g id="line2d_28">
      <g>
       <use style="stroke:#000000;stroke-width:0.8;" x="407.879959" xlink:href="#m1f0878af03" y="70.525916"/>
      </g>
     </g>
     <g id="text_31">
      <!-- 0.2 -->
      <g transform="translate(384.976834 74.325135)scale(0.1 -0.1)">
       <use xlink:href="#DejaVuSans-30"/>
       <use x="63.623047" xlink:href="#DejaVuSans-2e"/>
       <use x="95.410156" xlink:href="#DejaVuSans-32"/>
      </g>
     </g>
    </g>
    <g id="ytick_12">
     <g id="line2d_29">
      <g>
       <use style="stroke:#000000;stroke-width:0.8;" x="407.879959" xlink:href="#m1f0878af03" y="38.463925"/>
      </g>
     </g>
     <g id="text_32">
      <!-- 0.4 -->
      <g transform="translate(384.976834 42.263144)scale(0.1 -0.1)">
       <use xlink:href="#DejaVuSans-30"/>
       <use x="63.623047" xlink:href="#DejaVuSans-2e"/>
       <use x="95.410156" xlink:href="#DejaVuSans-34"/>
      </g>
     </g>
    </g>
    <g id="text_33">
     <!-- Coef. corr Pearson -->
     <g transform="translate(370.517459 149.9675)rotate(-90)scale(0.1 -0.1)">
      <use xlink:href="#DejaVuSans-43"/>
      <use x="69.824219" xlink:href="#DejaVuSans-6f"/>
      <use x="131.005859" xlink:href="#DejaVuSans-65"/>
      <use x="192.529297" xlink:href="#DejaVuSans-66"/>
      <use x="227.625" xlink:href="#DejaVuSans-2e"/>
      <use x="259.412109" xlink:href="#DejaVuSans-20"/>
      <use x="291.199219" xlink:href="#DejaVuSans-63"/>
      <use x="346.179688" xlink:href="#DejaVuSans-6f"/>
      <use x="407.361328" xlink:href="#DejaVuSans-72"/>
      <use x="448.458984" xlink:href="#DejaVuSans-72"/>
      <use x="489.572266" xlink:href="#DejaVuSans-20"/>
      <use x="521.359375" xlink:href="#DejaVuSans-50"/>
      <use x="581.615234" xlink:href="#DejaVuSans-65"/>
      <use x="643.138672" xlink:href="#DejaVuSans-61"/>
      <use x="704.417969" xlink:href="#DejaVuSans-72"/>
      <use x="745.53125" xlink:href="#DejaVuSans-73"/>
      <use x="797.630859" xlink:href="#DejaVuSans-6f"/>
      <use x="858.8125" xlink:href="#DejaVuSans-6e"/>
     </g>
    </g>
   </g>
   <g id="line2d_30">
    <path clip-path="url(#pb91b921f38)" d="M 421.113161 122.069788 
L 428.67499 140.29975 
L 436.23682 156.659295 
L 443.798649 124.427605 
L 451.360479 75.678237 
L 458.922308 39.115536 
L 466.484138 53.568334 
L 474.045967 51.391823 
L 481.607797 63.94581 
L 489.169626 155.324829 
L 496.731456 125.215544 
L 504.293285 37.601055 
L 511.855115 101.765735 
L 519.416944 134.003045 
L 526.978773 49.259371 
L 534.540603 29.730852 
L 542.102432 73.609191 
L 549.664262 51.724486 
L 557.226091 85.777495 
L 564.787921 47.452339 
L 572.34975 72.024144 
L 579.91158 92.1699 
L 587.473409 145.770187 
L 595.035239 73.480516 
L 602.597068 104.815969 
L 610.158898 84.538681 
L 617.720727 96.506055 
L 625.282557 128.112357 
L 632.844386 172.697647 
L 640.406216 146.505103 
L 647.968045 177.985398 
L 655.529875 103.775379 
L 663.091704 99.812314 
L 670.653533 53.304552 
L 678.215363 65.704655 
L 685.777192 78.711766 
" style="fill:none;stroke:#1f77b4;stroke-linecap:square;stroke-width:2;"/>
   </g>
   <g id="patch_8">
    <path d="M 407.879959 185.398125 
L 407.879959 22.318125 
" style="fill:none;stroke:#000000;stroke-linecap:square;stroke-linejoin:miter;stroke-width:0.8;"/>
   </g>
   <g id="patch_9">
    <path d="M 699.010394 185.398125 
L 699.010394 22.318125 
" style="fill:none;stroke:#000000;stroke-linecap:square;stroke-linejoin:miter;stroke-width:0.8;"/>
   </g>
   <g id="patch_10">
    <path d="M 407.879959 185.398125 
L 699.010394 185.398125 
" style="fill:none;stroke:#000000;stroke-linecap:square;stroke-linejoin:miter;stroke-width:0.8;"/>
   </g>
   <g id="patch_11">
    <path d="M 407.879959 22.318125 
L 699.010394 22.318125 
" style="fill:none;stroke:#000000;stroke-linecap:square;stroke-linejoin:miter;stroke-width:0.8;"/>
   </g>
   <g id="text_34">
    <!-- Corr. of nodes 23 - 24 seg. -->
    <g transform="translate(473.460489 16.318125)scale(0.12 -0.12)">
     <use xlink:href="#DejaVuSans-43"/>
     <use x="69.824219" xlink:href="#DejaVuSans-6f"/>
     <use x="131.005859" xlink:href="#DejaVuSans-72"/>
     <use x="172.103516" xlink:href="#DejaVuSans-72"/>
     <use x="213.076172" xlink:href="#DejaVuSans-2e"/>
     <use x="244.863281" xlink:href="#DejaVuSans-20"/>
     <use x="276.650391" xlink:href="#DejaVuSans-6f"/>
     <use x="337.832031" xlink:href="#DejaVuSans-66"/>
     <use x="373.037109" xlink:href="#DejaVuSans-20"/>
     <use x="404.824219" xlink:href="#DejaVuSans-6e"/>
     <use x="468.203125" xlink:href="#DejaVuSans-6f"/>
     <use x="529.384766" xlink:href="#DejaVuSans-64"/>
     <use x="592.861328" xlink:href="#DejaVuSans-65"/>
     <use x="654.384766" xlink:href="#DejaVuSans-73"/>
     <use x="706.484375" xlink:href="#DejaVuSans-20"/>
     <use x="738.271484" xlink:href="#DejaVuSans-32"/>
     <use x="801.894531" xlink:href="#DejaVuSans-33"/>
     <use x="865.517578" xlink:href="#DejaVuSans-20"/>
     <use x="897.304688" xlink:href="#DejaVuSans-2d"/>
     <use x="933.388672" xlink:href="#DejaVuSans-20"/>
     <use x="965.175781" xlink:href="#DejaVuSans-32"/>
     <use x="1028.798828" xlink:href="#DejaVuSans-34"/>
     <use x="1092.421875" xlink:href="#DejaVuSans-20"/>
     <use x="1124.208984" xlink:href="#DejaVuSans-73"/>
     <use x="1176.308594" xlink:href="#DejaVuSans-65"/>
     <use x="1237.832031" xlink:href="#DejaVuSans-67"/>
     <use x="1301.308594" xlink:href="#DejaVuSans-2e"/>
    </g>
   </g>
  </g>
  <g id="axes_3">
   <g id="patch_12">
    <path d="M 757.236481 185.398125 
L 1048.366916 185.398125 
L 1048.366916 22.318125 
L 757.236481 22.318125 
z
" style="fill:none;"/>
   </g>
   <g id="matplotlib.axis_5">
    <g id="xtick_17">
     <g id="line2d_31">
      <g>
       <use style="stroke:#000000;stroke-width:0.8;" x="770.469683" xlink:href="#mc7aa4599b0" y="185.398125"/>
      </g>
     </g>
     <g id="text_35">
      <!-- 0 -->
      <g transform="translate(767.288433 199.996563)scale(0.1 -0.1)">
       <use xlink:href="#DejaVuSans-30"/>
      </g>
     </g>
    </g>
    <g id="xtick_18">
     <g id="line2d_32">
      <g>
       <use style="stroke:#000000;stroke-width:0.8;" x="808.27883" xlink:href="#mc7aa4599b0" y="185.398125"/>
      </g>
     </g>
     <g id="text_36">
      <!-- 5 -->
      <g transform="translate(805.09758 199.996563)scale(0.1 -0.1)">
       <use xlink:href="#DejaVuSans-35"/>
      </g>
     </g>
    </g>
    <g id="xtick_19">
     <g id="line2d_33">
      <g>
       <use style="stroke:#000000;stroke-width:0.8;" x="846.087977" xlink:href="#mc7aa4599b0" y="185.398125"/>
      </g>
     </g>
     <g id="text_37">
      <!-- 10 -->
      <g transform="translate(839.725477 199.996563)scale(0.1 -0.1)">
       <use xlink:href="#DejaVuSans-31"/>
       <use x="63.623047" xlink:href="#DejaVuSans-30"/>
      </g>
     </g>
    </g>
    <g id="xtick_20">
     <g id="line2d_34">
      <g>
       <use style="stroke:#000000;stroke-width:0.8;" x="883.897125" xlink:href="#mc7aa4599b0" y="185.398125"/>
      </g>
     </g>
     <g id="text_38">
      <!-- 15 -->
      <g transform="translate(877.534625 199.996563)scale(0.1 -0.1)">
       <use xlink:href="#DejaVuSans-31"/>
       <use x="63.623047" xlink:href="#DejaVuSans-35"/>
      </g>
     </g>
    </g>
    <g id="xtick_21">
     <g id="line2d_35">
      <g>
       <use style="stroke:#000000;stroke-width:0.8;" x="921.706272" xlink:href="#mc7aa4599b0" y="185.398125"/>
      </g>
     </g>
     <g id="text_39">
      <!-- 20 -->
      <g transform="translate(915.343772 199.996563)scale(0.1 -0.1)">
       <use xlink:href="#DejaVuSans-32"/>
       <use x="63.623047" xlink:href="#DejaVuSans-30"/>
      </g>
     </g>
    </g>
    <g id="xtick_22">
     <g id="line2d_36">
      <g>
       <use style="stroke:#000000;stroke-width:0.8;" x="959.515419" xlink:href="#mc7aa4599b0" y="185.398125"/>
      </g>
     </g>
     <g id="text_40">
      <!-- 25 -->
      <g transform="translate(953.152919 199.996563)scale(0.1 -0.1)">
       <use xlink:href="#DejaVuSans-32"/>
       <use x="63.623047" xlink:href="#DejaVuSans-35"/>
      </g>
     </g>
    </g>
    <g id="xtick_23">
     <g id="line2d_37">
      <g>
       <use style="stroke:#000000;stroke-width:0.8;" x="997.324567" xlink:href="#mc7aa4599b0" y="185.398125"/>
      </g>
     </g>
     <g id="text_41">
      <!-- 30 -->
      <g transform="translate(990.962067 199.996563)scale(0.1 -0.1)">
       <use xlink:href="#DejaVuSans-33"/>
       <use x="63.623047" xlink:href="#DejaVuSans-30"/>
      </g>
     </g>
    </g>
    <g id="xtick_24">
     <g id="line2d_38">
      <g>
       <use style="stroke:#000000;stroke-width:0.8;" x="1035.133714" xlink:href="#mc7aa4599b0" y="185.398125"/>
      </g>
     </g>
     <g id="text_42">
      <!-- 35 -->
      <g transform="translate(1028.771214 199.996563)scale(0.1 -0.1)">
       <use xlink:href="#DejaVuSans-33"/>
       <use x="63.623047" xlink:href="#DejaVuSans-35"/>
      </g>
     </g>
    </g>
    <g id="text_43">
     <!-- n_window -->
     <g transform="translate(878.163417 213.674688)scale(0.1 -0.1)">
      <use xlink:href="#DejaVuSans-6e"/>
      <use x="63.378906" xlink:href="#DejaVuSans-5f"/>
      <use x="113.378906" xlink:href="#DejaVuSans-77"/>
      <use x="195.166016" xlink:href="#DejaVuSans-69"/>
      <use x="222.949219" xlink:href="#DejaVuSans-6e"/>
      <use x="286.328125" xlink:href="#DejaVuSans-64"/>
      <use x="349.804688" xlink:href="#DejaVuSans-6f"/>
      <use x="410.986328" xlink:href="#DejaVuSans-77"/>
     </g>
    </g>
   </g>
   <g id="matplotlib.axis_6">
    <g id="ytick_13">
     <g id="line2d_39">
      <g>
       <use style="stroke:#000000;stroke-width:0.8;" x="757.236481" xlink:href="#m1f0878af03" y="175.469778"/>
      </g>
     </g>
     <g id="text_44">
      <!-- −0.6 -->
      <defs>
       <path d="M 33.015625 40.375 
Q 26.375 40.375 22.484375 35.828125 
Q 18.609375 31.296875 18.609375 23.390625 
Q 18.609375 15.53125 22.484375 10.953125 
Q 26.375 6.390625 33.015625 6.390625 
Q 39.65625 6.390625 43.53125 10.953125 
Q 47.40625 15.53125 47.40625 23.390625 
Q 47.40625 31.296875 43.53125 35.828125 
Q 39.65625 40.375 33.015625 40.375 
z
M 52.59375 71.296875 
L 52.59375 62.3125 
Q 48.875 64.0625 45.09375 64.984375 
Q 41.3125 65.921875 37.59375 65.921875 
Q 27.828125 65.921875 22.671875 59.328125 
Q 17.53125 52.734375 16.796875 39.40625 
Q 19.671875 43.65625 24.015625 45.921875 
Q 28.375 48.1875 33.59375 48.1875 
Q 44.578125 48.1875 50.953125 41.515625 
Q 57.328125 34.859375 57.328125 23.390625 
Q 57.328125 12.15625 50.6875 5.359375 
Q 44.046875 -1.421875 33.015625 -1.421875 
Q 20.359375 -1.421875 13.671875 8.265625 
Q 6.984375 17.96875 6.984375 36.375 
Q 6.984375 53.65625 15.1875 63.9375 
Q 23.390625 74.21875 37.203125 74.21875 
Q 40.921875 74.21875 44.703125 73.484375 
Q 48.484375 72.75 52.59375 71.296875 
z
" id="DejaVuSans-36"/>
      </defs>
      <g transform="translate(725.953668 179.268996)scale(0.1 -0.1)">
       <use xlink:href="#DejaVuSans-2212"/>
       <use x="83.789062" xlink:href="#DejaVuSans-30"/>
       <use x="147.412109" xlink:href="#DejaVuSans-2e"/>
       <use x="179.199219" xlink:href="#DejaVuSans-36"/>
      </g>
     </g>
    </g>
    <g id="ytick_14">
     <g id="line2d_40">
      <g>
       <use style="stroke:#000000;stroke-width:0.8;" x="757.236481" xlink:href="#m1f0878af03" y="149.748907"/>
      </g>
     </g>
     <g id="text_45">
      <!-- −0.4 -->
      <g transform="translate(725.953668 153.548125)scale(0.1 -0.1)">
       <use xlink:href="#DejaVuSans-2212"/>
       <use x="83.789062" xlink:href="#DejaVuSans-30"/>
       <use x="147.412109" xlink:href="#DejaVuSans-2e"/>
       <use x="179.199219" xlink:href="#DejaVuSans-34"/>
      </g>
     </g>
    </g>
    <g id="ytick_15">
     <g id="line2d_41">
      <g>
       <use style="stroke:#000000;stroke-width:0.8;" x="757.236481" xlink:href="#m1f0878af03" y="124.028036"/>
      </g>
     </g>
     <g id="text_46">
      <!-- −0.2 -->
      <g transform="translate(725.953668 127.827255)scale(0.1 -0.1)">
       <use xlink:href="#DejaVuSans-2212"/>
       <use x="83.789062" xlink:href="#DejaVuSans-30"/>
       <use x="147.412109" xlink:href="#DejaVuSans-2e"/>
       <use x="179.199219" xlink:href="#DejaVuSans-32"/>
      </g>
     </g>
    </g>
    <g id="ytick_16">
     <g id="line2d_42">
      <g>
       <use style="stroke:#000000;stroke-width:0.8;" x="757.236481" xlink:href="#m1f0878af03" y="98.307165"/>
      </g>
     </g>
     <g id="text_47">
      <!-- 0.0 -->
      <g transform="translate(734.333356 102.106384)scale(0.1 -0.1)">
       <use xlink:href="#DejaVuSans-30"/>
       <use x="63.623047" xlink:href="#DejaVuSans-2e"/>
       <use x="95.410156" xlink:href="#DejaVuSans-30"/>
      </g>
     </g>
    </g>
    <g id="ytick_17">
     <g id="line2d_43">
      <g>
       <use style="stroke:#000000;stroke-width:0.8;" x="757.236481" xlink:href="#m1f0878af03" y="72.586294"/>
      </g>
     </g>
     <g id="text_48">
      <!-- 0.2 -->
      <g transform="translate(734.333356 76.385513)scale(0.1 -0.1)">
       <use xlink:href="#DejaVuSans-30"/>
       <use x="63.623047" xlink:href="#DejaVuSans-2e"/>
       <use x="95.410156" xlink:href="#DejaVuSans-32"/>
      </g>
     </g>
    </g>
    <g id="ytick_18">
     <g id="line2d_44">
      <g>
       <use style="stroke:#000000;stroke-width:0.8;" x="757.236481" xlink:href="#m1f0878af03" y="46.865423"/>
      </g>
     </g>
     <g id="text_49">
      <!-- 0.4 -->
      <g transform="translate(734.333356 50.664642)scale(0.1 -0.1)">
       <use xlink:href="#DejaVuSans-30"/>
       <use x="63.623047" xlink:href="#DejaVuSans-2e"/>
       <use x="95.410156" xlink:href="#DejaVuSans-34"/>
      </g>
     </g>
    </g>
    <g id="text_50">
     <!-- Coef. corr Pearson -->
     <g transform="translate(719.873981 149.9675)rotate(-90)scale(0.1 -0.1)">
      <use xlink:href="#DejaVuSans-43"/>
      <use x="69.824219" xlink:href="#DejaVuSans-6f"/>
      <use x="131.005859" xlink:href="#DejaVuSans-65"/>
      <use x="192.529297" xlink:href="#DejaVuSans-66"/>
      <use x="227.625" xlink:href="#DejaVuSans-2e"/>
      <use x="259.412109" xlink:href="#DejaVuSans-20"/>
      <use x="291.199219" xlink:href="#DejaVuSans-63"/>
      <use x="346.179688" xlink:href="#DejaVuSans-6f"/>
      <use x="407.361328" xlink:href="#DejaVuSans-72"/>
      <use x="448.458984" xlink:href="#DejaVuSans-72"/>
      <use x="489.572266" xlink:href="#DejaVuSans-20"/>
      <use x="521.359375" xlink:href="#DejaVuSans-50"/>
      <use x="581.615234" xlink:href="#DejaVuSans-65"/>
      <use x="643.138672" xlink:href="#DejaVuSans-61"/>
      <use x="704.417969" xlink:href="#DejaVuSans-72"/>
      <use x="745.53125" xlink:href="#DejaVuSans-73"/>
      <use x="797.630859" xlink:href="#DejaVuSans-6f"/>
      <use x="858.8125" xlink:href="#DejaVuSans-6e"/>
     </g>
    </g>
   </g>
   <g id="line2d_45">
    <path clip-path="url(#p4a894eff2b)" d="M 770.469683 70.47764 
L 778.031512 59.171675 
L 785.593342 92.775236 
L 793.155171 75.751399 
L 800.717 45.990134 
L 808.27883 29.730852 
L 815.840659 73.002356 
L 823.402489 64.270251 
L 830.964318 112.711621 
L 838.526148 73.154064 
L 846.087977 63.259824 
L 853.649807 89.04804 
L 861.211636 123.450345 
L 868.773466 81.720904 
L 876.335295 124.2213 
L 883.897125 57.888032 
L 891.458954 60.921911 
L 899.020784 51.105967 
L 906.582613 91.987382 
L 914.144443 99.794826 
L 921.706272 129.596088 
L 929.268102 164.678414 
L 936.829931 157.319216 
L 944.39176 102.553785 
L 951.95359 51.358593 
L 959.515419 59.194942 
L 967.077249 74.836493 
L 974.639078 76.789386 
L 982.200908 129.813901 
L 989.762737 156.612369 
L 997.324567 177.985398 
L 1004.886396 152.309781 
L 1012.448226 114.076338 
L 1020.010055 104.66821 
L 1027.571885 142.063106 
L 1035.133714 90.794683 
" style="fill:none;stroke:#1f77b4;stroke-linecap:square;stroke-width:2;"/>
   </g>
   <g id="patch_13">
    <path d="M 757.236481 185.398125 
L 757.236481 22.318125 
" style="fill:none;stroke:#000000;stroke-linecap:square;stroke-linejoin:miter;stroke-width:0.8;"/>
   </g>
   <g id="patch_14">
    <path d="M 1048.366916 185.398125 
L 1048.366916 22.318125 
" style="fill:none;stroke:#000000;stroke-linecap:square;stroke-linejoin:miter;stroke-width:0.8;"/>
   </g>
   <g id="patch_15">
    <path d="M 757.236481 185.398125 
L 1048.366916 185.398125 
" style="fill:none;stroke:#000000;stroke-linecap:square;stroke-linejoin:miter;stroke-width:0.8;"/>
   </g>
   <g id="patch_16">
    <path d="M 757.236481 22.318125 
L 1048.366916 22.318125 
" style="fill:none;stroke:#000000;stroke-linecap:square;stroke-linejoin:miter;stroke-width:0.8;"/>
   </g>
   <g id="text_51">
    <!-- Corr. of nodes 13 - 14 seg. -->
    <g transform="translate(822.817011 16.318125)scale(0.12 -0.12)">
     <use xlink:href="#DejaVuSans-43"/>
     <use x="69.824219" xlink:href="#DejaVuSans-6f"/>
     <use x="131.005859" xlink:href="#DejaVuSans-72"/>
     <use x="172.103516" xlink:href="#DejaVuSans-72"/>
     <use x="213.076172" xlink:href="#DejaVuSans-2e"/>
     <use x="244.863281" xlink:href="#DejaVuSans-20"/>
     <use x="276.650391" xlink:href="#DejaVuSans-6f"/>
     <use x="337.832031" xlink:href="#DejaVuSans-66"/>
     <use x="373.037109" xlink:href="#DejaVuSans-20"/>
     <use x="404.824219" xlink:href="#DejaVuSans-6e"/>
     <use x="468.203125" xlink:href="#DejaVuSans-6f"/>
     <use x="529.384766" xlink:href="#DejaVuSans-64"/>
     <use x="592.861328" xlink:href="#DejaVuSans-65"/>
     <use x="654.384766" xlink:href="#DejaVuSans-73"/>
     <use x="706.484375" xlink:href="#DejaVuSans-20"/>
     <use x="738.271484" xlink:href="#DejaVuSans-31"/>
     <use x="801.894531" xlink:href="#DejaVuSans-33"/>
     <use x="865.517578" xlink:href="#DejaVuSans-20"/>
     <use x="897.304688" xlink:href="#DejaVuSans-2d"/>
     <use x="933.388672" xlink:href="#DejaVuSans-20"/>
     <use x="965.175781" xlink:href="#DejaVuSans-31"/>
     <use x="1028.798828" xlink:href="#DejaVuSans-34"/>
     <use x="1092.421875" xlink:href="#DejaVuSans-20"/>
     <use x="1124.208984" xlink:href="#DejaVuSans-73"/>
     <use x="1176.308594" xlink:href="#DejaVuSans-65"/>
     <use x="1237.832031" xlink:href="#DejaVuSans-67"/>
     <use x="1301.308594" xlink:href="#DejaVuSans-2e"/>
    </g>
   </g>
  </g>
  <g id="axes_4">
   <g id="patch_17">
    <path d="M 1106.593003 185.398125 
L 1397.723438 185.398125 
L 1397.723438 22.318125 
L 1106.593003 22.318125 
z
" style="fill:none;"/>
   </g>
   <g id="matplotlib.axis_7">
    <g id="xtick_25">
     <g id="line2d_46">
      <g>
       <use style="stroke:#000000;stroke-width:0.8;" x="1119.826204" xlink:href="#mc7aa4599b0" y="185.398125"/>
      </g>
     </g>
     <g id="text_52">
      <!-- 0 -->
      <g transform="translate(1116.644954 199.996563)scale(0.1 -0.1)">
       <use xlink:href="#DejaVuSans-30"/>
      </g>
     </g>
    </g>
    <g id="xtick_26">
     <g id="line2d_47">
      <g>
       <use style="stroke:#000000;stroke-width:0.8;" x="1157.635352" xlink:href="#mc7aa4599b0" y="185.398125"/>
      </g>
     </g>
     <g id="text_53">
      <!-- 5 -->
      <g transform="translate(1154.454102 199.996563)scale(0.1 -0.1)">
       <use xlink:href="#DejaVuSans-35"/>
      </g>
     </g>
    </g>
    <g id="xtick_27">
     <g id="line2d_48">
      <g>
       <use style="stroke:#000000;stroke-width:0.8;" x="1195.444499" xlink:href="#mc7aa4599b0" y="185.398125"/>
      </g>
     </g>
     <g id="text_54">
      <!-- 10 -->
      <g transform="translate(1189.081999 199.996563)scale(0.1 -0.1)">
       <use xlink:href="#DejaVuSans-31"/>
       <use x="63.623047" xlink:href="#DejaVuSans-30"/>
      </g>
     </g>
    </g>
    <g id="xtick_28">
     <g id="line2d_49">
      <g>
       <use style="stroke:#000000;stroke-width:0.8;" x="1233.253646" xlink:href="#mc7aa4599b0" y="185.398125"/>
      </g>
     </g>
     <g id="text_55">
      <!-- 15 -->
      <g transform="translate(1226.891146 199.996563)scale(0.1 -0.1)">
       <use xlink:href="#DejaVuSans-31"/>
       <use x="63.623047" xlink:href="#DejaVuSans-35"/>
      </g>
     </g>
    </g>
    <g id="xtick_29">
     <g id="line2d_50">
      <g>
       <use style="stroke:#000000;stroke-width:0.8;" x="1271.062794" xlink:href="#mc7aa4599b0" y="185.398125"/>
      </g>
     </g>
     <g id="text_56">
      <!-- 20 -->
      <g transform="translate(1264.700294 199.996563)scale(0.1 -0.1)">
       <use xlink:href="#DejaVuSans-32"/>
       <use x="63.623047" xlink:href="#DejaVuSans-30"/>
      </g>
     </g>
    </g>
    <g id="xtick_30">
     <g id="line2d_51">
      <g>
       <use style="stroke:#000000;stroke-width:0.8;" x="1308.871941" xlink:href="#mc7aa4599b0" y="185.398125"/>
      </g>
     </g>
     <g id="text_57">
      <!-- 25 -->
      <g transform="translate(1302.509441 199.996563)scale(0.1 -0.1)">
       <use xlink:href="#DejaVuSans-32"/>
       <use x="63.623047" xlink:href="#DejaVuSans-35"/>
      </g>
     </g>
    </g>
    <g id="xtick_31">
     <g id="line2d_52">
      <g>
       <use style="stroke:#000000;stroke-width:0.8;" x="1346.681089" xlink:href="#mc7aa4599b0" y="185.398125"/>
      </g>
     </g>
     <g id="text_58">
      <!-- 30 -->
      <g transform="translate(1340.318589 199.996563)scale(0.1 -0.1)">
       <use xlink:href="#DejaVuSans-33"/>
       <use x="63.623047" xlink:href="#DejaVuSans-30"/>
      </g>
     </g>
    </g>
    <g id="xtick_32">
     <g id="line2d_53">
      <g>
       <use style="stroke:#000000;stroke-width:0.8;" x="1384.490236" xlink:href="#mc7aa4599b0" y="185.398125"/>
      </g>
     </g>
     <g id="text_59">
      <!-- 35 -->
      <g transform="translate(1378.127736 199.996563)scale(0.1 -0.1)">
       <use xlink:href="#DejaVuSans-33"/>
       <use x="63.623047" xlink:href="#DejaVuSans-35"/>
      </g>
     </g>
    </g>
    <g id="text_60">
     <!-- n_window -->
     <g transform="translate(1227.519939 213.674688)scale(0.1 -0.1)">
      <use xlink:href="#DejaVuSans-6e"/>
      <use x="63.378906" xlink:href="#DejaVuSans-5f"/>
      <use x="113.378906" xlink:href="#DejaVuSans-77"/>
      <use x="195.166016" xlink:href="#DejaVuSans-69"/>
      <use x="222.949219" xlink:href="#DejaVuSans-6e"/>
      <use x="286.328125" xlink:href="#DejaVuSans-64"/>
      <use x="349.804688" xlink:href="#DejaVuSans-6f"/>
      <use x="410.986328" xlink:href="#DejaVuSans-77"/>
     </g>
    </g>
   </g>
   <g id="matplotlib.axis_8">
    <g id="ytick_19">
     <g id="line2d_54">
      <g>
       <use style="stroke:#000000;stroke-width:0.8;" x="1106.593003" xlink:href="#m1f0878af03" y="174.92776"/>
      </g>
     </g>
     <g id="text_61">
      <!-- −0.6 -->
      <g transform="translate(1075.31019 178.726979)scale(0.1 -0.1)">
       <use xlink:href="#DejaVuSans-2212"/>
       <use x="83.789062" xlink:href="#DejaVuSans-30"/>
       <use x="147.412109" xlink:href="#DejaVuSans-2e"/>
       <use x="179.199219" xlink:href="#DejaVuSans-36"/>
      </g>
     </g>
    </g>
    <g id="ytick_20">
     <g id="line2d_55">
      <g>
       <use style="stroke:#000000;stroke-width:0.8;" x="1106.593003" xlink:href="#m1f0878af03" y="146.073712"/>
      </g>
     </g>
     <g id="text_62">
      <!-- −0.4 -->
      <g transform="translate(1075.31019 149.872931)scale(0.1 -0.1)">
       <use xlink:href="#DejaVuSans-2212"/>
       <use x="83.789062" xlink:href="#DejaVuSans-30"/>
       <use x="147.412109" xlink:href="#DejaVuSans-2e"/>
       <use x="179.199219" xlink:href="#DejaVuSans-34"/>
      </g>
     </g>
    </g>
    <g id="ytick_21">
     <g id="line2d_56">
      <g>
       <use style="stroke:#000000;stroke-width:0.8;" x="1106.593003" xlink:href="#m1f0878af03" y="117.219664"/>
      </g>
     </g>
     <g id="text_63">
      <!-- −0.2 -->
      <g transform="translate(1075.31019 121.018882)scale(0.1 -0.1)">
       <use xlink:href="#DejaVuSans-2212"/>
       <use x="83.789062" xlink:href="#DejaVuSans-30"/>
       <use x="147.412109" xlink:href="#DejaVuSans-2e"/>
       <use x="179.199219" xlink:href="#DejaVuSans-32"/>
      </g>
     </g>
    </g>
    <g id="ytick_22">
     <g id="line2d_57">
      <g>
       <use style="stroke:#000000;stroke-width:0.8;" x="1106.593003" xlink:href="#m1f0878af03" y="88.365616"/>
      </g>
     </g>
     <g id="text_64">
      <!-- 0.0 -->
      <g transform="translate(1083.689878 92.164834)scale(0.1 -0.1)">
       <use xlink:href="#DejaVuSans-30"/>
       <use x="63.623047" xlink:href="#DejaVuSans-2e"/>
       <use x="95.410156" xlink:href="#DejaVuSans-30"/>
      </g>
     </g>
    </g>
    <g id="ytick_23">
     <g id="line2d_58">
      <g>
       <use style="stroke:#000000;stroke-width:0.8;" x="1106.593003" xlink:href="#m1f0878af03" y="59.511568"/>
      </g>
     </g>
     <g id="text_65">
      <!-- 0.2 -->
      <g transform="translate(1083.689878 63.310786)scale(0.1 -0.1)">
       <use xlink:href="#DejaVuSans-30"/>
       <use x="63.623047" xlink:href="#DejaVuSans-2e"/>
       <use x="95.410156" xlink:href="#DejaVuSans-32"/>
      </g>
     </g>
    </g>
    <g id="ytick_24">
     <g id="line2d_59">
      <g>
       <use style="stroke:#000000;stroke-width:0.8;" x="1106.593003" xlink:href="#m1f0878af03" y="30.657519"/>
      </g>
     </g>
     <g id="text_66">
      <!-- 0.4 -->
      <g transform="translate(1083.689878 34.456738)scale(0.1 -0.1)">
       <use xlink:href="#DejaVuSans-30"/>
       <use x="63.623047" xlink:href="#DejaVuSans-2e"/>
       <use x="95.410156" xlink:href="#DejaVuSans-34"/>
      </g>
     </g>
    </g>
    <g id="text_67">
     <!-- Coef. corr Pearson -->
     <g transform="translate(1069.230503 149.9675)rotate(-90)scale(0.1 -0.1)">
      <use xlink:href="#DejaVuSans-43"/>
      <use x="69.824219" xlink:href="#DejaVuSans-6f"/>
      <use x="131.005859" xlink:href="#DejaVuSans-65"/>
      <use x="192.529297" xlink:href="#DejaVuSans-66"/>
      <use x="227.625" xlink:href="#DejaVuSans-2e"/>
      <use x="259.412109" xlink:href="#DejaVuSans-20"/>
      <use x="291.199219" xlink:href="#DejaVuSans-63"/>
      <use x="346.179688" xlink:href="#DejaVuSans-6f"/>
      <use x="407.361328" xlink:href="#DejaVuSans-72"/>
      <use x="448.458984" xlink:href="#DejaVuSans-72"/>
      <use x="489.572266" xlink:href="#DejaVuSans-20"/>
      <use x="521.359375" xlink:href="#DejaVuSans-50"/>
      <use x="581.615234" xlink:href="#DejaVuSans-65"/>
      <use x="643.138672" xlink:href="#DejaVuSans-61"/>
      <use x="704.417969" xlink:href="#DejaVuSans-72"/>
      <use x="745.53125" xlink:href="#DejaVuSans-73"/>
      <use x="797.630859" xlink:href="#DejaVuSans-6f"/>
      <use x="858.8125" xlink:href="#DejaVuSans-6e"/>
     </g>
    </g>
   </g>
   <g id="line2d_60">
    <path clip-path="url(#pce91b0659f)" d="M 1119.826204 93.249429 
L 1127.388034 141.042143 
L 1134.949863 156.746257 
L 1142.511693 127.3603 
L 1150.073522 92.626335 
L 1157.635352 82.404125 
L 1165.197181 79.731405 
L 1172.759011 29.730852 
L 1180.32084 76.474577 
L 1187.88267 109.21429 
L 1195.444499 131.38991 
L 1203.006329 127.286202 
L 1210.568158 162.848479 
L 1218.129987 140.546068 
L 1225.691817 143.418164 
L 1233.253646 113.109159 
L 1240.815476 111.588616 
L 1248.377305 90.283367 
L 1255.939135 96.473579 
L 1263.500964 111.198321 
L 1271.062794 102.349427 
L 1278.624623 144.82049 
L 1286.186453 99.146795 
L 1293.748282 137.637026 
L 1301.310112 140.746289 
L 1308.871941 177.985398 
L 1316.433771 169.481976 
L 1323.9956 168.748665 
L 1331.55743 132.265545 
L 1339.119259 140.383961 
L 1346.681089 125.646308 
L 1354.242918 175.076003 
L 1361.804747 151.80234 
L 1369.366577 151.382831 
L 1376.928406 160.788097 
L 1384.490236 173.083117 
" style="fill:none;stroke:#1f77b4;stroke-linecap:square;stroke-width:2;"/>
   </g>
   <g id="patch_18">
    <path d="M 1106.593003 185.398125 
L 1106.593003 22.318125 
" style="fill:none;stroke:#000000;stroke-linecap:square;stroke-linejoin:miter;stroke-width:0.8;"/>
   </g>
   <g id="patch_19">
    <path d="M 1397.723438 185.398125 
L 1397.723438 22.318125 
" style="fill:none;stroke:#000000;stroke-linecap:square;stroke-linejoin:miter;stroke-width:0.8;"/>
   </g>
   <g id="patch_20">
    <path d="M 1106.593003 185.398125 
L 1397.723438 185.398125 
" style="fill:none;stroke:#000000;stroke-linecap:square;stroke-linejoin:miter;stroke-width:0.8;"/>
   </g>
   <g id="patch_21">
    <path d="M 1106.593003 22.318125 
L 1397.723438 22.318125 
" style="fill:none;stroke:#000000;stroke-linecap:square;stroke-linejoin:miter;stroke-width:0.8;"/>
   </g>
   <g id="text_68">
    <!-- Corr. of nodes 6 - 7 seg. -->
    <g transform="translate(1179.808533 16.318125)scale(0.12 -0.12)">
     <use xlink:href="#DejaVuSans-43"/>
     <use x="69.824219" xlink:href="#DejaVuSans-6f"/>
     <use x="131.005859" xlink:href="#DejaVuSans-72"/>
     <use x="172.103516" xlink:href="#DejaVuSans-72"/>
     <use x="213.076172" xlink:href="#DejaVuSans-2e"/>
     <use x="244.863281" xlink:href="#DejaVuSans-20"/>
     <use x="276.650391" xlink:href="#DejaVuSans-6f"/>
     <use x="337.832031" xlink:href="#DejaVuSans-66"/>
     <use x="373.037109" xlink:href="#DejaVuSans-20"/>
     <use x="404.824219" xlink:href="#DejaVuSans-6e"/>
     <use x="468.203125" xlink:href="#DejaVuSans-6f"/>
     <use x="529.384766" xlink:href="#DejaVuSans-64"/>
     <use x="592.861328" xlink:href="#DejaVuSans-65"/>
     <use x="654.384766" xlink:href="#DejaVuSans-73"/>
     <use x="706.484375" xlink:href="#DejaVuSans-20"/>
     <use x="738.271484" xlink:href="#DejaVuSans-36"/>
     <use x="801.894531" xlink:href="#DejaVuSans-20"/>
     <use x="833.681641" xlink:href="#DejaVuSans-2d"/>
     <use x="869.765625" xlink:href="#DejaVuSans-20"/>
     <use x="901.552734" xlink:href="#DejaVuSans-37"/>
     <use x="965.175781" xlink:href="#DejaVuSans-20"/>
     <use x="996.962891" xlink:href="#DejaVuSans-73"/>
     <use x="1049.0625" xlink:href="#DejaVuSans-65"/>
     <use x="1110.585938" xlink:href="#DejaVuSans-67"/>
     <use x="1174.0625" xlink:href="#DejaVuSans-2e"/>
    </g>
   </g>
  </g>
 </g>
 <defs>
  <clipPath id="p776e1f1682">
   <rect height="163.08" width="291.130435" x="58.523438" y="22.318125"/>
  </clipPath>
  <clipPath id="pb91b921f38">
   <rect height="163.08" width="291.130435" x="407.879959" y="22.318125"/>
  </clipPath>
  <clipPath id="p4a894eff2b">
   <rect height="163.08" width="291.130435" x="757.236481" y="22.318125"/>
  </clipPath>
  <clipPath id="pce91b0659f">
   <rect height="163.08" width="291.130435" x="1106.593003" y="22.318125"/>
  </clipPath>
 </defs>
</svg>
