<?xml version="1.0" encoding="utf-8" standalone="no"?>
<!DOCTYPE svg PUBLIC "-//W3C//DTD SVG 1.1//EN"
  "http://www.w3.org/Graphics/SVG/1.1/DTD/svg11.dtd">
<!-- Created with matplotlib (http://matplotlib.org/) -->
<svg height="223.2325pt" version="1.1" viewBox="0 0 1408.423438 223.2325" width="1408.423438pt" xmlns="http://www.w3.org/2000/svg" xmlns:xlink="http://www.w3.org/1999/xlink">
 <defs>
  <style type="text/css">
*{stroke-linecap:butt;stroke-linejoin:round;}
  </style>
 </defs>
 <g id="figure_1">
  <g id="patch_1">
   <path d="M 0 223.2325 
L 1408.423438 223.2325 
L 1408.423438 0 
L 0 0 
z
" style="fill:#ffffff;"/>
  </g>
  <g id="axes_1">
   <g id="patch_2">
    <path d="M 58.523438 185.398125 
L 349.653872 185.398125 
L 349.653872 22.318125 
L 58.523438 22.318125 
z
" style="fill:none;"/>
   </g>
   <g id="matplotlib.axis_1">
    <g id="xtick_1">
     <g id="line2d_1">
      <defs>
       <path d="M 0 0 
L 0 3.5 
" id="m00d6b31073" style="stroke:#000000;stroke-width:0.8;"/>
      </defs>
      <g>
       <use style="stroke:#000000;stroke-width:0.8;" x="71.756639" xlink:href="#m00d6b31073" y="185.398125"/>
      </g>
     </g>
     <g id="text_1">
      <!-- 0 -->
      <defs>
       <path d="M 31.78125 66.40625 
Q 24.171875 66.40625 20.328125 58.90625 
Q 16.5 51.421875 16.5 36.375 
Q 16.5 21.390625 20.328125 13.890625 
Q 24.171875 6.390625 31.78125 6.390625 
Q 39.453125 6.390625 43.28125 13.890625 
Q 47.125 21.390625 47.125 36.375 
Q 47.125 51.421875 43.28125 58.90625 
Q 39.453125 66.40625 31.78125 66.40625 
z
M 31.78125 74.21875 
Q 44.046875 74.21875 50.515625 64.515625 
Q 56.984375 54.828125 56.984375 36.375 
Q 56.984375 17.96875 50.515625 8.265625 
Q 44.046875 -1.421875 31.78125 -1.421875 
Q 19.53125 -1.421875 13.0625 8.265625 
Q 6.59375 17.96875 6.59375 36.375 
Q 6.59375 54.828125 13.0625 64.515625 
Q 19.53125 74.21875 31.78125 74.21875 
z
" id="DejaVuSans-30"/>
      </defs>
      <g transform="translate(68.575389 199.996563)scale(0.1 -0.1)">
       <use xlink:href="#DejaVuSans-30"/>
      </g>
     </g>
    </g>
    <g id="xtick_2">
     <g id="line2d_2">
      <g>
       <use style="stroke:#000000;stroke-width:0.8;" x="119.018073" xlink:href="#m00d6b31073" y="185.398125"/>
      </g>
     </g>
     <g id="text_2">
      <!-- 10 -->
      <defs>
       <path d="M 12.40625 8.296875 
L 28.515625 8.296875 
L 28.515625 63.921875 
L 10.984375 60.40625 
L 10.984375 69.390625 
L 28.421875 72.90625 
L 38.28125 72.90625 
L 38.28125 8.296875 
L 54.390625 8.296875 
L 54.390625 0 
L 12.40625 0 
z
" id="DejaVuSans-31"/>
      </defs>
      <g transform="translate(112.655573 199.996563)scale(0.1 -0.1)">
       <use xlink:href="#DejaVuSans-31"/>
       <use x="63.623047" xlink:href="#DejaVuSans-30"/>
      </g>
     </g>
    </g>
    <g id="xtick_3">
     <g id="line2d_3">
      <g>
       <use style="stroke:#000000;stroke-width:0.8;" x="166.279508" xlink:href="#m00d6b31073" y="185.398125"/>
      </g>
     </g>
     <g id="text_3">
      <!-- 20 -->
      <defs>
       <path d="M 19.1875 8.296875 
L 53.609375 8.296875 
L 53.609375 0 
L 7.328125 0 
L 7.328125 8.296875 
Q 12.9375 14.109375 22.625 23.890625 
Q 32.328125 33.6875 34.8125 36.53125 
Q 39.546875 41.84375 41.421875 45.53125 
Q 43.3125 49.21875 43.3125 52.78125 
Q 43.3125 58.59375 39.234375 62.25 
Q 35.15625 65.921875 28.609375 65.921875 
Q 23.96875 65.921875 18.8125 64.3125 
Q 13.671875 62.703125 7.8125 59.421875 
L 7.8125 69.390625 
Q 13.765625 71.78125 18.9375 73 
Q 24.125 74.21875 28.421875 74.21875 
Q 39.75 74.21875 46.484375 68.546875 
Q 53.21875 62.890625 53.21875 53.421875 
Q 53.21875 48.921875 51.53125 44.890625 
Q 49.859375 40.875 45.40625 35.40625 
Q 44.1875 33.984375 37.640625 27.21875 
Q 31.109375 20.453125 19.1875 8.296875 
z
" id="DejaVuSans-32"/>
      </defs>
      <g transform="translate(159.917008 199.996563)scale(0.1 -0.1)">
       <use xlink:href="#DejaVuSans-32"/>
       <use x="63.623047" xlink:href="#DejaVuSans-30"/>
      </g>
     </g>
    </g>
    <g id="xtick_4">
     <g id="line2d_4">
      <g>
       <use style="stroke:#000000;stroke-width:0.8;" x="213.540942" xlink:href="#m00d6b31073" y="185.398125"/>
      </g>
     </g>
     <g id="text_4">
      <!-- 30 -->
      <defs>
       <path d="M 40.578125 39.3125 
Q 47.65625 37.796875 51.625 33 
Q 55.609375 28.21875 55.609375 21.1875 
Q 55.609375 10.40625 48.1875 4.484375 
Q 40.765625 -1.421875 27.09375 -1.421875 
Q 22.515625 -1.421875 17.65625 -0.515625 
Q 12.796875 0.390625 7.625 2.203125 
L 7.625 11.71875 
Q 11.71875 9.328125 16.59375 8.109375 
Q 21.484375 6.890625 26.8125 6.890625 
Q 36.078125 6.890625 40.9375 10.546875 
Q 45.796875 14.203125 45.796875 21.1875 
Q 45.796875 27.640625 41.28125 31.265625 
Q 36.765625 34.90625 28.71875 34.90625 
L 20.21875 34.90625 
L 20.21875 43.015625 
L 29.109375 43.015625 
Q 36.375 43.015625 40.234375 45.921875 
Q 44.09375 48.828125 44.09375 54.296875 
Q 44.09375 59.90625 40.109375 62.90625 
Q 36.140625 65.921875 28.71875 65.921875 
Q 24.65625 65.921875 20.015625 65.03125 
Q 15.375 64.15625 9.8125 62.3125 
L 9.8125 71.09375 
Q 15.4375 72.65625 20.34375 73.4375 
Q 25.25 74.21875 29.59375 74.21875 
Q 40.828125 74.21875 47.359375 69.109375 
Q 53.90625 64.015625 53.90625 55.328125 
Q 53.90625 49.265625 50.4375 45.09375 
Q 46.96875 40.921875 40.578125 39.3125 
z
" id="DejaVuSans-33"/>
      </defs>
      <g transform="translate(207.178442 199.996563)scale(0.1 -0.1)">
       <use xlink:href="#DejaVuSans-33"/>
       <use x="63.623047" xlink:href="#DejaVuSans-30"/>
      </g>
     </g>
    </g>
    <g id="xtick_5">
     <g id="line2d_5">
      <g>
       <use style="stroke:#000000;stroke-width:0.8;" x="260.802376" xlink:href="#m00d6b31073" y="185.398125"/>
      </g>
     </g>
     <g id="text_5">
      <!-- 40 -->
      <defs>
       <path d="M 37.796875 64.3125 
L 12.890625 25.390625 
L 37.796875 25.390625 
z
M 35.203125 72.90625 
L 47.609375 72.90625 
L 47.609375 25.390625 
L 58.015625 25.390625 
L 58.015625 17.1875 
L 47.609375 17.1875 
L 47.609375 0 
L 37.796875 0 
L 37.796875 17.1875 
L 4.890625 17.1875 
L 4.890625 26.703125 
z
" id="DejaVuSans-34"/>
      </defs>
      <g transform="translate(254.439876 199.996563)scale(0.1 -0.1)">
       <use xlink:href="#DejaVuSans-34"/>
       <use x="63.623047" xlink:href="#DejaVuSans-30"/>
      </g>
     </g>
    </g>
    <g id="xtick_6">
     <g id="line2d_6">
      <g>
       <use style="stroke:#000000;stroke-width:0.8;" x="308.06381" xlink:href="#m00d6b31073" y="185.398125"/>
      </g>
     </g>
     <g id="text_6">
      <!-- 50 -->
      <defs>
       <path d="M 10.796875 72.90625 
L 49.515625 72.90625 
L 49.515625 64.59375 
L 19.828125 64.59375 
L 19.828125 46.734375 
Q 21.96875 47.46875 24.109375 47.828125 
Q 26.265625 48.1875 28.421875 48.1875 
Q 40.625 48.1875 47.75 41.5 
Q 54.890625 34.8125 54.890625 23.390625 
Q 54.890625 11.625 47.5625 5.09375 
Q 40.234375 -1.421875 26.90625 -1.421875 
Q 22.3125 -1.421875 17.546875 -0.640625 
Q 12.796875 0.140625 7.71875 1.703125 
L 7.71875 11.625 
Q 12.109375 9.234375 16.796875 8.0625 
Q 21.484375 6.890625 26.703125 6.890625 
Q 35.15625 6.890625 40.078125 11.328125 
Q 45.015625 15.765625 45.015625 23.390625 
Q 45.015625 31 40.078125 35.4375 
Q 35.15625 39.890625 26.703125 39.890625 
Q 22.75 39.890625 18.8125 39.015625 
Q 14.890625 38.140625 10.796875 36.28125 
z
" id="DejaVuSans-35"/>
      </defs>
      <g transform="translate(301.70131 199.996563)scale(0.1 -0.1)">
       <use xlink:href="#DejaVuSans-35"/>
       <use x="63.623047" xlink:href="#DejaVuSans-30"/>
      </g>
     </g>
    </g>
    <g id="text_7">
     <!-- n_window -->
     <defs>
      <path d="M 54.890625 33.015625 
L 54.890625 0 
L 45.90625 0 
L 45.90625 32.71875 
Q 45.90625 40.484375 42.875 44.328125 
Q 39.84375 48.1875 33.796875 48.1875 
Q 26.515625 48.1875 22.3125 43.546875 
Q 18.109375 38.921875 18.109375 30.90625 
L 18.109375 0 
L 9.078125 0 
L 9.078125 54.6875 
L 18.109375 54.6875 
L 18.109375 46.1875 
Q 21.34375 51.125 25.703125 53.5625 
Q 30.078125 56 35.796875 56 
Q 45.21875 56 50.046875 50.171875 
Q 54.890625 44.34375 54.890625 33.015625 
z
" id="DejaVuSans-6e"/>
      <path d="M 50.984375 -16.609375 
L 50.984375 -23.578125 
L -0.984375 -23.578125 
L -0.984375 -16.609375 
z
" id="DejaVuSans-5f"/>
      <path d="M 4.203125 54.6875 
L 13.1875 54.6875 
L 24.421875 12.015625 
L 35.59375 54.6875 
L 46.1875 54.6875 
L 57.421875 12.015625 
L 68.609375 54.6875 
L 77.59375 54.6875 
L 63.28125 0 
L 52.6875 0 
L 40.921875 44.828125 
L 29.109375 0 
L 18.5 0 
z
" id="DejaVuSans-77"/>
      <path d="M 9.421875 54.6875 
L 18.40625 54.6875 
L 18.40625 0 
L 9.421875 0 
z
M 9.421875 75.984375 
L 18.40625 75.984375 
L 18.40625 64.59375 
L 9.421875 64.59375 
z
" id="DejaVuSans-69"/>
      <path d="M 45.40625 46.390625 
L 45.40625 75.984375 
L 54.390625 75.984375 
L 54.390625 0 
L 45.40625 0 
L 45.40625 8.203125 
Q 42.578125 3.328125 38.25 0.953125 
Q 33.9375 -1.421875 27.875 -1.421875 
Q 17.96875 -1.421875 11.734375 6.484375 
Q 5.515625 14.40625 5.515625 27.296875 
Q 5.515625 40.1875 11.734375 48.09375 
Q 17.96875 56 27.875 56 
Q 33.9375 56 38.25 53.625 
Q 42.578125 51.265625 45.40625 46.390625 
z
M 14.796875 27.296875 
Q 14.796875 17.390625 18.875 11.75 
Q 22.953125 6.109375 30.078125 6.109375 
Q 37.203125 6.109375 41.296875 11.75 
Q 45.40625 17.390625 45.40625 27.296875 
Q 45.40625 37.203125 41.296875 42.84375 
Q 37.203125 48.484375 30.078125 48.484375 
Q 22.953125 48.484375 18.875 42.84375 
Q 14.796875 37.203125 14.796875 27.296875 
z
" id="DejaVuSans-64"/>
      <path d="M 30.609375 48.390625 
Q 23.390625 48.390625 19.1875 42.75 
Q 14.984375 37.109375 14.984375 27.296875 
Q 14.984375 17.484375 19.15625 11.84375 
Q 23.34375 6.203125 30.609375 6.203125 
Q 37.796875 6.203125 41.984375 11.859375 
Q 46.1875 17.53125 46.1875 27.296875 
Q 46.1875 37.015625 41.984375 42.703125 
Q 37.796875 48.390625 30.609375 48.390625 
z
M 30.609375 56 
Q 42.328125 56 49.015625 48.375 
Q 55.71875 40.765625 55.71875 27.296875 
Q 55.71875 13.875 49.015625 6.21875 
Q 42.328125 -1.421875 30.609375 -1.421875 
Q 18.84375 -1.421875 12.171875 6.21875 
Q 5.515625 13.875 5.515625 27.296875 
Q 5.515625 40.765625 12.171875 48.375 
Q 18.84375 56 30.609375 56 
z
" id="DejaVuSans-6f"/>
     </defs>
     <g transform="translate(179.450374 213.674688)scale(0.1 -0.1)">
      <use xlink:href="#DejaVuSans-6e"/>
      <use x="63.378906" xlink:href="#DejaVuSans-5f"/>
      <use x="113.378906" xlink:href="#DejaVuSans-77"/>
      <use x="195.166016" xlink:href="#DejaVuSans-69"/>
      <use x="222.949219" xlink:href="#DejaVuSans-6e"/>
      <use x="286.328125" xlink:href="#DejaVuSans-64"/>
      <use x="349.804688" xlink:href="#DejaVuSans-6f"/>
      <use x="410.986328" xlink:href="#DejaVuSans-77"/>
     </g>
    </g>
   </g>
   <g id="matplotlib.axis_2">
    <g id="ytick_1">
     <g id="line2d_7">
      <defs>
       <path d="M 0 0 
L -3.5 0 
" id="mbbb41cbd32" style="stroke:#000000;stroke-width:0.8;"/>
      </defs>
      <g>
       <use style="stroke:#000000;stroke-width:0.8;" x="58.523438" xlink:href="#mbbb41cbd32" y="167.047396"/>
      </g>
     </g>
     <g id="text_8">
      <!-- −0.75 -->
      <defs>
       <path d="M 10.59375 35.5 
L 73.1875 35.5 
L 73.1875 27.203125 
L 10.59375 27.203125 
z
" id="DejaVuSans-2212"/>
       <path d="M 10.6875 12.40625 
L 21 12.40625 
L 21 0 
L 10.6875 0 
z
" id="DejaVuSans-2e"/>
       <path d="M 8.203125 72.90625 
L 55.078125 72.90625 
L 55.078125 68.703125 
L 28.609375 0 
L 18.3125 0 
L 43.21875 64.59375 
L 8.203125 64.59375 
z
" id="DejaVuSans-37"/>
      </defs>
      <g transform="translate(20.878125 170.846614)scale(0.1 -0.1)">
       <use xlink:href="#DejaVuSans-2212"/>
       <use x="83.789062" xlink:href="#DejaVuSans-30"/>
       <use x="147.412109" xlink:href="#DejaVuSans-2e"/>
       <use x="179.199219" xlink:href="#DejaVuSans-37"/>
       <use x="242.822266" xlink:href="#DejaVuSans-35"/>
      </g>
     </g>
    </g>
    <g id="ytick_2">
     <g id="line2d_8">
      <g>
       <use style="stroke:#000000;stroke-width:0.8;" x="58.523438" xlink:href="#mbbb41cbd32" y="145.369026"/>
      </g>
     </g>
     <g id="text_9">
      <!-- −0.50 -->
      <g transform="translate(20.878125 149.168245)scale(0.1 -0.1)">
       <use xlink:href="#DejaVuSans-2212"/>
       <use x="83.789062" xlink:href="#DejaVuSans-30"/>
       <use x="147.412109" xlink:href="#DejaVuSans-2e"/>
       <use x="179.199219" xlink:href="#DejaVuSans-35"/>
       <use x="242.822266" xlink:href="#DejaVuSans-30"/>
      </g>
     </g>
    </g>
    <g id="ytick_3">
     <g id="line2d_9">
      <g>
       <use style="stroke:#000000;stroke-width:0.8;" x="58.523438" xlink:href="#mbbb41cbd32" y="123.690656"/>
      </g>
     </g>
     <g id="text_10">
      <!-- −0.25 -->
      <g transform="translate(20.878125 127.489875)scale(0.1 -0.1)">
       <use xlink:href="#DejaVuSans-2212"/>
       <use x="83.789062" xlink:href="#DejaVuSans-30"/>
       <use x="147.412109" xlink:href="#DejaVuSans-2e"/>
       <use x="179.199219" xlink:href="#DejaVuSans-32"/>
       <use x="242.822266" xlink:href="#DejaVuSans-35"/>
      </g>
     </g>
    </g>
    <g id="ytick_4">
     <g id="line2d_10">
      <g>
       <use style="stroke:#000000;stroke-width:0.8;" x="58.523438" xlink:href="#mbbb41cbd32" y="102.012286"/>
      </g>
     </g>
     <g id="text_11">
      <!-- 0.00 -->
      <g transform="translate(29.257812 105.811505)scale(0.1 -0.1)">
       <use xlink:href="#DejaVuSans-30"/>
       <use x="63.623047" xlink:href="#DejaVuSans-2e"/>
       <use x="95.410156" xlink:href="#DejaVuSans-30"/>
       <use x="159.033203" xlink:href="#DejaVuSans-30"/>
      </g>
     </g>
    </g>
    <g id="ytick_5">
     <g id="line2d_11">
      <g>
       <use style="stroke:#000000;stroke-width:0.8;" x="58.523438" xlink:href="#mbbb41cbd32" y="80.333916"/>
      </g>
     </g>
     <g id="text_12">
      <!-- 0.25 -->
      <g transform="translate(29.257812 84.133135)scale(0.1 -0.1)">
       <use xlink:href="#DejaVuSans-30"/>
       <use x="63.623047" xlink:href="#DejaVuSans-2e"/>
       <use x="95.410156" xlink:href="#DejaVuSans-32"/>
       <use x="159.033203" xlink:href="#DejaVuSans-35"/>
      </g>
     </g>
    </g>
    <g id="ytick_6">
     <g id="line2d_12">
      <g>
       <use style="stroke:#000000;stroke-width:0.8;" x="58.523438" xlink:href="#mbbb41cbd32" y="58.655547"/>
      </g>
     </g>
     <g id="text_13">
      <!-- 0.50 -->
      <g transform="translate(29.257812 62.454765)scale(0.1 -0.1)">
       <use xlink:href="#DejaVuSans-30"/>
       <use x="63.623047" xlink:href="#DejaVuSans-2e"/>
       <use x="95.410156" xlink:href="#DejaVuSans-35"/>
       <use x="159.033203" xlink:href="#DejaVuSans-30"/>
      </g>
     </g>
    </g>
    <g id="ytick_7">
     <g id="line2d_13">
      <g>
       <use style="stroke:#000000;stroke-width:0.8;" x="58.523438" xlink:href="#mbbb41cbd32" y="36.977177"/>
      </g>
     </g>
     <g id="text_14">
      <!-- 0.75 -->
      <g transform="translate(29.257812 40.776396)scale(0.1 -0.1)">
       <use xlink:href="#DejaVuSans-30"/>
       <use x="63.623047" xlink:href="#DejaVuSans-2e"/>
       <use x="95.410156" xlink:href="#DejaVuSans-37"/>
       <use x="159.033203" xlink:href="#DejaVuSans-35"/>
      </g>
     </g>
    </g>
    <g id="text_15">
     <!-- Coef. corr Pearson -->
     <defs>
      <path d="M 64.40625 67.28125 
L 64.40625 56.890625 
Q 59.421875 61.53125 53.78125 63.8125 
Q 48.140625 66.109375 41.796875 66.109375 
Q 29.296875 66.109375 22.65625 58.46875 
Q 16.015625 50.828125 16.015625 36.375 
Q 16.015625 21.96875 22.65625 14.328125 
Q 29.296875 6.6875 41.796875 6.6875 
Q 48.140625 6.6875 53.78125 8.984375 
Q 59.421875 11.28125 64.40625 15.921875 
L 64.40625 5.609375 
Q 59.234375 2.09375 53.4375 0.328125 
Q 47.65625 -1.421875 41.21875 -1.421875 
Q 24.65625 -1.421875 15.125 8.703125 
Q 5.609375 18.84375 5.609375 36.375 
Q 5.609375 53.953125 15.125 64.078125 
Q 24.65625 74.21875 41.21875 74.21875 
Q 47.75 74.21875 53.53125 72.484375 
Q 59.328125 70.75 64.40625 67.28125 
z
" id="DejaVuSans-43"/>
      <path d="M 56.203125 29.59375 
L 56.203125 25.203125 
L 14.890625 25.203125 
Q 15.484375 15.921875 20.484375 11.0625 
Q 25.484375 6.203125 34.421875 6.203125 
Q 39.59375 6.203125 44.453125 7.46875 
Q 49.3125 8.734375 54.109375 11.28125 
L 54.109375 2.78125 
Q 49.265625 0.734375 44.1875 -0.34375 
Q 39.109375 -1.421875 33.890625 -1.421875 
Q 20.796875 -1.421875 13.15625 6.1875 
Q 5.515625 13.8125 5.515625 26.8125 
Q 5.515625 40.234375 12.765625 48.109375 
Q 20.015625 56 32.328125 56 
Q 43.359375 56 49.78125 48.890625 
Q 56.203125 41.796875 56.203125 29.59375 
z
M 47.21875 32.234375 
Q 47.125 39.59375 43.09375 43.984375 
Q 39.0625 48.390625 32.421875 48.390625 
Q 24.90625 48.390625 20.390625 44.140625 
Q 15.875 39.890625 15.1875 32.171875 
z
" id="DejaVuSans-65"/>
      <path d="M 37.109375 75.984375 
L 37.109375 68.5 
L 28.515625 68.5 
Q 23.6875 68.5 21.796875 66.546875 
Q 19.921875 64.59375 19.921875 59.515625 
L 19.921875 54.6875 
L 34.71875 54.6875 
L 34.71875 47.703125 
L 19.921875 47.703125 
L 19.921875 0 
L 10.890625 0 
L 10.890625 47.703125 
L 2.296875 47.703125 
L 2.296875 54.6875 
L 10.890625 54.6875 
L 10.890625 58.5 
Q 10.890625 67.625 15.140625 71.796875 
Q 19.390625 75.984375 28.609375 75.984375 
z
" id="DejaVuSans-66"/>
      <path id="DejaVuSans-20"/>
      <path d="M 48.78125 52.59375 
L 48.78125 44.1875 
Q 44.96875 46.296875 41.140625 47.34375 
Q 37.3125 48.390625 33.40625 48.390625 
Q 24.65625 48.390625 19.8125 42.84375 
Q 14.984375 37.3125 14.984375 27.296875 
Q 14.984375 17.28125 19.8125 11.734375 
Q 24.65625 6.203125 33.40625 6.203125 
Q 37.3125 6.203125 41.140625 7.25 
Q 44.96875 8.296875 48.78125 10.40625 
L 48.78125 2.09375 
Q 45.015625 0.34375 40.984375 -0.53125 
Q 36.96875 -1.421875 32.421875 -1.421875 
Q 20.0625 -1.421875 12.78125 6.34375 
Q 5.515625 14.109375 5.515625 27.296875 
Q 5.515625 40.671875 12.859375 48.328125 
Q 20.21875 56 33.015625 56 
Q 37.15625 56 41.109375 55.140625 
Q 45.0625 54.296875 48.78125 52.59375 
z
" id="DejaVuSans-63"/>
      <path d="M 41.109375 46.296875 
Q 39.59375 47.171875 37.8125 47.578125 
Q 36.03125 48 33.890625 48 
Q 26.265625 48 22.1875 43.046875 
Q 18.109375 38.09375 18.109375 28.8125 
L 18.109375 0 
L 9.078125 0 
L 9.078125 54.6875 
L 18.109375 54.6875 
L 18.109375 46.1875 
Q 20.953125 51.171875 25.484375 53.578125 
Q 30.03125 56 36.53125 56 
Q 37.453125 56 38.578125 55.875 
Q 39.703125 55.765625 41.0625 55.515625 
z
" id="DejaVuSans-72"/>
      <path d="M 19.671875 64.796875 
L 19.671875 37.40625 
L 32.078125 37.40625 
Q 38.96875 37.40625 42.71875 40.96875 
Q 46.484375 44.53125 46.484375 51.125 
Q 46.484375 57.671875 42.71875 61.234375 
Q 38.96875 64.796875 32.078125 64.796875 
z
M 9.8125 72.90625 
L 32.078125 72.90625 
Q 44.34375 72.90625 50.609375 67.359375 
Q 56.890625 61.8125 56.890625 51.125 
Q 56.890625 40.328125 50.609375 34.8125 
Q 44.34375 29.296875 32.078125 29.296875 
L 19.671875 29.296875 
L 19.671875 0 
L 9.8125 0 
z
" id="DejaVuSans-50"/>
      <path d="M 34.28125 27.484375 
Q 23.390625 27.484375 19.1875 25 
Q 14.984375 22.515625 14.984375 16.5 
Q 14.984375 11.71875 18.140625 8.90625 
Q 21.296875 6.109375 26.703125 6.109375 
Q 34.1875 6.109375 38.703125 11.40625 
Q 43.21875 16.703125 43.21875 25.484375 
L 43.21875 27.484375 
z
M 52.203125 31.203125 
L 52.203125 0 
L 43.21875 0 
L 43.21875 8.296875 
Q 40.140625 3.328125 35.546875 0.953125 
Q 30.953125 -1.421875 24.3125 -1.421875 
Q 15.921875 -1.421875 10.953125 3.296875 
Q 6 8.015625 6 15.921875 
Q 6 25.140625 12.171875 29.828125 
Q 18.359375 34.515625 30.609375 34.515625 
L 43.21875 34.515625 
L 43.21875 35.40625 
Q 43.21875 41.609375 39.140625 45 
Q 35.0625 48.390625 27.6875 48.390625 
Q 23 48.390625 18.546875 47.265625 
Q 14.109375 46.140625 10.015625 43.890625 
L 10.015625 52.203125 
Q 14.9375 54.109375 19.578125 55.046875 
Q 24.21875 56 28.609375 56 
Q 40.484375 56 46.34375 49.84375 
Q 52.203125 43.703125 52.203125 31.203125 
z
" id="DejaVuSans-61"/>
      <path d="M 44.28125 53.078125 
L 44.28125 44.578125 
Q 40.484375 46.53125 36.375 47.5 
Q 32.28125 48.484375 27.875 48.484375 
Q 21.1875 48.484375 17.84375 46.4375 
Q 14.5 44.390625 14.5 40.28125 
Q 14.5 37.15625 16.890625 35.375 
Q 19.28125 33.59375 26.515625 31.984375 
L 29.59375 31.296875 
Q 39.15625 29.25 43.1875 25.515625 
Q 47.21875 21.78125 47.21875 15.09375 
Q 47.21875 7.46875 41.1875 3.015625 
Q 35.15625 -1.421875 24.609375 -1.421875 
Q 20.21875 -1.421875 15.453125 -0.5625 
Q 10.6875 0.296875 5.421875 2 
L 5.421875 11.28125 
Q 10.40625 8.6875 15.234375 7.390625 
Q 20.0625 6.109375 24.8125 6.109375 
Q 31.15625 6.109375 34.5625 8.28125 
Q 37.984375 10.453125 37.984375 14.40625 
Q 37.984375 18.0625 35.515625 20.015625 
Q 33.0625 21.96875 24.703125 23.78125 
L 21.578125 24.515625 
Q 13.234375 26.265625 9.515625 29.90625 
Q 5.8125 33.546875 5.8125 39.890625 
Q 5.8125 47.609375 11.28125 51.796875 
Q 16.75 56 26.8125 56 
Q 31.78125 56 36.171875 55.265625 
Q 40.578125 54.546875 44.28125 53.078125 
z
" id="DejaVuSans-73"/>
     </defs>
     <g transform="translate(14.798437 149.9675)rotate(-90)scale(0.1 -0.1)">
      <use xlink:href="#DejaVuSans-43"/>
      <use x="69.824219" xlink:href="#DejaVuSans-6f"/>
      <use x="131.005859" xlink:href="#DejaVuSans-65"/>
      <use x="192.529297" xlink:href="#DejaVuSans-66"/>
      <use x="227.625" xlink:href="#DejaVuSans-2e"/>
      <use x="259.412109" xlink:href="#DejaVuSans-20"/>
      <use x="291.199219" xlink:href="#DejaVuSans-63"/>
      <use x="346.179688" xlink:href="#DejaVuSans-6f"/>
      <use x="407.361328" xlink:href="#DejaVuSans-72"/>
      <use x="448.458984" xlink:href="#DejaVuSans-72"/>
      <use x="489.572266" xlink:href="#DejaVuSans-20"/>
      <use x="521.359375" xlink:href="#DejaVuSans-50"/>
      <use x="581.615234" xlink:href="#DejaVuSans-65"/>
      <use x="643.138672" xlink:href="#DejaVuSans-61"/>
      <use x="704.417969" xlink:href="#DejaVuSans-72"/>
      <use x="745.53125" xlink:href="#DejaVuSans-73"/>
      <use x="797.630859" xlink:href="#DejaVuSans-6f"/>
      <use x="858.8125" xlink:href="#DejaVuSans-6e"/>
     </g>
    </g>
   </g>
   <g id="line2d_14">
    <path clip-path="url(#p29a1f43df2)" d="M 71.756639 120.103412 
L 76.482783 92.550411 
L 81.208926 111.491347 
L 85.935069 107.365855 
L 90.661213 76.97243 
L 95.387356 134.054476 
L 100.1135 92.092673 
L 104.839643 99.753777 
L 109.565786 91.660829 
L 114.29193 50.984127 
L 119.018073 57.530517 
L 123.744217 57.838888 
L 128.47036 41.94087 
L 133.196504 36.091169 
L 137.922647 68.958381 
L 142.64879 101.827962 
L 147.374934 90.263615 
L 152.101077 99.521057 
L 156.827221 114.980419 
L 161.553364 124.515887 
L 166.279508 85.72617 
L 171.005651 72.25556 
L 175.731794 101.97331 
L 180.457938 149.477237 
L 185.184081 157.814091 
L 189.910225 137.453746 
L 194.636368 84.318382 
L 199.362511 61.52704 
L 204.088655 105.659795 
L 208.814798 117.51577 
L 213.540942 47.907064 
L 218.267085 29.730852 
L 222.993229 30.762573 
L 227.719372 38.656448 
L 232.445515 97.661358 
L 237.171659 125.848151 
L 241.897802 86.826474 
L 246.623946 71.074503 
L 251.350089 102.943146 
L 256.076233 94.761236 
L 260.802376 108.044739 
L 265.528519 110.298989 
L 270.254663 155.121868 
L 274.980806 177.985398 
L 279.70695 119.493313 
L 284.433093 120.319687 
L 289.159236 107.667409 
L 293.88538 98.867497 
L 298.611523 150.421241 
L 303.337667 119.131477 
L 308.06381 98.725988 
L 312.789954 110.513819 
L 317.516097 83.724033 
L 322.24224 104.357789 
L 326.968384 114.270536 
L 331.694527 157.523062 
L 336.420671 158.852973 
" style="fill:none;stroke:#1f77b4;stroke-linecap:square;stroke-width:2;"/>
   </g>
   <g id="patch_3">
    <path d="M 58.523438 185.398125 
L 58.523438 22.318125 
" style="fill:none;stroke:#000000;stroke-linecap:square;stroke-linejoin:miter;stroke-width:0.8;"/>
   </g>
   <g id="patch_4">
    <path d="M 349.653872 185.398125 
L 349.653872 22.318125 
" style="fill:none;stroke:#000000;stroke-linecap:square;stroke-linejoin:miter;stroke-width:0.8;"/>
   </g>
   <g id="patch_5">
    <path d="M 58.523438 185.398125 
L 349.653872 185.398125 
" style="fill:none;stroke:#000000;stroke-linecap:square;stroke-linejoin:miter;stroke-width:0.8;"/>
   </g>
   <g id="patch_6">
    <path d="M 58.523438 22.318125 
L 349.653872 22.318125 
" style="fill:none;stroke:#000000;stroke-linecap:square;stroke-linejoin:miter;stroke-width:0.8;"/>
   </g>
   <g id="text_16">
    <!-- Corr. of nodes 19 - 20 seg. -->
    <defs>
     <path d="M 10.984375 1.515625 
L 10.984375 10.5 
Q 14.703125 8.734375 18.5 7.8125 
Q 22.3125 6.890625 25.984375 6.890625 
Q 35.75 6.890625 40.890625 13.453125 
Q 46.046875 20.015625 46.78125 33.40625 
Q 43.953125 29.203125 39.59375 26.953125 
Q 35.25 24.703125 29.984375 24.703125 
Q 19.046875 24.703125 12.671875 31.3125 
Q 6.296875 37.9375 6.296875 49.421875 
Q 6.296875 60.640625 12.9375 67.421875 
Q 19.578125 74.21875 30.609375 74.21875 
Q 43.265625 74.21875 49.921875 64.515625 
Q 56.59375 54.828125 56.59375 36.375 
Q 56.59375 19.140625 48.40625 8.859375 
Q 40.234375 -1.421875 26.421875 -1.421875 
Q 22.703125 -1.421875 18.890625 -0.6875 
Q 15.09375 0.046875 10.984375 1.515625 
z
M 30.609375 32.421875 
Q 37.25 32.421875 41.125 36.953125 
Q 45.015625 41.5 45.015625 49.421875 
Q 45.015625 57.28125 41.125 61.84375 
Q 37.25 66.40625 30.609375 66.40625 
Q 23.96875 66.40625 20.09375 61.84375 
Q 16.21875 57.28125 16.21875 49.421875 
Q 16.21875 41.5 20.09375 36.953125 
Q 23.96875 32.421875 30.609375 32.421875 
z
" id="DejaVuSans-39"/>
     <path d="M 4.890625 31.390625 
L 31.203125 31.390625 
L 31.203125 23.390625 
L 4.890625 23.390625 
z
" id="DejaVuSans-2d"/>
     <path d="M 45.40625 27.984375 
Q 45.40625 37.75 41.375 43.109375 
Q 37.359375 48.484375 30.078125 48.484375 
Q 22.859375 48.484375 18.828125 43.109375 
Q 14.796875 37.75 14.796875 27.984375 
Q 14.796875 18.265625 18.828125 12.890625 
Q 22.859375 7.515625 30.078125 7.515625 
Q 37.359375 7.515625 41.375 12.890625 
Q 45.40625 18.265625 45.40625 27.984375 
z
M 54.390625 6.78125 
Q 54.390625 -7.171875 48.1875 -13.984375 
Q 42 -20.796875 29.203125 -20.796875 
Q 24.46875 -20.796875 20.265625 -20.09375 
Q 16.0625 -19.390625 12.109375 -17.921875 
L 12.109375 -9.1875 
Q 16.0625 -11.328125 19.921875 -12.34375 
Q 23.78125 -13.375 27.78125 -13.375 
Q 36.625 -13.375 41.015625 -8.765625 
Q 45.40625 -4.15625 45.40625 5.171875 
L 45.40625 9.625 
Q 42.625 4.78125 38.28125 2.390625 
Q 33.9375 0 27.875 0 
Q 17.828125 0 11.671875 7.65625 
Q 5.515625 15.328125 5.515625 27.984375 
Q 5.515625 40.671875 11.671875 48.328125 
Q 17.828125 56 27.875 56 
Q 33.9375 56 38.28125 53.609375 
Q 42.625 51.21875 45.40625 46.390625 
L 45.40625 54.6875 
L 54.390625 54.6875 
z
" id="DejaVuSans-67"/>
    </defs>
    <g transform="translate(124.103967 16.318125)scale(0.12 -0.12)">
     <use xlink:href="#DejaVuSans-43"/>
     <use x="69.824219" xlink:href="#DejaVuSans-6f"/>
     <use x="131.005859" xlink:href="#DejaVuSans-72"/>
     <use x="172.103516" xlink:href="#DejaVuSans-72"/>
     <use x="213.076172" xlink:href="#DejaVuSans-2e"/>
     <use x="244.863281" xlink:href="#DejaVuSans-20"/>
     <use x="276.650391" xlink:href="#DejaVuSans-6f"/>
     <use x="337.832031" xlink:href="#DejaVuSans-66"/>
     <use x="373.037109" xlink:href="#DejaVuSans-20"/>
     <use x="404.824219" xlink:href="#DejaVuSans-6e"/>
     <use x="468.203125" xlink:href="#DejaVuSans-6f"/>
     <use x="529.384766" xlink:href="#DejaVuSans-64"/>
     <use x="592.861328" xlink:href="#DejaVuSans-65"/>
     <use x="654.384766" xlink:href="#DejaVuSans-73"/>
     <use x="706.484375" xlink:href="#DejaVuSans-20"/>
     <use x="738.271484" xlink:href="#DejaVuSans-31"/>
     <use x="801.894531" xlink:href="#DejaVuSans-39"/>
     <use x="865.517578" xlink:href="#DejaVuSans-20"/>
     <use x="897.304688" xlink:href="#DejaVuSans-2d"/>
     <use x="933.388672" xlink:href="#DejaVuSans-20"/>
     <use x="965.175781" xlink:href="#DejaVuSans-32"/>
     <use x="1028.798828" xlink:href="#DejaVuSans-30"/>
     <use x="1092.421875" xlink:href="#DejaVuSans-20"/>
     <use x="1124.208984" xlink:href="#DejaVuSans-73"/>
     <use x="1176.308594" xlink:href="#DejaVuSans-65"/>
     <use x="1237.832031" xlink:href="#DejaVuSans-67"/>
     <use x="1301.308594" xlink:href="#DejaVuSans-2e"/>
    </g>
   </g>
  </g>
  <g id="axes_2">
   <g id="patch_7">
    <path d="M 407.879959 185.398125 
L 699.010394 185.398125 
L 699.010394 22.318125 
L 407.879959 22.318125 
z
" style="fill:none;"/>
   </g>
   <g id="matplotlib.axis_3">
    <g id="xtick_7">
     <g id="line2d_15">
      <g>
       <use style="stroke:#000000;stroke-width:0.8;" x="421.113161" xlink:href="#m00d6b31073" y="185.398125"/>
      </g>
     </g>
     <g id="text_17">
      <!-- 0 -->
      <g transform="translate(417.931911 199.996563)scale(0.1 -0.1)">
       <use xlink:href="#DejaVuSans-30"/>
      </g>
     </g>
    </g>
    <g id="xtick_8">
     <g id="line2d_16">
      <g>
       <use style="stroke:#000000;stroke-width:0.8;" x="468.374595" xlink:href="#m00d6b31073" y="185.398125"/>
      </g>
     </g>
     <g id="text_18">
      <!-- 10 -->
      <g transform="translate(462.012095 199.996563)scale(0.1 -0.1)">
       <use xlink:href="#DejaVuSans-31"/>
       <use x="63.623047" xlink:href="#DejaVuSans-30"/>
      </g>
     </g>
    </g>
    <g id="xtick_9">
     <g id="line2d_17">
      <g>
       <use style="stroke:#000000;stroke-width:0.8;" x="515.636029" xlink:href="#m00d6b31073" y="185.398125"/>
      </g>
     </g>
     <g id="text_19">
      <!-- 20 -->
      <g transform="translate(509.273529 199.996563)scale(0.1 -0.1)">
       <use xlink:href="#DejaVuSans-32"/>
       <use x="63.623047" xlink:href="#DejaVuSans-30"/>
      </g>
     </g>
    </g>
    <g id="xtick_10">
     <g id="line2d_18">
      <g>
       <use style="stroke:#000000;stroke-width:0.8;" x="562.897463" xlink:href="#m00d6b31073" y="185.398125"/>
      </g>
     </g>
     <g id="text_20">
      <!-- 30 -->
      <g transform="translate(556.534963 199.996563)scale(0.1 -0.1)">
       <use xlink:href="#DejaVuSans-33"/>
       <use x="63.623047" xlink:href="#DejaVuSans-30"/>
      </g>
     </g>
    </g>
    <g id="xtick_11">
     <g id="line2d_19">
      <g>
       <use style="stroke:#000000;stroke-width:0.8;" x="610.158898" xlink:href="#m00d6b31073" y="185.398125"/>
      </g>
     </g>
     <g id="text_21">
      <!-- 40 -->
      <g transform="translate(603.796398 199.996563)scale(0.1 -0.1)">
       <use xlink:href="#DejaVuSans-34"/>
       <use x="63.623047" xlink:href="#DejaVuSans-30"/>
      </g>
     </g>
    </g>
    <g id="xtick_12">
     <g id="line2d_20">
      <g>
       <use style="stroke:#000000;stroke-width:0.8;" x="657.420332" xlink:href="#m00d6b31073" y="185.398125"/>
      </g>
     </g>
     <g id="text_22">
      <!-- 50 -->
      <g transform="translate(651.057832 199.996563)scale(0.1 -0.1)">
       <use xlink:href="#DejaVuSans-35"/>
       <use x="63.623047" xlink:href="#DejaVuSans-30"/>
      </g>
     </g>
    </g>
    <g id="text_23">
     <!-- n_window -->
     <g transform="translate(528.806895 213.674688)scale(0.1 -0.1)">
      <use xlink:href="#DejaVuSans-6e"/>
      <use x="63.378906" xlink:href="#DejaVuSans-5f"/>
      <use x="113.378906" xlink:href="#DejaVuSans-77"/>
      <use x="195.166016" xlink:href="#DejaVuSans-69"/>
      <use x="222.949219" xlink:href="#DejaVuSans-6e"/>
      <use x="286.328125" xlink:href="#DejaVuSans-64"/>
      <use x="349.804688" xlink:href="#DejaVuSans-6f"/>
      <use x="410.986328" xlink:href="#DejaVuSans-77"/>
     </g>
    </g>
   </g>
   <g id="matplotlib.axis_4">
    <g id="ytick_8">
     <g id="line2d_21">
      <g>
       <use style="stroke:#000000;stroke-width:0.8;" x="407.879959" xlink:href="#mbbb41cbd32" y="185.496211"/>
      </g>
     </g>
     <g id="text_24">
      <!-- −0.8 -->
      <defs>
       <path d="M 31.78125 34.625 
Q 24.75 34.625 20.71875 30.859375 
Q 16.703125 27.09375 16.703125 20.515625 
Q 16.703125 13.921875 20.71875 10.15625 
Q 24.75 6.390625 31.78125 6.390625 
Q 38.8125 6.390625 42.859375 10.171875 
Q 46.921875 13.96875 46.921875 20.515625 
Q 46.921875 27.09375 42.890625 30.859375 
Q 38.875 34.625 31.78125 34.625 
z
M 21.921875 38.8125 
Q 15.578125 40.375 12.03125 44.71875 
Q 8.5 49.078125 8.5 55.328125 
Q 8.5 64.0625 14.71875 69.140625 
Q 20.953125 74.21875 31.78125 74.21875 
Q 42.671875 74.21875 48.875 69.140625 
Q 55.078125 64.0625 55.078125 55.328125 
Q 55.078125 49.078125 51.53125 44.71875 
Q 48 40.375 41.703125 38.8125 
Q 48.828125 37.15625 52.796875 32.3125 
Q 56.78125 27.484375 56.78125 20.515625 
Q 56.78125 9.90625 50.3125 4.234375 
Q 43.84375 -1.421875 31.78125 -1.421875 
Q 19.734375 -1.421875 13.25 4.234375 
Q 6.78125 9.90625 6.78125 20.515625 
Q 6.78125 27.484375 10.78125 32.3125 
Q 14.796875 37.15625 21.921875 38.8125 
z
M 18.3125 54.390625 
Q 18.3125 48.734375 21.84375 45.5625 
Q 25.390625 42.390625 31.78125 42.390625 
Q 38.140625 42.390625 41.71875 45.5625 
Q 45.3125 48.734375 45.3125 54.390625 
Q 45.3125 60.0625 41.71875 63.234375 
Q 38.140625 66.40625 31.78125 66.40625 
Q 25.390625 66.40625 21.84375 63.234375 
Q 18.3125 60.0625 18.3125 54.390625 
z
" id="DejaVuSans-38"/>
      </defs>
      <g transform="translate(376.597147 189.29543)scale(0.1 -0.1)">
       <use xlink:href="#DejaVuSans-2212"/>
       <use x="83.789062" xlink:href="#DejaVuSans-30"/>
       <use x="147.412109" xlink:href="#DejaVuSans-2e"/>
       <use x="179.199219" xlink:href="#DejaVuSans-38"/>
      </g>
     </g>
    </g>
    <g id="ytick_9">
     <g id="line2d_22">
      <g>
       <use style="stroke:#000000;stroke-width:0.8;" x="407.879959" xlink:href="#mbbb41cbd32" y="164.090419"/>
      </g>
     </g>
     <g id="text_25">
      <!-- −0.6 -->
      <defs>
       <path d="M 33.015625 40.375 
Q 26.375 40.375 22.484375 35.828125 
Q 18.609375 31.296875 18.609375 23.390625 
Q 18.609375 15.53125 22.484375 10.953125 
Q 26.375 6.390625 33.015625 6.390625 
Q 39.65625 6.390625 43.53125 10.953125 
Q 47.40625 15.53125 47.40625 23.390625 
Q 47.40625 31.296875 43.53125 35.828125 
Q 39.65625 40.375 33.015625 40.375 
z
M 52.59375 71.296875 
L 52.59375 62.3125 
Q 48.875 64.0625 45.09375 64.984375 
Q 41.3125 65.921875 37.59375 65.921875 
Q 27.828125 65.921875 22.671875 59.328125 
Q 17.53125 52.734375 16.796875 39.40625 
Q 19.671875 43.65625 24.015625 45.921875 
Q 28.375 48.1875 33.59375 48.1875 
Q 44.578125 48.1875 50.953125 41.515625 
Q 57.328125 34.859375 57.328125 23.390625 
Q 57.328125 12.15625 50.6875 5.359375 
Q 44.046875 -1.421875 33.015625 -1.421875 
Q 20.359375 -1.421875 13.671875 8.265625 
Q 6.984375 17.96875 6.984375 36.375 
Q 6.984375 53.65625 15.1875 63.9375 
Q 23.390625 74.21875 37.203125 74.21875 
Q 40.921875 74.21875 44.703125 73.484375 
Q 48.484375 72.75 52.59375 71.296875 
z
" id="DejaVuSans-36"/>
      </defs>
      <g transform="translate(376.597147 167.889638)scale(0.1 -0.1)">
       <use xlink:href="#DejaVuSans-2212"/>
       <use x="83.789062" xlink:href="#DejaVuSans-30"/>
       <use x="147.412109" xlink:href="#DejaVuSans-2e"/>
       <use x="179.199219" xlink:href="#DejaVuSans-36"/>
      </g>
     </g>
    </g>
    <g id="ytick_10">
     <g id="line2d_23">
      <g>
       <use style="stroke:#000000;stroke-width:0.8;" x="407.879959" xlink:href="#mbbb41cbd32" y="142.684627"/>
      </g>
     </g>
     <g id="text_26">
      <!-- −0.4 -->
      <g transform="translate(376.597147 146.483846)scale(0.1 -0.1)">
       <use xlink:href="#DejaVuSans-2212"/>
       <use x="83.789062" xlink:href="#DejaVuSans-30"/>
       <use x="147.412109" xlink:href="#DejaVuSans-2e"/>
       <use x="179.199219" xlink:href="#DejaVuSans-34"/>
      </g>
     </g>
    </g>
    <g id="ytick_11">
     <g id="line2d_24">
      <g>
       <use style="stroke:#000000;stroke-width:0.8;" x="407.879959" xlink:href="#mbbb41cbd32" y="121.278835"/>
      </g>
     </g>
     <g id="text_27">
      <!-- −0.2 -->
      <g transform="translate(376.597147 125.078054)scale(0.1 -0.1)">
       <use xlink:href="#DejaVuSans-2212"/>
       <use x="83.789062" xlink:href="#DejaVuSans-30"/>
       <use x="147.412109" xlink:href="#DejaVuSans-2e"/>
       <use x="179.199219" xlink:href="#DejaVuSans-32"/>
      </g>
     </g>
    </g>
    <g id="ytick_12">
     <g id="line2d_25">
      <g>
       <use style="stroke:#000000;stroke-width:0.8;" x="407.879959" xlink:href="#mbbb41cbd32" y="99.873043"/>
      </g>
     </g>
     <g id="text_28">
      <!-- 0.0 -->
      <g transform="translate(384.976834 103.672262)scale(0.1 -0.1)">
       <use xlink:href="#DejaVuSans-30"/>
       <use x="63.623047" xlink:href="#DejaVuSans-2e"/>
       <use x="95.410156" xlink:href="#DejaVuSans-30"/>
      </g>
     </g>
    </g>
    <g id="ytick_13">
     <g id="line2d_26">
      <g>
       <use style="stroke:#000000;stroke-width:0.8;" x="407.879959" xlink:href="#mbbb41cbd32" y="78.467251"/>
      </g>
     </g>
     <g id="text_29">
      <!-- 0.2 -->
      <g transform="translate(384.976834 82.26647)scale(0.1 -0.1)">
       <use xlink:href="#DejaVuSans-30"/>
       <use x="63.623047" xlink:href="#DejaVuSans-2e"/>
       <use x="95.410156" xlink:href="#DejaVuSans-32"/>
      </g>
     </g>
    </g>
    <g id="ytick_14">
     <g id="line2d_27">
      <g>
       <use style="stroke:#000000;stroke-width:0.8;" x="407.879959" xlink:href="#mbbb41cbd32" y="57.061459"/>
      </g>
     </g>
     <g id="text_30">
      <!-- 0.4 -->
      <g transform="translate(384.976834 60.860678)scale(0.1 -0.1)">
       <use xlink:href="#DejaVuSans-30"/>
       <use x="63.623047" xlink:href="#DejaVuSans-2e"/>
       <use x="95.410156" xlink:href="#DejaVuSans-34"/>
      </g>
     </g>
    </g>
    <g id="ytick_15">
     <g id="line2d_28">
      <g>
       <use style="stroke:#000000;stroke-width:0.8;" x="407.879959" xlink:href="#mbbb41cbd32" y="35.655667"/>
      </g>
     </g>
     <g id="text_31">
      <!-- 0.6 -->
      <g transform="translate(384.976834 39.454886)scale(0.1 -0.1)">
       <use xlink:href="#DejaVuSans-30"/>
       <use x="63.623047" xlink:href="#DejaVuSans-2e"/>
       <use x="95.410156" xlink:href="#DejaVuSans-36"/>
      </g>
     </g>
    </g>
    <g id="text_32">
     <!-- Coef. corr Pearson -->
     <g transform="translate(370.517459 149.9675)rotate(-90)scale(0.1 -0.1)">
      <use xlink:href="#DejaVuSans-43"/>
      <use x="69.824219" xlink:href="#DejaVuSans-6f"/>
      <use x="131.005859" xlink:href="#DejaVuSans-65"/>
      <use x="192.529297" xlink:href="#DejaVuSans-66"/>
      <use x="227.625" xlink:href="#DejaVuSans-2e"/>
      <use x="259.412109" xlink:href="#DejaVuSans-20"/>
      <use x="291.199219" xlink:href="#DejaVuSans-63"/>
      <use x="346.179688" xlink:href="#DejaVuSans-6f"/>
      <use x="407.361328" xlink:href="#DejaVuSans-72"/>
      <use x="448.458984" xlink:href="#DejaVuSans-72"/>
      <use x="489.572266" xlink:href="#DejaVuSans-20"/>
      <use x="521.359375" xlink:href="#DejaVuSans-50"/>
      <use x="581.615234" xlink:href="#DejaVuSans-65"/>
      <use x="643.138672" xlink:href="#DejaVuSans-61"/>
      <use x="704.417969" xlink:href="#DejaVuSans-72"/>
      <use x="745.53125" xlink:href="#DejaVuSans-73"/>
      <use x="797.630859" xlink:href="#DejaVuSans-6f"/>
      <use x="858.8125" xlink:href="#DejaVuSans-6e"/>
     </g>
    </g>
   </g>
   <g id="line2d_29">
    <path clip-path="url(#pfc0e0e07c2)" d="M 421.113161 144.864861 
L 425.839304 118.510104 
L 430.565448 112.945116 
L 435.291591 104.964072 
L 440.017735 63.848933 
L 444.743878 162.594874 
L 449.470021 130.937376 
L 454.196165 93.719955 
L 458.922308 54.744418 
L 463.648452 36.262188 
L 468.374595 45.456495 
L 473.100738 58.084986 
L 477.826882 60.069407 
L 482.553025 78.713138 
L 487.279169 145.238113 
L 492.005312 163.107748 
L 496.731456 134.652679 
L 501.457599 101.472796 
L 506.183742 109.438385 
L 510.909886 82.636799 
L 515.636029 92.469011 
L 520.362173 113.762099 
L 525.088316 97.440062 
L 529.81446 47.886678 
L 534.540603 38.817834 
L 539.266746 63.083542 
L 543.99289 61.397616 
L 548.719033 77.535095 
L 553.445177 29.730852 
L 558.17132 81.84751 
L 562.897463 66.352502 
L 567.623607 61.638551 
L 572.34975 74.654721 
L 577.075894 158.01757 
L 581.802037 113.302085 
L 586.528181 94.726409 
L 591.254324 55.963102 
L 595.980467 114.688717 
L 600.706611 98.285712 
L 605.432754 96.873625 
L 610.158898 129.820006 
L 614.885041 100.111566 
L 619.611185 73.700804 
L 624.337328 110.915232 
L 629.063471 151.265118 
L 633.789615 177.985398 
L 638.515758 135.340171 
L 643.241902 160.055506 
L 647.968045 141.560112 
L 652.694188 68.457143 
L 657.420332 56.151708 
L 662.146475 41.582434 
L 666.872619 42.64984 
L 671.598762 147.400287 
L 676.324906 125.03281 
L 681.051049 91.770969 
L 685.777192 141.827289 
" style="fill:none;stroke:#1f77b4;stroke-linecap:square;stroke-width:2;"/>
   </g>
   <g id="patch_8">
    <path d="M 407.879959 185.398125 
L 407.879959 22.318125 
" style="fill:none;stroke:#000000;stroke-linecap:square;stroke-linejoin:miter;stroke-width:0.8;"/>
   </g>
   <g id="patch_9">
    <path d="M 699.010394 185.398125 
L 699.010394 22.318125 
" style="fill:none;stroke:#000000;stroke-linecap:square;stroke-linejoin:miter;stroke-width:0.8;"/>
   </g>
   <g id="patch_10">
    <path d="M 407.879959 185.398125 
L 699.010394 185.398125 
" style="fill:none;stroke:#000000;stroke-linecap:square;stroke-linejoin:miter;stroke-width:0.8;"/>
   </g>
   <g id="patch_11">
    <path d="M 407.879959 22.318125 
L 699.010394 22.318125 
" style="fill:none;stroke:#000000;stroke-linecap:square;stroke-linejoin:miter;stroke-width:0.8;"/>
   </g>
   <g id="text_33">
    <!-- Corr. of nodes 23 - 24 seg. -->
    <g transform="translate(473.460489 16.318125)scale(0.12 -0.12)">
     <use xlink:href="#DejaVuSans-43"/>
     <use x="69.824219" xlink:href="#DejaVuSans-6f"/>
     <use x="131.005859" xlink:href="#DejaVuSans-72"/>
     <use x="172.103516" xlink:href="#DejaVuSans-72"/>
     <use x="213.076172" xlink:href="#DejaVuSans-2e"/>
     <use x="244.863281" xlink:href="#DejaVuSans-20"/>
     <use x="276.650391" xlink:href="#DejaVuSans-6f"/>
     <use x="337.832031" xlink:href="#DejaVuSans-66"/>
     <use x="373.037109" xlink:href="#DejaVuSans-20"/>
     <use x="404.824219" xlink:href="#DejaVuSans-6e"/>
     <use x="468.203125" xlink:href="#DejaVuSans-6f"/>
     <use x="529.384766" xlink:href="#DejaVuSans-64"/>
     <use x="592.861328" xlink:href="#DejaVuSans-65"/>
     <use x="654.384766" xlink:href="#DejaVuSans-73"/>
     <use x="706.484375" xlink:href="#DejaVuSans-20"/>
     <use x="738.271484" xlink:href="#DejaVuSans-32"/>
     <use x="801.894531" xlink:href="#DejaVuSans-33"/>
     <use x="865.517578" xlink:href="#DejaVuSans-20"/>
     <use x="897.304688" xlink:href="#DejaVuSans-2d"/>
     <use x="933.388672" xlink:href="#DejaVuSans-20"/>
     <use x="965.175781" xlink:href="#DejaVuSans-32"/>
     <use x="1028.798828" xlink:href="#DejaVuSans-34"/>
     <use x="1092.421875" xlink:href="#DejaVuSans-20"/>
     <use x="1124.208984" xlink:href="#DejaVuSans-73"/>
     <use x="1176.308594" xlink:href="#DejaVuSans-65"/>
     <use x="1237.832031" xlink:href="#DejaVuSans-67"/>
     <use x="1301.308594" xlink:href="#DejaVuSans-2e"/>
    </g>
   </g>
  </g>
  <g id="axes_3">
   <g id="patch_12">
    <path d="M 757.236481 185.398125 
L 1048.366916 185.398125 
L 1048.366916 22.318125 
L 757.236481 22.318125 
z
" style="fill:none;"/>
   </g>
   <g id="matplotlib.axis_5">
    <g id="xtick_13">
     <g id="line2d_30">
      <g>
       <use style="stroke:#000000;stroke-width:0.8;" x="770.469683" xlink:href="#m00d6b31073" y="185.398125"/>
      </g>
     </g>
     <g id="text_34">
      <!-- 0 -->
      <g transform="translate(767.288433 199.996563)scale(0.1 -0.1)">
       <use xlink:href="#DejaVuSans-30"/>
      </g>
     </g>
    </g>
    <g id="xtick_14">
     <g id="line2d_31">
      <g>
       <use style="stroke:#000000;stroke-width:0.8;" x="817.731117" xlink:href="#m00d6b31073" y="185.398125"/>
      </g>
     </g>
     <g id="text_35">
      <!-- 10 -->
      <g transform="translate(811.368617 199.996563)scale(0.1 -0.1)">
       <use xlink:href="#DejaVuSans-31"/>
       <use x="63.623047" xlink:href="#DejaVuSans-30"/>
      </g>
     </g>
    </g>
    <g id="xtick_15">
     <g id="line2d_32">
      <g>
       <use style="stroke:#000000;stroke-width:0.8;" x="864.992551" xlink:href="#m00d6b31073" y="185.398125"/>
      </g>
     </g>
     <g id="text_36">
      <!-- 20 -->
      <g transform="translate(858.630051 199.996563)scale(0.1 -0.1)">
       <use xlink:href="#DejaVuSans-32"/>
       <use x="63.623047" xlink:href="#DejaVuSans-30"/>
      </g>
     </g>
    </g>
    <g id="xtick_16">
     <g id="line2d_33">
      <g>
       <use style="stroke:#000000;stroke-width:0.8;" x="912.253985" xlink:href="#m00d6b31073" y="185.398125"/>
      </g>
     </g>
     <g id="text_37">
      <!-- 30 -->
      <g transform="translate(905.891485 199.996563)scale(0.1 -0.1)">
       <use xlink:href="#DejaVuSans-33"/>
       <use x="63.623047" xlink:href="#DejaVuSans-30"/>
      </g>
     </g>
    </g>
    <g id="xtick_17">
     <g id="line2d_34">
      <g>
       <use style="stroke:#000000;stroke-width:0.8;" x="959.515419" xlink:href="#m00d6b31073" y="185.398125"/>
      </g>
     </g>
     <g id="text_38">
      <!-- 40 -->
      <g transform="translate(953.152919 199.996563)scale(0.1 -0.1)">
       <use xlink:href="#DejaVuSans-34"/>
       <use x="63.623047" xlink:href="#DejaVuSans-30"/>
      </g>
     </g>
    </g>
    <g id="xtick_18">
     <g id="line2d_35">
      <g>
       <use style="stroke:#000000;stroke-width:0.8;" x="1006.776854" xlink:href="#m00d6b31073" y="185.398125"/>
      </g>
     </g>
     <g id="text_39">
      <!-- 50 -->
      <g transform="translate(1000.414354 199.996563)scale(0.1 -0.1)">
       <use xlink:href="#DejaVuSans-35"/>
       <use x="63.623047" xlink:href="#DejaVuSans-30"/>
      </g>
     </g>
    </g>
    <g id="text_40">
     <!-- n_window -->
     <g transform="translate(878.163417 213.674688)scale(0.1 -0.1)">
      <use xlink:href="#DejaVuSans-6e"/>
      <use x="63.378906" xlink:href="#DejaVuSans-5f"/>
      <use x="113.378906" xlink:href="#DejaVuSans-77"/>
      <use x="195.166016" xlink:href="#DejaVuSans-69"/>
      <use x="222.949219" xlink:href="#DejaVuSans-6e"/>
      <use x="286.328125" xlink:href="#DejaVuSans-64"/>
      <use x="349.804688" xlink:href="#DejaVuSans-6f"/>
      <use x="410.986328" xlink:href="#DejaVuSans-77"/>
     </g>
    </g>
   </g>
   <g id="matplotlib.axis_6">
    <g id="ytick_16">
     <g id="line2d_36">
      <g>
       <use style="stroke:#000000;stroke-width:0.8;" x="757.236481" xlink:href="#mbbb41cbd32" y="164.778025"/>
      </g>
     </g>
     <g id="text_41">
      <!-- −0.50 -->
      <g transform="translate(719.591168 168.577244)scale(0.1 -0.1)">
       <use xlink:href="#DejaVuSans-2212"/>
       <use x="83.789062" xlink:href="#DejaVuSans-30"/>
       <use x="147.412109" xlink:href="#DejaVuSans-2e"/>
       <use x="179.199219" xlink:href="#DejaVuSans-35"/>
       <use x="242.822266" xlink:href="#DejaVuSans-30"/>
      </g>
     </g>
    </g>
    <g id="ytick_17">
     <g id="line2d_37">
      <g>
       <use style="stroke:#000000;stroke-width:0.8;" x="757.236481" xlink:href="#mbbb41cbd32" y="141.012172"/>
      </g>
     </g>
     <g id="text_42">
      <!-- −0.25 -->
      <g transform="translate(719.591168 144.81139)scale(0.1 -0.1)">
       <use xlink:href="#DejaVuSans-2212"/>
       <use x="83.789062" xlink:href="#DejaVuSans-30"/>
       <use x="147.412109" xlink:href="#DejaVuSans-2e"/>
       <use x="179.199219" xlink:href="#DejaVuSans-32"/>
       <use x="242.822266" xlink:href="#DejaVuSans-35"/>
      </g>
     </g>
    </g>
    <g id="ytick_18">
     <g id="line2d_38">
      <g>
       <use style="stroke:#000000;stroke-width:0.8;" x="757.236481" xlink:href="#mbbb41cbd32" y="117.246318"/>
      </g>
     </g>
     <g id="text_43">
      <!-- 0.00 -->
      <g transform="translate(727.970856 121.045537)scale(0.1 -0.1)">
       <use xlink:href="#DejaVuSans-30"/>
       <use x="63.623047" xlink:href="#DejaVuSans-2e"/>
       <use x="95.410156" xlink:href="#DejaVuSans-30"/>
       <use x="159.033203" xlink:href="#DejaVuSans-30"/>
      </g>
     </g>
    </g>
    <g id="ytick_19">
     <g id="line2d_39">
      <g>
       <use style="stroke:#000000;stroke-width:0.8;" x="757.236481" xlink:href="#mbbb41cbd32" y="93.480465"/>
      </g>
     </g>
     <g id="text_44">
      <!-- 0.25 -->
      <g transform="translate(727.970856 97.279683)scale(0.1 -0.1)">
       <use xlink:href="#DejaVuSans-30"/>
       <use x="63.623047" xlink:href="#DejaVuSans-2e"/>
       <use x="95.410156" xlink:href="#DejaVuSans-32"/>
       <use x="159.033203" xlink:href="#DejaVuSans-35"/>
      </g>
     </g>
    </g>
    <g id="ytick_20">
     <g id="line2d_40">
      <g>
       <use style="stroke:#000000;stroke-width:0.8;" x="757.236481" xlink:href="#mbbb41cbd32" y="69.714611"/>
      </g>
     </g>
     <g id="text_45">
      <!-- 0.50 -->
      <g transform="translate(727.970856 73.51383)scale(0.1 -0.1)">
       <use xlink:href="#DejaVuSans-30"/>
       <use x="63.623047" xlink:href="#DejaVuSans-2e"/>
       <use x="95.410156" xlink:href="#DejaVuSans-35"/>
       <use x="159.033203" xlink:href="#DejaVuSans-30"/>
      </g>
     </g>
    </g>
    <g id="ytick_21">
     <g id="line2d_41">
      <g>
       <use style="stroke:#000000;stroke-width:0.8;" x="757.236481" xlink:href="#mbbb41cbd32" y="45.948758"/>
      </g>
     </g>
     <g id="text_46">
      <!-- 0.75 -->
      <g transform="translate(727.970856 49.747977)scale(0.1 -0.1)">
       <use xlink:href="#DejaVuSans-30"/>
       <use x="63.623047" xlink:href="#DejaVuSans-2e"/>
       <use x="95.410156" xlink:href="#DejaVuSans-37"/>
       <use x="159.033203" xlink:href="#DejaVuSans-35"/>
      </g>
     </g>
    </g>
    <g id="ytick_22">
     <g id="line2d_42">
      <g>
       <use style="stroke:#000000;stroke-width:0.8;" x="757.236481" xlink:href="#mbbb41cbd32" y="22.182904"/>
      </g>
     </g>
     <g id="text_47">
      <!-- 1.00 -->
      <g transform="translate(727.970856 25.982123)scale(0.1 -0.1)">
       <use xlink:href="#DejaVuSans-31"/>
       <use x="63.623047" xlink:href="#DejaVuSans-2e"/>
       <use x="95.410156" xlink:href="#DejaVuSans-30"/>
       <use x="159.033203" xlink:href="#DejaVuSans-30"/>
      </g>
     </g>
    </g>
    <g id="text_48">
     <!-- Coef. corr Pearson -->
     <g transform="translate(713.511481 149.9675)rotate(-90)scale(0.1 -0.1)">
      <use xlink:href="#DejaVuSans-43"/>
      <use x="69.824219" xlink:href="#DejaVuSans-6f"/>
      <use x="131.005859" xlink:href="#DejaVuSans-65"/>
      <use x="192.529297" xlink:href="#DejaVuSans-66"/>
      <use x="227.625" xlink:href="#DejaVuSans-2e"/>
      <use x="259.412109" xlink:href="#DejaVuSans-20"/>
      <use x="291.199219" xlink:href="#DejaVuSans-63"/>
      <use x="346.179688" xlink:href="#DejaVuSans-6f"/>
      <use x="407.361328" xlink:href="#DejaVuSans-72"/>
      <use x="448.458984" xlink:href="#DejaVuSans-72"/>
      <use x="489.572266" xlink:href="#DejaVuSans-20"/>
      <use x="521.359375" xlink:href="#DejaVuSans-50"/>
      <use x="581.615234" xlink:href="#DejaVuSans-65"/>
      <use x="643.138672" xlink:href="#DejaVuSans-61"/>
      <use x="704.417969" xlink:href="#DejaVuSans-72"/>
      <use x="745.53125" xlink:href="#DejaVuSans-73"/>
      <use x="797.630859" xlink:href="#DejaVuSans-6f"/>
      <use x="858.8125" xlink:href="#DejaVuSans-6e"/>
     </g>
    </g>
   </g>
   <g id="line2d_43">
    <path clip-path="url(#p99b47ebdee)" d="M 770.469683 105.638719 
L 775.195826 96.314353 
L 779.921969 88.368828 
L 784.648113 76.004832 
L 789.374256 88.971756 
L 794.1004 126.387053 
L 798.826543 74.721373 
L 803.552687 46.967158 
L 808.27883 29.730852 
L 813.004973 47.887107 
L 817.731117 146.392205 
L 822.45726 135.213759 
L 827.183404 123.815656 
L 831.909547 116.5581 
L 836.63569 72.412546 
L 841.361834 32.074645 
L 846.087977 36.530536 
L 850.814121 73.392833 
L 855.540264 100.803585 
L 860.266408 107.277559 
L 864.992551 146.615314 
L 869.718694 173.517807 
L 874.444838 150.519364 
L 879.170981 126.324288 
L 883.897125 109.793189 
L 888.623268 69.267106 
L 893.349412 65.569913 
L 898.075555 102.165893 
L 902.801698 96.248727 
L 907.527842 70.386029 
L 912.253985 123.307262 
L 916.980129 162.897947 
L 921.706272 166.18363 
L 926.432415 176.234252 
L 931.158559 109.456281 
L 935.884702 117.412917 
L 940.610846 136.65545 
L 945.336989 116.987616 
L 950.063133 76.41359 
L 954.789276 86.113093 
L 959.515419 129.797492 
L 964.241563 117.237592 
L 968.967706 77.108422 
L 973.69385 110.191051 
L 978.419993 172.227967 
L 983.146137 177.985398 
L 987.87228 165.386878 
L 992.598423 144.333681 
L 997.324567 165.332751 
L 1002.05071 153.278818 
L 1006.776854 122.385997 
L 1011.502997 144.582623 
L 1016.22914 93.262892 
L 1020.955284 110.642188 
L 1025.681427 115.006114 
L 1030.407571 127.827947 
L 1035.133714 169.790603 
" style="fill:none;stroke:#1f77b4;stroke-linecap:square;stroke-width:2;"/>
   </g>
   <g id="patch_13">
    <path d="M 757.236481 185.398125 
L 757.236481 22.318125 
" style="fill:none;stroke:#000000;stroke-linecap:square;stroke-linejoin:miter;stroke-width:0.8;"/>
   </g>
   <g id="patch_14">
    <path d="M 1048.366916 185.398125 
L 1048.366916 22.318125 
" style="fill:none;stroke:#000000;stroke-linecap:square;stroke-linejoin:miter;stroke-width:0.8;"/>
   </g>
   <g id="patch_15">
    <path d="M 757.236481 185.398125 
L 1048.366916 185.398125 
" style="fill:none;stroke:#000000;stroke-linecap:square;stroke-linejoin:miter;stroke-width:0.8;"/>
   </g>
   <g id="patch_16">
    <path d="M 757.236481 22.318125 
L 1048.366916 22.318125 
" style="fill:none;stroke:#000000;stroke-linecap:square;stroke-linejoin:miter;stroke-width:0.8;"/>
   </g>
   <g id="text_49">
    <!-- Corr. of nodes 13 - 14 seg. -->
    <g transform="translate(822.817011 16.318125)scale(0.12 -0.12)">
     <use xlink:href="#DejaVuSans-43"/>
     <use x="69.824219" xlink:href="#DejaVuSans-6f"/>
     <use x="131.005859" xlink:href="#DejaVuSans-72"/>
     <use x="172.103516" xlink:href="#DejaVuSans-72"/>
     <use x="213.076172" xlink:href="#DejaVuSans-2e"/>
     <use x="244.863281" xlink:href="#DejaVuSans-20"/>
     <use x="276.650391" xlink:href="#DejaVuSans-6f"/>
     <use x="337.832031" xlink:href="#DejaVuSans-66"/>
     <use x="373.037109" xlink:href="#DejaVuSans-20"/>
     <use x="404.824219" xlink:href="#DejaVuSans-6e"/>
     <use x="468.203125" xlink:href="#DejaVuSans-6f"/>
     <use x="529.384766" xlink:href="#DejaVuSans-64"/>
     <use x="592.861328" xlink:href="#DejaVuSans-65"/>
     <use x="654.384766" xlink:href="#DejaVuSans-73"/>
     <use x="706.484375" xlink:href="#DejaVuSans-20"/>
     <use x="738.271484" xlink:href="#DejaVuSans-31"/>
     <use x="801.894531" xlink:href="#DejaVuSans-33"/>
     <use x="865.517578" xlink:href="#DejaVuSans-20"/>
     <use x="897.304688" xlink:href="#DejaVuSans-2d"/>
     <use x="933.388672" xlink:href="#DejaVuSans-20"/>
     <use x="965.175781" xlink:href="#DejaVuSans-31"/>
     <use x="1028.798828" xlink:href="#DejaVuSans-34"/>
     <use x="1092.421875" xlink:href="#DejaVuSans-20"/>
     <use x="1124.208984" xlink:href="#DejaVuSans-73"/>
     <use x="1176.308594" xlink:href="#DejaVuSans-65"/>
     <use x="1237.832031" xlink:href="#DejaVuSans-67"/>
     <use x="1301.308594" xlink:href="#DejaVuSans-2e"/>
    </g>
   </g>
  </g>
  <g id="axes_4">
   <g id="patch_17">
    <path d="M 1106.593003 185.398125 
L 1397.723438 185.398125 
L 1397.723438 22.318125 
L 1106.593003 22.318125 
z
" style="fill:none;"/>
   </g>
   <g id="matplotlib.axis_7">
    <g id="xtick_19">
     <g id="line2d_44">
      <g>
       <use style="stroke:#000000;stroke-width:0.8;" x="1119.826204" xlink:href="#m00d6b31073" y="185.398125"/>
      </g>
     </g>
     <g id="text_50">
      <!-- 0 -->
      <g transform="translate(1116.644954 199.996563)scale(0.1 -0.1)">
       <use xlink:href="#DejaVuSans-30"/>
      </g>
     </g>
    </g>
    <g id="xtick_20">
     <g id="line2d_45">
      <g>
       <use style="stroke:#000000;stroke-width:0.8;" x="1167.087639" xlink:href="#m00d6b31073" y="185.398125"/>
      </g>
     </g>
     <g id="text_51">
      <!-- 10 -->
      <g transform="translate(1160.725139 199.996563)scale(0.1 -0.1)">
       <use xlink:href="#DejaVuSans-31"/>
       <use x="63.623047" xlink:href="#DejaVuSans-30"/>
      </g>
     </g>
    </g>
    <g id="xtick_21">
     <g id="line2d_46">
      <g>
       <use style="stroke:#000000;stroke-width:0.8;" x="1214.349073" xlink:href="#m00d6b31073" y="185.398125"/>
      </g>
     </g>
     <g id="text_52">
      <!-- 20 -->
      <g transform="translate(1207.986573 199.996563)scale(0.1 -0.1)">
       <use xlink:href="#DejaVuSans-32"/>
       <use x="63.623047" xlink:href="#DejaVuSans-30"/>
      </g>
     </g>
    </g>
    <g id="xtick_22">
     <g id="line2d_47">
      <g>
       <use style="stroke:#000000;stroke-width:0.8;" x="1261.610507" xlink:href="#m00d6b31073" y="185.398125"/>
      </g>
     </g>
     <g id="text_53">
      <!-- 30 -->
      <g transform="translate(1255.248007 199.996563)scale(0.1 -0.1)">
       <use xlink:href="#DejaVuSans-33"/>
       <use x="63.623047" xlink:href="#DejaVuSans-30"/>
      </g>
     </g>
    </g>
    <g id="xtick_23">
     <g id="line2d_48">
      <g>
       <use style="stroke:#000000;stroke-width:0.8;" x="1308.871941" xlink:href="#m00d6b31073" y="185.398125"/>
      </g>
     </g>
     <g id="text_54">
      <!-- 40 -->
      <g transform="translate(1302.509441 199.996563)scale(0.1 -0.1)">
       <use xlink:href="#DejaVuSans-34"/>
       <use x="63.623047" xlink:href="#DejaVuSans-30"/>
      </g>
     </g>
    </g>
    <g id="xtick_24">
     <g id="line2d_49">
      <g>
       <use style="stroke:#000000;stroke-width:0.8;" x="1356.133375" xlink:href="#m00d6b31073" y="185.398125"/>
      </g>
     </g>
     <g id="text_55">
      <!-- 50 -->
      <g transform="translate(1349.770875 199.996563)scale(0.1 -0.1)">
       <use xlink:href="#DejaVuSans-35"/>
       <use x="63.623047" xlink:href="#DejaVuSans-30"/>
      </g>
     </g>
    </g>
    <g id="text_56">
     <!-- n_window -->
     <g transform="translate(1227.519939 213.674688)scale(0.1 -0.1)">
      <use xlink:href="#DejaVuSans-6e"/>
      <use x="63.378906" xlink:href="#DejaVuSans-5f"/>
      <use x="113.378906" xlink:href="#DejaVuSans-77"/>
      <use x="195.166016" xlink:href="#DejaVuSans-69"/>
      <use x="222.949219" xlink:href="#DejaVuSans-6e"/>
      <use x="286.328125" xlink:href="#DejaVuSans-64"/>
      <use x="349.804688" xlink:href="#DejaVuSans-6f"/>
      <use x="410.986328" xlink:href="#DejaVuSans-77"/>
     </g>
    </g>
   </g>
   <g id="matplotlib.axis_8">
    <g id="ytick_23">
     <g id="line2d_50">
      <g>
       <use style="stroke:#000000;stroke-width:0.8;" x="1106.593003" xlink:href="#mbbb41cbd32" y="173.499281"/>
      </g>
     </g>
     <g id="text_57">
      <!-- −0.8 -->
      <g transform="translate(1075.31019 177.298499)scale(0.1 -0.1)">
       <use xlink:href="#DejaVuSans-2212"/>
       <use x="83.789062" xlink:href="#DejaVuSans-30"/>
       <use x="147.412109" xlink:href="#DejaVuSans-2e"/>
       <use x="179.199219" xlink:href="#DejaVuSans-38"/>
      </g>
     </g>
    </g>
    <g id="ytick_24">
     <g id="line2d_51">
      <g>
       <use style="stroke:#000000;stroke-width:0.8;" x="1106.593003" xlink:href="#mbbb41cbd32" y="152.684895"/>
      </g>
     </g>
     <g id="text_58">
      <!-- −0.6 -->
      <g transform="translate(1075.31019 156.484113)scale(0.1 -0.1)">
       <use xlink:href="#DejaVuSans-2212"/>
       <use x="83.789062" xlink:href="#DejaVuSans-30"/>
       <use x="147.412109" xlink:href="#DejaVuSans-2e"/>
       <use x="179.199219" xlink:href="#DejaVuSans-36"/>
      </g>
     </g>
    </g>
    <g id="ytick_25">
     <g id="line2d_52">
      <g>
       <use style="stroke:#000000;stroke-width:0.8;" x="1106.593003" xlink:href="#mbbb41cbd32" y="131.870508"/>
      </g>
     </g>
     <g id="text_59">
      <!-- −0.4 -->
      <g transform="translate(1075.31019 135.669727)scale(0.1 -0.1)">
       <use xlink:href="#DejaVuSans-2212"/>
       <use x="83.789062" xlink:href="#DejaVuSans-30"/>
       <use x="147.412109" xlink:href="#DejaVuSans-2e"/>
       <use x="179.199219" xlink:href="#DejaVuSans-34"/>
      </g>
     </g>
    </g>
    <g id="ytick_26">
     <g id="line2d_53">
      <g>
       <use style="stroke:#000000;stroke-width:0.8;" x="1106.593003" xlink:href="#mbbb41cbd32" y="111.056122"/>
      </g>
     </g>
     <g id="text_60">
      <!-- −0.2 -->
      <g transform="translate(1075.31019 114.855341)scale(0.1 -0.1)">
       <use xlink:href="#DejaVuSans-2212"/>
       <use x="83.789062" xlink:href="#DejaVuSans-30"/>
       <use x="147.412109" xlink:href="#DejaVuSans-2e"/>
       <use x="179.199219" xlink:href="#DejaVuSans-32"/>
      </g>
     </g>
    </g>
    <g id="ytick_27">
     <g id="line2d_54">
      <g>
       <use style="stroke:#000000;stroke-width:0.8;" x="1106.593003" xlink:href="#mbbb41cbd32" y="90.241736"/>
      </g>
     </g>
     <g id="text_61">
      <!-- 0.0 -->
      <g transform="translate(1083.689878 94.040955)scale(0.1 -0.1)">
       <use xlink:href="#DejaVuSans-30"/>
       <use x="63.623047" xlink:href="#DejaVuSans-2e"/>
       <use x="95.410156" xlink:href="#DejaVuSans-30"/>
      </g>
     </g>
    </g>
    <g id="ytick_28">
     <g id="line2d_55">
      <g>
       <use style="stroke:#000000;stroke-width:0.8;" x="1106.593003" xlink:href="#mbbb41cbd32" y="69.42735"/>
      </g>
     </g>
     <g id="text_62">
      <!-- 0.2 -->
      <g transform="translate(1083.689878 73.226568)scale(0.1 -0.1)">
       <use xlink:href="#DejaVuSans-30"/>
       <use x="63.623047" xlink:href="#DejaVuSans-2e"/>
       <use x="95.410156" xlink:href="#DejaVuSans-32"/>
      </g>
     </g>
    </g>
    <g id="ytick_29">
     <g id="line2d_56">
      <g>
       <use style="stroke:#000000;stroke-width:0.8;" x="1106.593003" xlink:href="#mbbb41cbd32" y="48.612964"/>
      </g>
     </g>
     <g id="text_63">
      <!-- 0.4 -->
      <g transform="translate(1083.689878 52.412182)scale(0.1 -0.1)">
       <use xlink:href="#DejaVuSans-30"/>
       <use x="63.623047" xlink:href="#DejaVuSans-2e"/>
       <use x="95.410156" xlink:href="#DejaVuSans-34"/>
      </g>
     </g>
    </g>
    <g id="ytick_30">
     <g id="line2d_57">
      <g>
       <use style="stroke:#000000;stroke-width:0.8;" x="1106.593003" xlink:href="#mbbb41cbd32" y="27.798577"/>
      </g>
     </g>
     <g id="text_64">
      <!-- 0.6 -->
      <g transform="translate(1083.689878 31.597796)scale(0.1 -0.1)">
       <use xlink:href="#DejaVuSans-30"/>
       <use x="63.623047" xlink:href="#DejaVuSans-2e"/>
       <use x="95.410156" xlink:href="#DejaVuSans-36"/>
      </g>
     </g>
    </g>
    <g id="text_65">
     <!-- Coef. corr Pearson -->
     <g transform="translate(1069.230503 149.9675)rotate(-90)scale(0.1 -0.1)">
      <use xlink:href="#DejaVuSans-43"/>
      <use x="69.824219" xlink:href="#DejaVuSans-6f"/>
      <use x="131.005859" xlink:href="#DejaVuSans-65"/>
      <use x="192.529297" xlink:href="#DejaVuSans-66"/>
      <use x="227.625" xlink:href="#DejaVuSans-2e"/>
      <use x="259.412109" xlink:href="#DejaVuSans-20"/>
      <use x="291.199219" xlink:href="#DejaVuSans-63"/>
      <use x="346.179688" xlink:href="#DejaVuSans-6f"/>
      <use x="407.361328" xlink:href="#DejaVuSans-72"/>
      <use x="448.458984" xlink:href="#DejaVuSans-72"/>
      <use x="489.572266" xlink:href="#DejaVuSans-20"/>
      <use x="521.359375" xlink:href="#DejaVuSans-50"/>
      <use x="581.615234" xlink:href="#DejaVuSans-65"/>
      <use x="643.138672" xlink:href="#DejaVuSans-61"/>
      <use x="704.417969" xlink:href="#DejaVuSans-72"/>
      <use x="745.53125" xlink:href="#DejaVuSans-73"/>
      <use x="797.630859" xlink:href="#DejaVuSans-6f"/>
      <use x="858.8125" xlink:href="#DejaVuSans-6e"/>
     </g>
    </g>
   </g>
   <g id="line2d_58">
    <path clip-path="url(#pa55642434b)" d="M 1119.826204 113.742001 
L 1124.552348 96.403019 
L 1129.278491 77.494783 
L 1134.004635 85.930923 
L 1138.730778 135.843447 
L 1143.456921 132.690491 
L 1148.183065 126.287836 
L 1152.909208 85.682144 
L 1157.635352 70.226892 
L 1162.361495 78.137441 
L 1167.087639 29.730852 
L 1171.813782 56.774136 
L 1176.539925 74.171324 
L 1181.266069 89.010627 
L 1185.992212 93.053618 
L 1190.718356 106.905197 
L 1195.444499 74.802486 
L 1200.170642 169.690741 
L 1204.896786 149.428453 
L 1209.622929 135.7367 
L 1214.349073 143.389746 
L 1219.075216 135.160902 
L 1223.80136 111.149029 
L 1228.527503 121.063756 
L 1233.253646 136.530598 
L 1237.97979 61.836995 
L 1242.705933 66.910257 
L 1247.432077 81.922483 
L 1252.15822 97.030677 
L 1256.884364 102.322174 
L 1261.610507 119.875939 
L 1266.33665 148.903913 
L 1271.062794 125.305119 
L 1275.788937 90.581132 
L 1280.515081 84.806767 
L 1285.241224 93.439503 
L 1289.967367 105.543459 
L 1294.693511 142.118964 
L 1299.419654 167.483296 
L 1304.145798 177.985398 
L 1308.871941 175.486384 
L 1313.598085 167.464225 
L 1318.324228 113.134769 
L 1323.050371 131.528042 
L 1327.776515 126.918806 
L 1332.502658 124.533466 
L 1337.228802 111.864946 
L 1341.954945 111.280927 
L 1346.681089 137.584783 
L 1351.407232 164.205075 
L 1356.133375 121.751353 
L 1360.859519 125.349633 
L 1365.585662 148.713099 
L 1370.311806 143.710961 
L 1375.037949 143.542822 
L 1379.764092 165.375505 
L 1384.490236 169.989778 
" style="fill:none;stroke:#1f77b4;stroke-linecap:square;stroke-width:2;"/>
   </g>
   <g id="patch_18">
    <path d="M 1106.593003 185.398125 
L 1106.593003 22.318125 
" style="fill:none;stroke:#000000;stroke-linecap:square;stroke-linejoin:miter;stroke-width:0.8;"/>
   </g>
   <g id="patch_19">
    <path d="M 1397.723438 185.398125 
L 1397.723438 22.318125 
" style="fill:none;stroke:#000000;stroke-linecap:square;stroke-linejoin:miter;stroke-width:0.8;"/>
   </g>
   <g id="patch_20">
    <path d="M 1106.593003 185.398125 
L 1397.723438 185.398125 
" style="fill:none;stroke:#000000;stroke-linecap:square;stroke-linejoin:miter;stroke-width:0.8;"/>
   </g>
   <g id="patch_21">
    <path d="M 1106.593003 22.318125 
L 1397.723438 22.318125 
" style="fill:none;stroke:#000000;stroke-linecap:square;stroke-linejoin:miter;stroke-width:0.8;"/>
   </g>
   <g id="text_66">
    <!-- Corr. of nodes 6 - 7 seg. -->
    <g transform="translate(1179.808533 16.318125)scale(0.12 -0.12)">
     <use xlink:href="#DejaVuSans-43"/>
     <use x="69.824219" xlink:href="#DejaVuSans-6f"/>
     <use x="131.005859" xlink:href="#DejaVuSans-72"/>
     <use x="172.103516" xlink:href="#DejaVuSans-72"/>
     <use x="213.076172" xlink:href="#DejaVuSans-2e"/>
     <use x="244.863281" xlink:href="#DejaVuSans-20"/>
     <use x="276.650391" xlink:href="#DejaVuSans-6f"/>
     <use x="337.832031" xlink:href="#DejaVuSans-66"/>
     <use x="373.037109" xlink:href="#DejaVuSans-20"/>
     <use x="404.824219" xlink:href="#DejaVuSans-6e"/>
     <use x="468.203125" xlink:href="#DejaVuSans-6f"/>
     <use x="529.384766" xlink:href="#DejaVuSans-64"/>
     <use x="592.861328" xlink:href="#DejaVuSans-65"/>
     <use x="654.384766" xlink:href="#DejaVuSans-73"/>
     <use x="706.484375" xlink:href="#DejaVuSans-20"/>
     <use x="738.271484" xlink:href="#DejaVuSans-36"/>
     <use x="801.894531" xlink:href="#DejaVuSans-20"/>
     <use x="833.681641" xlink:href="#DejaVuSans-2d"/>
     <use x="869.765625" xlink:href="#DejaVuSans-20"/>
     <use x="901.552734" xlink:href="#DejaVuSans-37"/>
     <use x="965.175781" xlink:href="#DejaVuSans-20"/>
     <use x="996.962891" xlink:href="#DejaVuSans-73"/>
     <use x="1049.0625" xlink:href="#DejaVuSans-65"/>
     <use x="1110.585938" xlink:href="#DejaVuSans-67"/>
     <use x="1174.0625" xlink:href="#DejaVuSans-2e"/>
    </g>
   </g>
  </g>
 </g>
 <defs>
  <clipPath id="p29a1f43df2">
   <rect height="163.08" width="291.130435" x="58.523438" y="22.318125"/>
  </clipPath>
  <clipPath id="pfc0e0e07c2">
   <rect height="163.08" width="291.130435" x="407.879959" y="22.318125"/>
  </clipPath>
  <clipPath id="p99b47ebdee">
   <rect height="163.08" width="291.130435" x="757.236481" y="22.318125"/>
  </clipPath>
  <clipPath id="pa55642434b">
   <rect height="163.08" width="291.130435" x="1106.593003" y="22.318125"/>
  </clipPath>
 </defs>
</svg>
